SplineFontDB: 3.2
FontName: BibleRoman
FullName: Bible Roman
FamilyName: Bible Roman
Weight: Book
Copyright: 2002, Fredrick Nader. All rights reserved. apostrophe@apostrophiclab.com
Version: 1.0; December 2002
ItalicAngle: 0
UnderlinePosition: -150.528
UnderlineWidth: 40.96
Ascent: 819
Descent: 205
InvalidEm: 0
sfntRevision: 0x00010000
LayerCount: 2
Layer: 0 1 "Hinten" 1
Layer: 1 1 "Vorne" 0
XUID: [1021 256 -1967491057 14686]
StyleMap: 0x0040
FSType: 0
OS2Version: 2
OS2_WeightWidthSlopeOnly: 0
OS2_UseTypoMetrics: 0
CreationTime: 1039457615
ModificationTime: 1760972326
PfmFamily: 17
TTFWeight: 400
TTFWidth: 5
LineGap: 28
VLineGap: 0
Panose: 2 2 5 0 6 4 11 2 4 3
OS2TypoAscent: 816
OS2TypoAOffset: 0
OS2TypoDescent: -281
OS2TypoDOffset: 0
OS2TypoLinegap: 54
OS2WinAscent: 1026
OS2WinAOffset: 0
OS2WinDescent: 298
OS2WinDOffset: 0
HheadAscent: 1026
HheadAOffset: 0
HheadDescent: -298
HheadDOffset: 0
OS2SubXSize: 717
OS2SubYSize: 666
OS2SubXOff: 0
OS2SubYOff: 143
OS2SupXSize: 717
OS2SupYSize: 666
OS2SupXOff: 0
OS2SupYOff: 488
OS2StrikeYSize: 51
OS2StrikeYPos: 256
OS2FamilyClass: 258
OS2Vendor: 'APOS'
OS2CodePages: 20000111.00000000
OS2UnicodeRanges: 80000027.4000004a.00000000.00000000
Lookup: 1 0 0 "'smcp' Gemeine in Kapit+AOQA-lchen in Lateinisch Nachschlagetabelle 0" { "'smcp' Gemeine in Kapit+AOQA-lchen in Lateinisch Nachschlagetabelle 0 Subtabelle"  } ['smcp' ('latn' <'dflt' > ) ]
Lookup: 1 0 0 "'c2sc' Versalien in Kapit+AOQA-lchen in Lateinisch Nachschlagetabelle 0" { "'c2sc' Versalien in Kapit+AOQA-lchen in Lateinisch Nachschlagetabelle 0 Subtabelle"  } ['c2sc' ('latn' <'dflt' > ) ]
Lookup: 258 0 0 "'kern' Horizontale Unterschneidung in Lateinisch Nachschlagetabelle 0" { "'kern' Horizontale Unterschneidung in Lateinisch Nachschlagetabelle 0 Subtabelle"  } ['kern' ('DFLT' <'dflt' > 'latn' <'dflt' > ) ]
MarkAttachClasses: 1
DEI: 91125
ShortTable: maxp 16
  1
  0
  248
  235
  7
  0
  0
  1
  0
  0
  0
  0
  0
  0
  0
  0
EndShort

StartChar: breve
Encoding: 5 5 4
Width: 480
Flags: W
LayerCount: 2
Fore
SplineSet
246 586 m 0,0,1
 262 586 262 586 277 592 c 128,-1,2
 292 598 292 598 303 609 c 128,-1,3
 314 620 314 620 321 633.5 c 128,-1,4
 328 647 328 647 328 664 c 1,5,-1
 370 664 l 1,6,7
 370 637 370 637 359 614.5 c 128,-1,8
 348 592 348 592 330.5 575 c 128,-1,9
 313 558 313 558 290 548.5 c 128,-1,10
 267 539 267 539 242 539 c 0,11,12
 238 539 238 539 231 541 c 0,13,14
 211 542 211 542 192 553.5 c 128,-1,15
 173 565 173 565 158 583 c 128,-1,16
 143 601 143 601 134 622 c 128,-1,17
 125 643 125 643 124 664 c 1,18,-1
 172 664 l 1,19,20
 173 651 173 651 178.5 637.5 c 128,-1,21
 184 624 184 624 193.5 613 c 128,-1,22
 203 602 203 602 214.5 595 c 128,-1,23
 226 588 226 588 240 587 c 0,24,25
 242 586 242 586 246 586 c 0,0,1
EndSplineSet
Validated: 1
EndChar

StartChar: dotaccent
Encoding: 6 6 5
Width: 465
Flags: W
LayerCount: 2
Fore
SplineSet
315 638 m 0,0,1
 315 610 315 610 295 590.5 c 128,-1,2
 275 571 275 571 248 571 c 0,3,4
 244 571 244 571 243 572 c 0,5,6
 232 573 232 573 221.5 580 c 128,-1,7
 211 587 211 587 203.5 596.5 c 128,-1,8
 196 606 196 606 191 618 c 128,-1,9
 186 630 186 630 186 641 c 0,10,11
 186 665 186 665 204.5 684 c 128,-1,12
 223 703 223 703 247 703 c 0,13,14
 274 703 274 703 294.5 684 c 128,-1,15
 315 665 315 665 315 638 c 0,0,1
EndSplineSet
Validated: 1
EndChar

StartChar: ring
Encoding: 8 8 6
Width: 474
Flags: W
LayerCount: 2
Fore
SplineSet
304 635 m 256,0,1
 304 661 304 661 285 678.5 c 128,-1,2
 266 696 266 696 242 696 c 0,3,4
 219 696 219 696 202.5 679 c 128,-1,5
 186 662 186 662 186 639 c 0,6,7
 186 629 186 629 190.5 618 c 128,-1,8
 195 607 195 607 202 598 c 128,-1,9
 209 589 209 589 218 583 c 128,-1,10
 227 577 227 577 238 575 c 0,11,12
 239 574 239 574 243 574 c 0,13,14
 269 574 269 574 286.5 591.5 c 128,-1,15
 304 609 304 609 304 635 c 256,0,1
337 635 m 0,16,17
 337 615 337 615 329.5 597.5 c 128,-1,18
 322 580 322 580 308.5 567 c 128,-1,19
 295 554 295 554 277 546.5 c 128,-1,20
 259 539 259 539 240 539 c 0,21,22
 234 539 234 539 231 541 c 0,23,24
 215 542 215 542 200 551.5 c 128,-1,25
 185 561 185 561 174 575.5 c 128,-1,26
 163 590 163 590 156.5 607 c 128,-1,27
 150 624 150 624 150 640 c 0,28,29
 150 657 150 657 157 673.5 c 128,-1,30
 164 690 164 690 176 703 c 128,-1,31
 188 716 188 716 204 723.5 c 128,-1,32
 220 731 220 731 238 731 c 0,33,34
 282 731 282 731 309.5 703.5 c 128,-1,35
 337 676 337 676 337 635 c 0,16,17
EndSplineSet
Validated: 1
EndChar

StartChar: hungarumlaut
Encoding: 10 10 7
Width: 532
Flags: W
LayerCount: 2
Fore
SplineSet
260 718 m 0,0,1
 266 713 266 713 269 711.5 c 128,-1,2
 272 710 272 710 275 708 c 128,-1,3
 278 706 278 706 282.5 702.5 c 128,-1,4
 287 699 287 699 296 693 c 0,5,6
 304 690 304 690 303.5 682.5 c 128,-1,7
 303 675 303 675 298 671 c 0,8,9
 291 663 291 663 272.5 639.5 c 128,-1,10
 254 616 254 616 233.5 591 c 128,-1,11
 213 566 213 566 195 545.5 c 128,-1,12
 177 525 177 525 172 522 c 0,13,14
 163 516 163 516 155 521.5 c 128,-1,15
 147 527 147 527 154 539 c 0,16,17
 159 552 159 552 170 576 c 128,-1,18
 181 600 181 600 193.5 626 c 128,-1,19
 206 652 206 652 217.5 675.5 c 128,-1,20
 229 699 229 699 237 712 c 0,21,22
 242 720 242 720 246.5 722 c 128,-1,23
 251 724 251 724 260 718 c 0,0,1
396 718 m 0,24,25
 402 713 402 713 405.5 711.5 c 128,-1,26
 409 710 409 710 411.5 708 c 128,-1,27
 414 706 414 706 418.5 702.5 c 128,-1,28
 423 699 423 699 432 693 c 0,29,30
 440 690 440 690 439.5 682.5 c 128,-1,31
 439 675 439 675 434 671 c 0,32,33
 427 663 427 663 408.5 639.5 c 128,-1,34
 390 616 390 616 369.5 591 c 128,-1,35
 349 566 349 566 331 545.5 c 128,-1,36
 313 525 313 525 308 522 c 0,37,38
 299 516 299 516 291.5 521.5 c 128,-1,39
 284 527 284 527 290 539 c 0,40,41
 295 552 295 552 306 576 c 128,-1,42
 317 600 317 600 329.5 626 c 128,-1,43
 342 652 342 652 354 675.5 c 128,-1,44
 366 699 366 699 373 712 c 0,45,46
 378 720 378 720 382.5 722 c 128,-1,47
 387 724 387 724 396 718 c 0,24,25
EndSplineSet
Validated: 1
EndChar

StartChar: ogonek
Encoding: 11 11 8
Width: 484
Flags: W
LayerCount: 2
Fore
SplineSet
289 -46 m 0,0,1
 292 -20 292 -20 305 -2.5 c 128,-1,2
 318 15 318 15 337 25.5 c 128,-1,3
 356 36 356 36 379 39.5 c 128,-1,4
 402 43 402 43 426 40 c 0,5,6
 429 39 429 39 430 33.5 c 128,-1,7
 431 28 431 28 426 1 c 1,8,9
 417 2 417 2 405 -2 c 128,-1,10
 393 -6 393 -6 383.5 -13 c 128,-1,11
 374 -20 374 -20 366.5 -30.5 c 128,-1,12
 359 -41 359 -41 358 -51 c 0,13,14
 355 -75 355 -75 368.5 -95 c 128,-1,15
 382 -115 382 -115 421 -116 c 0,16,17
 444 -117 444 -117 463 -115 c 128,-1,18
 482 -113 482 -113 508 -106 c 1,19,20
 513 -112 513 -112 513.5 -117.5 c 128,-1,21
 514 -123 514 -123 515 -131 c 1,22,23
 491 -140 491 -140 466.5 -149 c 128,-1,24
 442 -158 442 -158 418 -159 c 0,25,26
 389 -160 389 -160 364 -151.5 c 128,-1,27
 339 -143 339 -143 321.5 -128 c 128,-1,28
 304 -113 304 -113 295 -92 c 128,-1,29
 286 -71 286 -71 289 -46 c 0,0,1
EndSplineSet
Validated: 33
EndChar

StartChar: caron
Encoding: 12 12 9
Width: 432
Flags: W
LayerCount: 2
Fore
SplineSet
334 716 m 0,0,1
 340 716 340 716 340 709 c 0,2,3
 340 706 340 706 333.5 691.5 c 128,-1,4
 327 677 327 677 316 657.5 c 128,-1,5
 305 638 305 638 292.5 615.5 c 128,-1,6
 280 593 280 593 268 573.5 c 128,-1,7
 256 554 256 554 246.5 539.5 c 128,-1,8
 237 525 237 525 232 522 c 1,9,10
 223 527 223 527 222 530 c 0,11,12
 192 579 192 579 165 623 c 128,-1,13
 138 667 138 667 124 705 c 0,14,15
 122 711 122 711 122 713 c 0,16,17
 122 721 122 721 131 720 c 0,18,19
 136 719 136 719 148.5 704 c 128,-1,20
 161 689 161 689 175.5 669.5 c 128,-1,21
 190 650 190 650 205.5 632 c 128,-1,22
 221 614 221 614 232 607 c 1,23,24
 243 614 243 614 257 632 c 128,-1,25
 271 650 271 650 284.5 668.5 c 128,-1,26
 298 687 298 687 311 701.5 c 128,-1,27
 324 716 324 716 334 716 c 0,0,1
EndSplineSet
Validated: 1
EndChar

StartChar: dotlessi
Encoding: 13 13 10
Width: 320
Flags: W
LayerCount: 2
Fore
SplineSet
281 5 m 0,0,1
 281 -6 281 -6 270 -7 c 128,-1,2
 259 -8 259 -8 252 -8 c 0,3,4
 234 -8 234 -8 216 -5.5 c 128,-1,5
 198 -3 198 -3 180 -3 c 0,6,7
 153 -3 153 -3 125.5 -5.5 c 128,-1,8
 98 -8 98 -8 72 -8 c 2,9,-1
 60 -8 l 2,10,11
 52 -8 52 -8 45 -6 c 128,-1,12
 38 -4 38 -4 38 7 c 0,13,14
 38 10 38 10 40 12 c 128,-1,15
 42 14 42 14 44 16 c 0,16,17
 53 23 53 23 65 25 c 128,-1,18
 77 27 77 27 88 28.5 c 128,-1,19
 99 30 99 30 108 35.5 c 128,-1,20
 117 41 117 41 120 57 c 0,21,22
 122 67 122 67 122 72 c 2,23,-1
 122 87 l 2,24,25
 123 120 123 120 122.5 151 c 128,-1,26
 122 182 122 182 123 215 c 0,27,28
 124 240 124 240 125.5 264 c 128,-1,29
 127 288 127 288 127 312 c 0,30,31
 127 324 127 324 125.5 341.5 c 128,-1,32
 124 359 124 359 116 370 c 0,33,34
 111 376 111 376 101.5 380 c 128,-1,35
 92 384 92 384 83.5 387.5 c 128,-1,36
 75 391 75 391 68 394.5 c 128,-1,37
 61 398 61 398 61 403 c 256,38,39
 61 408 61 408 67.5 412.5 c 128,-1,40
 74 417 74 417 82.5 420.5 c 128,-1,41
 91 424 91 424 99.5 426.5 c 128,-1,42
 108 429 108 429 112 430 c 0,43,44
 119 432 119 432 132 439 c 128,-1,45
 145 446 145 446 159 454 c 128,-1,46
 173 462 173 462 184.5 468 c 128,-1,47
 196 474 196 474 200 474 c 0,48,49
 206 474 206 474 206 469 c 0,50,51
 206 454 206 454 205.5 439 c 128,-1,52
 205 424 205 424 204 409 c 0,53,54
 203 378 203 378 202.5 346.5 c 128,-1,55
 202 315 202 315 202 285 c 0,56,57
 202 247 202 247 202.5 209.5 c 128,-1,58
 203 172 203 172 204 134 c 0,59,60
 204 117 204 117 203.5 99 c 128,-1,61
 203 81 203 81 205 63 c 0,62,63
 207 41 207 41 218.5 34.5 c 128,-1,64
 230 28 230 28 244 25.5 c 128,-1,65
 258 23 258 23 269.5 20 c 128,-1,66
 281 17 281 17 281 5 c 0,0,1
EndSplineSet
Validated: 33
EndChar

StartChar: fraction
Encoding: 25 25 11
Width: 271
Flags: W
LayerCount: 2
Fore
SplineSet
425 662 m 1,0,1
 396 619 396 619 364.5 578.5 c 128,-1,2
 333 538 333 538 300 497 c 0,3,4
 204 374 204 374 108.5 254 c 128,-1,5
 13 134 13 134 -77 7 c 1,6,7
 -82 9 -82 9 -95.5 18.5 c 128,-1,8
 -109 28 -109 28 -132 36 c 1,9,10
 -8 202 -8 202 119 361.5 c 128,-1,11
 246 521 246 521 369 690 c 1,12,13
 380 690 380 690 397 679 c 128,-1,14
 414 668 414 668 425 662 c 1,0,1
EndSplineSet
Validated: 1
EndChar

StartChar: fi
Encoding: 26 26 12
Width: 624
Flags: W
LayerCount: 2
Fore
SplineSet
585 5 m 0,0,1
 585 -6 585 -6 574 -7 c 128,-1,2
 563 -8 563 -8 556 -8 c 0,3,4
 538 -8 538 -8 520 -5.5 c 128,-1,5
 502 -3 502 -3 484 -3 c 0,6,7
 457 -3 457 -3 429.5 -5.5 c 128,-1,8
 402 -8 402 -8 376 -8 c 2,9,-1
 365 -8 l 2,10,11
 357 -8 357 -8 349.5 -6 c 128,-1,12
 342 -4 342 -4 342 7 c 0,13,14
 342 10 342 10 344 12 c 128,-1,15
 346 14 346 14 348 16 c 0,16,17
 357 23 357 23 369 25 c 128,-1,18
 381 27 381 27 392 28.5 c 128,-1,19
 403 30 403 30 412 35.5 c 128,-1,20
 421 41 421 41 424 57 c 0,21,22
 426 67 426 67 426 72 c 2,23,-1
 426 87 l 2,24,25
 427 120 427 120 426.5 151 c 128,-1,26
 426 182 426 182 427 215 c 0,27,28
 428 240 428 240 429.5 264 c 128,-1,29
 431 288 431 288 431 312 c 0,30,31
 431 328 431 328 428.5 344.5 c 128,-1,32
 426 361 426 361 419 374.5 c 128,-1,33
 412 388 412 388 399 397 c 128,-1,34
 386 406 386 406 366 407 c 2,35,-1
 259 407 l 2,36,37
 234 407 234 407 216 406.5 c 128,-1,38
 198 406 198 406 190 406 c 1,39,40
 183 399 183 399 183.5 383.5 c 128,-1,41
 184 368 184 368 184 358 c 0,42,43
 184 287 184 287 183.5 220 c 128,-1,44
 183 153 183 153 183 82 c 0,45,46
 183 59 183 59 190.5 48 c 128,-1,47
 198 37 198 37 209 31.5 c 128,-1,48
 220 26 220 26 235.5 24.5 c 128,-1,49
 251 23 251 23 268 19 c 0,50,51
 272 15 272 15 272 8 c 256,52,53
 272 1 272 1 267 -1 c 1,54,-1
 266 -4 l 1,55,56
 259 -8 259 -8 247 -8 c 0,57,58
 228 -8 228 -8 208 -5 c 128,-1,59
 188 -2 188 -2 169 -2 c 0,60,61
 139 -2 139 -2 109.5 -5 c 128,-1,62
 80 -8 80 -8 50 -8 c 0,63,64
 45 -8 45 -8 34.5 -7 c 128,-1,65
 24 -6 24 -6 24 2 c 0,66,67
 24 16 24 16 36 19.5 c 128,-1,68
 48 23 48 23 63.5 26.5 c 128,-1,69
 79 30 79 30 91 40.5 c 128,-1,70
 103 51 103 51 103 81 c 2,71,-1
 103 375 l 2,72,73
 103 388 103 388 100 402 c 1,74,75
 75 405 75 405 52 406 c 0,76,77
 44 406 44 406 34 408 c 128,-1,78
 24 410 24 410 24 421 c 0,79,80
 24 425 24 425 24.5 430.5 c 128,-1,81
 25 436 25 436 27 440 c 0,82,83
 30 445 30 445 39.5 447.5 c 128,-1,84
 49 450 49 450 61 451.5 c 128,-1,85
 73 453 73 453 84.5 454 c 128,-1,86
 96 455 96 455 102 458 c 1,87,88
 105 498 105 498 106.5 539.5 c 128,-1,89
 108 581 108 581 118 620 c 0,90,91
 127 659 127 659 145.5 694 c 128,-1,92
 164 729 164 729 191 755.5 c 128,-1,93
 218 782 218 782 253.5 797.5 c 128,-1,94
 289 813 289 813 331 812 c 0,95,96
 353 812 353 812 374.5 809 c 128,-1,97
 396 806 396 806 413.5 797 c 128,-1,98
 431 788 431 788 442.5 774 c 128,-1,99
 454 760 454 760 455 738 c 0,100,101
 458 726 458 726 451 714.5 c 128,-1,102
 444 703 444 703 433 696.5 c 128,-1,103
 422 690 422 690 409 689 c 128,-1,104
 396 688 396 688 388 695 c 0,105,106
 382 699 382 699 378.5 710.5 c 128,-1,107
 375 722 375 722 365 732.5 c 128,-1,108
 355 743 355 743 334.5 752 c 128,-1,109
 314 761 314 761 274 761 c 0,110,111
 252 761 252 761 237 747.5 c 128,-1,112
 222 734 222 734 212 713 c 128,-1,113
 202 692 202 692 195.5 665.5 c 128,-1,114
 189 639 189 639 186 612 c 128,-1,115
 183 585 183 585 182 560.5 c 128,-1,116
 181 536 181 536 181 518 c 2,117,-1
 181 504 l 2,118,119
 181 492 181 492 181.5 475 c 128,-1,120
 182 458 182 458 187 453 c 1,121,-1
 422 453 l 2,122,123
 438 453 438 453 451.5 457.5 c 128,-1,124
 465 462 465 462 475.5 467 c 128,-1,125
 486 472 486 472 493.5 474.5 c 128,-1,126
 501 477 501 477 504 474 c 0,127,128
 506 472 506 472 508 471.5 c 128,-1,129
 510 471 510 471 510 469 c 0,130,131
 510 454 510 454 509.5 439 c 128,-1,132
 509 424 509 424 508 409 c 0,133,134
 507 378 507 378 506.5 346.5 c 128,-1,135
 506 315 506 315 506 285 c 0,136,137
 506 247 506 247 506.5 209.5 c 128,-1,138
 507 172 507 172 508 134 c 0,139,140
 508 117 508 117 507.5 99 c 128,-1,141
 507 81 507 81 509 63 c 0,142,143
 511 41 511 41 523 34.5 c 128,-1,144
 535 28 535 28 548.5 25.5 c 128,-1,145
 562 23 562 23 573.5 20 c 128,-1,146
 585 17 585 17 585 5 c 0,0,1
EndSplineSet
Validated: 33
EndChar

StartChar: fl
Encoding: 27 27 13
Width: 630
Flags: W
LayerCount: 2
Fore
SplineSet
590 8 m 0,0,1
 590 -3 590 -3 580 -6 c 0,2,3
 579 -7 579 -7 574 -7 c 2,4,-1
 570 -7 l 2,5,6
 546 -7 546 -7 522.5 -4.5 c 128,-1,7
 499 -2 499 -2 475 -2 c 0,8,9
 445 -2 445 -2 416.5 -5 c 128,-1,10
 388 -8 388 -8 358 -8 c 0,11,12
 353 -8 353 -8 343 -6.5 c 128,-1,13
 333 -5 333 -5 333 3 c 0,14,15
 333 16 333 16 339 17.5 c 128,-1,16
 345 19 345 19 358 24 c 0,17,18
 375 29 375 29 391 35.5 c 128,-1,19
 407 42 407 42 414 60 c 0,20,21
 417 68 417 68 418 80.5 c 128,-1,22
 419 93 419 93 419 102 c 0,23,24
 419 240 419 240 419.5 374 c 128,-1,25
 420 508 420 508 420 646 c 0,26,27
 420 684 420 684 407.5 709.5 c 128,-1,28
 395 735 395 735 374.5 749 c 128,-1,29
 354 763 354 763 328 765.5 c 128,-1,30
 302 768 302 768 274 761 c 0,31,32
 241 753 241 753 223 723.5 c 128,-1,33
 205 694 205 694 195.5 657.5 c 128,-1,34
 186 621 186 621 183.5 582.5 c 128,-1,35
 181 544 181 544 181 518 c 2,36,-1
 181 504 l 2,37,38
 181 492 181 492 181.5 475 c 128,-1,39
 182 458 182 458 187 453 c 1,40,-1
 302 453 l 2,41,42
 315 453 315 453 322 446 c 0,43,44
 322 441 322 441 322.5 437 c 128,-1,45
 323 433 323 433 323 428 c 0,46,47
 323 417 323 417 317 409 c 0,48,49
 312 408 312 408 306 407.5 c 128,-1,50
 300 407 300 407 294 407 c 2,51,-1
 230 407 l 2,52,53
 220 407 220 407 210 407 c 0,54,55
 201 407 201 407 190 406 c 1,56,57
 183 399 183 399 183.5 383.5 c 128,-1,58
 184 368 184 368 184 358 c 0,59,60
 184 287 184 287 183.5 220 c 128,-1,61
 183 153 183 153 183 82 c 0,62,63
 183 59 183 59 190.5 48 c 128,-1,64
 198 37 198 37 209 31.5 c 128,-1,65
 220 26 220 26 235.5 24.5 c 128,-1,66
 251 23 251 23 268 19 c 0,67,68
 272 15 272 15 272 8 c 256,69,70
 272 1 272 1 267 -1 c 1,71,-1
 266 -4 l 1,72,73
 259 -8 259 -8 247 -8 c 0,74,75
 228 -8 228 -8 208 -5 c 128,-1,76
 188 -2 188 -2 169 -2 c 0,77,78
 139 -2 139 -2 109.5 -5 c 128,-1,79
 80 -8 80 -8 50 -8 c 0,80,81
 45 -8 45 -8 34.5 -7 c 128,-1,82
 24 -6 24 -6 24 2 c 0,83,84
 24 16 24 16 36 19.5 c 128,-1,85
 48 23 48 23 63.5 26.5 c 128,-1,86
 79 30 79 30 91 40.5 c 128,-1,87
 103 51 103 51 103 81 c 2,88,-1
 103 375 l 2,89,90
 103 388 103 388 100 402 c 1,91,92
 75 405 75 405 52 406 c 0,93,94
 44 406 44 406 34 408 c 128,-1,95
 24 410 24 410 24 421 c 0,96,97
 24 425 24 425 24.5 430.5 c 128,-1,98
 25 436 25 436 27 440 c 0,99,100
 30 445 30 445 39.5 447.5 c 128,-1,101
 49 450 49 450 61 451.5 c 128,-1,102
 73 453 73 453 84.5 454 c 128,-1,103
 96 455 96 455 102 458 c 1,104,105
 105 498 105 498 106.5 539.5 c 128,-1,106
 108 581 108 581 118 620 c 0,107,108
 127 659 127 659 145.5 694 c 128,-1,109
 164 729 164 729 191 755.5 c 128,-1,110
 218 782 218 782 253.5 797.5 c 128,-1,111
 289 813 289 813 331 812 c 0,112,113
 362 811 362 811 386.5 804.5 c 128,-1,114
 411 798 411 798 428 778 c 1,115,116
 451 786 451 786 469.5 793 c 128,-1,117
 488 800 488 800 495 802 c 1,118,119
 501 798 501 798 501 798 c 1,120,121
 501 784 501 784 501.5 770.5 c 128,-1,122
 502 757 502 757 502 742 c 0,123,124
 502 574 502 574 501.5 410.5 c 128,-1,125
 501 247 501 247 501 79 c 0,126,127
 501 45 501 45 519 36.5 c 128,-1,128
 537 28 537 28 564 25 c 0,129,130
 566 23 566 23 568.5 23.5 c 128,-1,131
 571 24 571 24 573 24 c 0,132,133
 590 23 590 23 590 8 c 0,0,1
EndSplineSet
Validated: 33
EndChar

StartChar: Lslash
Encoding: 28 28 14
Width: 642
Flags: W
LayerCount: 2
Fore
SplineSet
41 311 m 0,0,1
 40 314 40 314 46 319 c 128,-1,2
 52 324 52 324 61 328.5 c 128,-1,3
 70 333 70 333 79.5 337.5 c 128,-1,4
 89 342 89 342 94 345 c 0,5,6
 108 351 108 351 123 360 c 128,-1,7
 138 369 138 369 153 377 c 1,8,-1
 153 614 l 2,9,10
 153 640 153 640 148 660 c 0,11,12
 144 683 144 683 126.5 690.5 c 128,-1,13
 109 698 109 698 89 700.5 c 128,-1,14
 69 703 69 703 53 706 c 128,-1,15
 37 709 37 709 37 723 c 256,16,17
 37 737 37 737 48.5 739 c 128,-1,18
 60 741 60 741 72 741 c 0,19,20
 108 741 108 741 142 737.5 c 128,-1,21
 176 734 176 734 212 734 c 0,22,23
 250 734 250 734 284 736 c 128,-1,24
 318 738 318 738 361 738 c 1,25,26
 370 730 370 730 371 722 c 0,27,28
 371 710 371 710 359 706 c 128,-1,29
 347 702 347 702 330.5 700.5 c 128,-1,30
 314 699 314 699 298 697.5 c 128,-1,31
 282 696 282 696 271 688 c 0,32,33
 264 682 264 682 260.5 672 c 128,-1,34
 257 662 257 662 255.5 650.5 c 128,-1,35
 254 639 254 639 253.5 627.5 c 128,-1,36
 253 616 253 616 253 608 c 0,37,38
 253 562 253 562 252.5 517 c 128,-1,39
 252 472 252 472 252 426 c 1,40,41
 282 440 282 440 310 454.5 c 128,-1,42
 338 469 338 469 357 478 c 0,43,44
 362 480 362 480 370 463.5 c 128,-1,45
 378 447 378 447 388 427 c 0,46,47
 389 424 389 424 385 420.5 c 128,-1,48
 381 417 381 417 375 413 c 128,-1,49
 369 409 369 409 361.5 405.5 c 128,-1,50
 354 402 354 402 348 399 c 2,51,-1
 251 349 l 1,52,-1
 251 204 l 2,53,54
 251 186 251 186 251.5 163.5 c 128,-1,55
 252 141 252 141 254 121 c 128,-1,56
 256 101 256 101 260 85.5 c 128,-1,57
 264 70 264 70 271 63 c 0,58,59
 297 44 297 44 330.5 40 c 128,-1,60
 364 36 364 36 395.5 40.5 c 128,-1,61
 427 45 427 45 452.5 54 c 128,-1,62
 478 63 478 63 487 70 c 0,63,64
 503 79 503 79 521.5 102 c 128,-1,65
 540 125 540 125 555 150 c 128,-1,66
 570 175 570 175 581.5 195 c 128,-1,67
 593 215 593 215 596 218 c 0,68,69
 605 225 605 225 616.5 222.5 c 128,-1,70
 628 220 628 220 632 211 c 1,71,72
 606 170 606 170 592 129.5 c 128,-1,73
 578 89 578 89 569.5 57 c 128,-1,74
 561 25 561 25 555.5 5 c 128,-1,75
 550 -15 550 -15 543 -15 c 0,76,77
 475 -15 475 -15 403.5 -6 c 128,-1,78
 332 3 332 3 264 3 c 0,79,80
 230 3 230 3 205 1 c 128,-1,81
 180 -1 180 -1 157 -3 c 128,-1,82
 134 -5 134 -5 109 -7 c 128,-1,83
 84 -9 84 -9 50 -9 c 0,84,85
 44 -9 44 -9 40 -4 c 128,-1,86
 36 1 36 1 36 7 c 0,87,88
 36 21 36 21 46 25 c 128,-1,89
 56 29 56 29 71.5 30 c 128,-1,90
 87 31 87 31 104.5 33.5 c 128,-1,91
 122 36 122 36 136 49 c 0,92,93
 148 61 148 61 152.5 90 c 128,-1,94
 157 119 157 119 157.5 155 c 128,-1,95
 158 191 158 191 156 229.5 c 128,-1,96
 154 268 154 268 153 299 c 1,97,-1
 113 279 l 2,98,99
 109 277 109 277 100.5 273 c 128,-1,100
 92 269 92 269 84.5 266 c 128,-1,101
 77 263 77 263 71 261.5 c 128,-1,102
 65 260 65 260 65 262 c 0,103,104
 61 267 61 267 56.5 276.5 c 128,-1,105
 52 286 52 286 41 311 c 0,0,1
EndSplineSet
Validated: 33
EndChar

StartChar: lslash
Encoding: 29 29 15
Width: 324
Flags: W
LayerCount: 2
Fore
SplineSet
291 7 m 0,0,1
 291 -4 291 -4 281 -7 c 0,2,3
 280 -8 280 -8 275 -8 c 2,4,-1
 271 -8 l 2,5,6
 247 -8 247 -8 223.5 -5.5 c 128,-1,7
 200 -3 200 -3 176 -3 c 0,8,9
 146 -3 146 -3 117.5 -6 c 128,-1,10
 89 -9 89 -9 59 -9 c 0,11,12
 54 -9 54 -9 44 -7.5 c 128,-1,13
 34 -6 34 -6 34 2 c 0,14,15
 34 15 34 15 40 16.5 c 128,-1,16
 46 18 46 18 59 23 c 0,17,18
 76 28 76 28 92 34.5 c 128,-1,19
 108 41 108 41 115 59 c 0,20,21
 118 67 118 67 119 79.5 c 128,-1,22
 120 92 120 92 120 101 c 2,23,-1
 120 336 l 1,24,-1
 71 310 l 2,25,26
 67 308 67 308 58.5 304.5 c 128,-1,27
 50 301 50 301 42.5 298 c 128,-1,28
 35 295 35 295 29 293.5 c 128,-1,29
 23 292 23 292 23 294 c 0,30,31
 19 299 19 299 14.5 308.5 c 128,-1,32
 10 318 10 318 -1 343 c 0,33,34
 -2 346 -2 346 4 350.5 c 128,-1,35
 10 355 10 355 19 360 c 128,-1,36
 28 365 28 365 37.5 369.5 c 128,-1,37
 47 374 47 374 52 377 c 0,38,39
 60 380 60 380 72.5 387 c 128,-1,40
 85 394 85 394 121 412 c 1,41,-1
 121 472 l 2,42,43
 121 501 121 501 121.5 528.5 c 128,-1,44
 122 556 122 556 122 584 c 2,45,-1
 122 645 l 2,46,47
 122 660 122 660 120.5 678 c 128,-1,48
 119 696 119 696 108 709 c 0,49,50
 104 713 104 713 96 717 c 128,-1,51
 88 721 88 721 80.5 725 c 128,-1,52
 73 729 73 729 66.5 733 c 128,-1,53
 60 737 60 737 60 742 c 0,54,55
 60 744 60 744 60 746 c 0,56,57
 60 749 60 749 62 750 c 0,58,59
 71 750 71 750 93.5 756.5 c 128,-1,60
 116 763 116 763 139 771.5 c 128,-1,61
 162 780 162 780 179 788.5 c 128,-1,62
 196 797 196 797 196 801 c 1,63,64
 202 797 202 797 202 797 c 1,65,66
 202 783 202 783 202.5 769.5 c 128,-1,67
 203 756 203 756 203 741 c 2,68,-1
 203 666 l 2,69,70
 203 631 203 631 202.5 597 c 128,-1,71
 202 563 202 563 202 527 c 2,72,-1
 202 453 l 1,73,74
 214 459 214 459 223.5 464 c 128,-1,75
 233 469 233 469 243.5 474.5 c 128,-1,76
 254 480 254 480 267 487 c 128,-1,77
 280 494 280 494 297 503 c 0,78,79
 302 505 302 505 309.5 488.5 c 128,-1,80
 317 472 317 472 328 452 c 0,81,82
 329 449 329 449 325 445 c 128,-1,83
 321 441 321 441 314.5 437 c 128,-1,84
 308 433 308 433 301 430 c 128,-1,85
 294 427 294 427 288 424 c 2,86,-1
 202 378 l 1,87,-1
 202 78 l 2,88,89
 202 44 202 44 220 35.5 c 128,-1,90
 238 27 238 27 265 24 c 0,91,92
 267 22 267 22 269.5 22.5 c 128,-1,93
 272 23 272 23 274 23 c 0,94,95
 291 22 291 22 291 7 c 0,0,1
EndSplineSet
Validated: 1
EndChar

StartChar: Zcaron
Encoding: 30 30 16
Width: 775
Flags: W
LayerCount: 2
Fore
SplineSet
515 964 m 0,0,1
 521 964 521 964 521 956 c 0,2,3
 521 953 521 953 514.5 939 c 128,-1,4
 508 925 508 925 497 905.5 c 128,-1,5
 486 886 486 886 473.5 863.5 c 128,-1,6
 461 841 461 841 449 821.5 c 128,-1,7
 437 802 437 802 427.5 787.5 c 128,-1,8
 418 773 418 773 414 770 c 1,9,10
 405 775 405 775 403 778 c 0,11,12
 373 827 373 827 346 870.5 c 128,-1,13
 319 914 319 914 305 952 c 0,14,15
 303 958 303 958 303 961 c 0,16,17
 303 969 303 969 312 968 c 0,18,19
 317 967 317 967 329.5 952 c 128,-1,20
 342 937 342 937 357 917.5 c 128,-1,21
 372 898 372 898 387 880 c 128,-1,22
 402 862 402 862 414 855 c 1,23,24
 425 862 425 862 439 880 c 128,-1,25
 453 898 453 898 466 916.5 c 128,-1,26
 479 935 479 935 492 949.5 c 128,-1,27
 505 964 505 964 515 964 c 0,0,1
92 750 m 0,28,29
 103 750 103 750 108.5 749 c 128,-1,30
 114 748 114 748 118 746 c 128,-1,31
 122 744 122 744 127.5 742 c 128,-1,32
 133 740 133 740 144 739 c 1,33,34
 153 733 153 733 171.5 731 c 128,-1,35
 190 729 190 729 207 729 c 2,36,-1
 226 729 l 2,37,38
 272 729 272 729 328.5 730 c 128,-1,39
 385 731 385 731 444 731.5 c 128,-1,40
 503 732 503 732 559.5 733 c 128,-1,41
 616 734 616 734 663 734 c 0,42,43
 673 734 673 734 688 736.5 c 128,-1,44
 703 739 703 739 716 740 c 128,-1,45
 729 741 729 741 737.5 737 c 128,-1,46
 746 733 746 733 743 721 c 0,47,48
 743 720 743 720 726 699 c 128,-1,49
 709 678 709 678 679.5 644 c 128,-1,50
 650 610 650 610 612.5 566.5 c 128,-1,51
 575 523 575 523 536 477 c 128,-1,52
 497 431 497 431 457.5 385.5 c 128,-1,53
 418 340 418 340 385.5 301.5 c 128,-1,54
 353 263 353 263 330 236 c 128,-1,55
 307 209 307 209 300 200 c 0,56,57
 292 189 292 189 275 168.5 c 128,-1,58
 258 148 258 148 240 126 c 128,-1,59
 222 104 222 104 208.5 84.5 c 128,-1,60
 195 65 195 65 193 52 c 0,61,62
 193 44 193 44 199.5 40 c 128,-1,63
 206 36 206 36 215 35 c 128,-1,64
 224 34 224 34 234.5 34.5 c 128,-1,65
 245 35 245 35 253 35 c 0,66,67
 299 35 299 35 353 35.5 c 128,-1,68
 407 36 407 36 453 36 c 0,69,70
 489 36 489 36 530.5 37.5 c 128,-1,71
 572 39 572 39 608 49 c 0,72,73
 634 59 634 59 648 77 c 128,-1,74
 662 95 662 95 676 119 c 0,75,76
 682 130 682 130 686 144 c 128,-1,77
 690 158 690 158 695.5 168 c 128,-1,78
 701 178 701 178 709 180.5 c 128,-1,79
 717 183 717 183 729 173 c 1,80,81
 732 156 732 156 732 140 c 0,82,83
 732 123 732 123 727.5 105 c 128,-1,84
 723 87 723 87 720 70 c 0,85,86
 718 58 718 58 716.5 44 c 128,-1,87
 715 30 715 30 711 18 c 128,-1,88
 707 6 707 6 698.5 -1 c 128,-1,89
 690 -8 690 -8 674 -8 c 0,90,91
 635 -8 635 -8 596 -6 c 128,-1,92
 557 -4 557 -4 518 -4 c 2,93,-1
 429 -4 l 2,94,95
 336 -4 336 -4 235 -7.5 c 128,-1,96
 134 -11 134 -11 41 -11 c 0,97,98
 25 -11 25 -11 25 4 c 0,99,100
 25 6 25 6 41.5 27 c 128,-1,101
 58 48 58 48 85.5 82.5 c 128,-1,102
 113 117 113 117 148.5 160.5 c 128,-1,103
 184 204 184 204 222 250 c 128,-1,104
 260 296 260 296 297.5 341.5 c 128,-1,105
 335 387 335 387 366 424.5 c 128,-1,106
 397 462 397 462 419 489 c 128,-1,107
 441 516 441 516 449 525 c 256,108,109
 456 534 456 534 475.5 556 c 128,-1,110
 495 578 495 578 515.5 601 c 128,-1,111
 536 624 536 624 553 644.5 c 128,-1,112
 570 665 570 665 573 672 c 0,113,114
 575 674 575 674 578.5 679.5 c 128,-1,115
 582 685 582 685 583 688 c 0,116,117
 584 692 584 692 576 693.5 c 128,-1,118
 568 695 568 695 557 695 c 0,119,120
 547 695 547 695 536.5 694.5 c 128,-1,121
 526 694 526 694 523 694 c 2,122,-1
 452 694 l 2,123,124
 422 694 422 694 390 693.5 c 128,-1,125
 358 693 358 693 327 692.5 c 128,-1,126
 296 692 296 692 267 691.5 c 128,-1,127
 238 691 238 691 215 690 c 0,128,129
 182 688 182 688 155.5 680 c 128,-1,130
 129 672 129 672 105 646 c 0,131,132
 97 638 97 638 90 625.5 c 128,-1,133
 83 613 83 613 76.5 601 c 128,-1,134
 70 589 70 589 62.5 580 c 128,-1,135
 55 571 55 571 49 571 c 0,136,137
 44 571 44 571 34.5 574 c 128,-1,138
 25 577 25 577 28 585 c 0,139,140
 34 612 34 612 42 638.5 c 128,-1,141
 50 665 50 665 58 691 c 0,142,143
 66 714 66 714 72 732 c 128,-1,144
 78 750 78 750 92 750 c 0,28,29
EndSplineSet
Validated: 1
EndChar

StartChar: zcaron
Encoding: 31 31 17
Width: 476
Flags: W
LayerCount: 2
Fore
SplineSet
342 706 m 0,0,1
 348 706 348 706 348 698 c 0,2,3
 348 695 348 695 341.5 681 c 128,-1,4
 335 667 335 667 324 647.5 c 128,-1,5
 313 628 313 628 300.5 605.5 c 128,-1,6
 288 583 288 583 276 563.5 c 128,-1,7
 264 544 264 544 254.5 529.5 c 128,-1,8
 245 515 245 515 241 512 c 1,9,10
 232 517 232 517 230 520 c 0,11,12
 200 569 200 569 173 612.5 c 128,-1,13
 146 656 146 656 132 694 c 0,14,15
 130 700 130 700 130 702 c 0,16,17
 130 710 130 710 139 710 c 0,18,19
 144 709 144 709 156.5 694 c 128,-1,20
 169 679 169 679 184 659.5 c 128,-1,21
 199 640 199 640 214 622 c 128,-1,22
 229 604 229 604 241 597 c 1,23,24
 252 604 252 604 266 622 c 128,-1,25
 280 640 280 640 293 658.5 c 128,-1,26
 306 677 306 677 319 691.5 c 128,-1,27
 332 706 332 706 342 706 c 0,0,1
431 88 m 2,28,29
 431 76 431 76 430.5 61.5 c 128,-1,30
 430 47 430 47 428.5 34.5 c 128,-1,31
 427 22 427 22 425 12 c 128,-1,32
 423 2 423 2 420 0 c 0,33,34
 416 -7 416 -7 409 -3.5 c 128,-1,35
 402 0 402 0 395 0 c 0,36,37
 318 0 318 0 246.5 -1 c 128,-1,38
 175 -2 175 -2 98 -2 c 2,39,-1
 84 -2 l 2,40,41
 76 -2 76 -2 66.5 -1.5 c 128,-1,42
 57 -1 57 -1 49 0 c 128,-1,43
 41 1 41 1 35.5 3.5 c 128,-1,44
 30 6 30 6 30 9 c 0,45,46
 30 14 30 14 32 17 c 128,-1,47
 34 20 34 20 36 25 c 0,48,49
 44 37 44 37 54.5 48 c 128,-1,50
 65 59 65 59 74 71 c 0,51,52
 120 129 120 129 162.5 188 c 128,-1,53
 205 247 205 247 248 306 c 0,54,55
 254 315 254 315 266.5 331 c 128,-1,56
 279 347 279 347 291 364 c 128,-1,57
 303 381 303 381 314 396.5 c 128,-1,58
 325 412 325 412 328 420 c 0,59,60
 329 424 329 424 320.5 425.5 c 128,-1,61
 312 427 312 427 300.5 427.5 c 128,-1,62
 289 428 289 428 277.5 427.5 c 128,-1,63
 266 427 266 427 260 427 c 2,64,-1
 228 427 l 2,65,66
 201 427 201 427 172 426.5 c 128,-1,67
 143 426 143 426 123 421 c 0,68,69
 106 418 106 418 96 408.5 c 128,-1,70
 86 399 86 399 78.5 389 c 128,-1,71
 71 379 71 379 63.5 371.5 c 128,-1,72
 56 364 56 364 44 364 c 0,73,74
 39 364 39 364 34 365.5 c 128,-1,75
 29 367 29 367 31 374 c 0,76,77
 34 384 34 384 35.5 388 c 128,-1,78
 37 392 37 392 38.5 395 c 128,-1,79
 40 398 40 398 41.5 402.5 c 128,-1,80
 43 407 43 407 46 417 c 0,81,82
 48 425 48 425 50.5 434 c 128,-1,83
 53 443 53 443 56 452 c 0,84,85
 58 458 58 458 62.5 463.5 c 128,-1,86
 67 469 67 469 75 469 c 0,87,88
 89 469 89 469 100 464.5 c 128,-1,89
 111 460 111 460 133 460 c 2,90,-1
 293 460 l 2,91,92
 311 460 311 460 330 461 c 128,-1,93
 349 462 349 462 368 462 c 2,94,-1
 383 462 l 2,95,96
 397 462 397 462 414.5 460 c 128,-1,97
 432 458 432 458 437 453 c 0,98,99
 442 446 442 446 438 437 c 0,100,101
 389 369 389 369 341.5 304.5 c 128,-1,102
 294 240 294 240 245 172 c 0,103,104
 223 142 223 142 196 108 c 128,-1,105
 169 74 169 74 155 41 c 0,106,107
 153 36 153 36 162 36 c 2,108,-1
 220 36 l 2,109,110
 242 36 242 36 266.5 36.5 c 128,-1,111
 291 37 291 37 314 39.5 c 128,-1,112
 337 42 337 42 354.5 45.5 c 128,-1,113
 372 49 372 49 379 55 c 256,114,115
 386 61 386 61 390 72 c 128,-1,116
 394 83 394 83 396.5 93.5 c 128,-1,117
 399 104 399 104 401.5 114.5 c 128,-1,118
 404 125 404 125 410 130 c 1,119,-1
 415 130 l 2,120,121
 425 131 425 131 428 126 c 128,-1,122
 431 121 431 121 431 112 c 2,123,-1
 431 88 l 2,28,29
EndSplineSet
Validated: 1
EndChar

StartChar: exclam
Encoding: 33 33 18
Width: 247
Flags: W
LayerCount: 2
Fore
SplineSet
183 46 m 0,0,1
 183 17 183 17 163 1 c 128,-1,2
 143 -15 143 -15 117 -15 c 0,3,4
 92 -15 92 -15 75.5 4.5 c 128,-1,5
 59 24 59 24 59 47 c 0,6,7
 59 74 59 74 77 93 c 128,-1,8
 95 112 95 112 122 112 c 0,9,10
 147 112 147 112 165 91.5 c 128,-1,11
 183 71 183 71 183 46 c 0,0,1
63 717 m 0,12,13
 62 732 62 732 65.5 737 c 128,-1,14
 69 742 69 742 76.5 742.5 c 128,-1,15
 84 743 84 743 96.5 741 c 128,-1,16
 109 739 109 739 127 739 c 0,17,18
 142 739 142 739 154.5 740.5 c 128,-1,19
 167 742 167 742 176 742 c 0,20,21
 187 742 187 742 192.5 737.5 c 128,-1,22
 198 733 198 733 196 717 c 0,23,24
 192 679 192 679 184 616 c 128,-1,25
 176 553 176 553 167.5 482.5 c 128,-1,26
 159 412 159 412 149.5 341.5 c 128,-1,27
 140 271 140 271 132 220 c 0,28,29
 131 215 131 215 123.5 216 c 128,-1,30
 116 217 116 217 112 220 c 0,31,32
 107 275 107 275 99.5 339 c 128,-1,33
 92 403 92 403 84.5 469 c 128,-1,34
 77 535 77 535 71 599 c 128,-1,35
 65 663 65 663 63 717 c 0,12,13
EndSplineSet
Validated: 1
EndChar

StartChar: quotedbl
Encoding: 34 34 19
Width: 304
Flags: W
LayerCount: 2
Fore
SplineSet
221 745 m 2,0,1
 227 745 227 745 234.5 744.5 c 128,-1,2
 242 744 242 744 254 744 c 0,3,4
 262 747 262 747 265.5 739.5 c 128,-1,5
 269 732 269 732 267 727 c 0,6,7
 265 716 265 716 261.5 686.5 c 128,-1,8
 258 657 258 657 254.5 625 c 128,-1,9
 251 593 251 593 247 566 c 128,-1,10
 243 539 243 539 240 532 c 0,11,12
 238 527 238 527 232.5 525 c 128,-1,13
 227 523 227 523 221.5 523.5 c 128,-1,14
 216 524 216 524 211 527.5 c 128,-1,15
 206 531 206 531 205 538 c 0,16,17
 203 551 203 551 199 577.5 c 128,-1,18
 195 604 195 604 191 633 c 128,-1,19
 187 662 187 662 184.5 688 c 128,-1,20
 182 714 182 714 182 728 c 0,21,22
 181 737 181 737 183.5 741 c 128,-1,23
 186 745 186 745 198 745 c 2,24,-1
 221 745 l 2,0,1
77 745 m 2,25,26
 83 745 83 745 90 744.5 c 128,-1,27
 97 744 97 744 110 744 c 0,28,29
 118 747 118 747 121.5 739.5 c 128,-1,30
 125 732 125 732 123 727 c 0,31,32
 121 716 121 716 117.5 686.5 c 128,-1,33
 114 657 114 657 110 625 c 128,-1,34
 106 593 106 593 102 566 c 128,-1,35
 98 539 98 539 95 532 c 0,36,37
 93 527 93 527 88 525 c 128,-1,38
 83 523 83 523 77.5 523.5 c 128,-1,39
 72 524 72 524 66.5 527.5 c 128,-1,40
 61 531 61 531 60 538 c 0,41,42
 58 551 58 551 54 577.5 c 128,-1,43
 50 604 50 604 46.5 633 c 128,-1,44
 43 662 43 662 40.5 688 c 128,-1,45
 38 714 38 714 38 728 c 0,46,47
 37 737 37 737 39.5 741 c 128,-1,48
 42 745 42 745 53 745 c 2,49,-1
 77 745 l 2,25,26
EndSplineSet
Validated: 1
EndChar

StartChar: numbersign
Encoding: 35 35 20
Width: 524
Flags: W
LayerCount: 2
Fore
SplineSet
324 336 m 1,0,1
 302 336 302 336 277.5 335.5 c 128,-1,2
 253 335 253 335 225 335 c 1,3,4
 218 303 218 303 213.5 280 c 128,-1,5
 209 257 209 257 204 238 c 1,6,-1
 303 238 l 1,7,8
 308 263 308 263 313.5 286.5 c 128,-1,9
 319 310 319 310 324 336 c 1,0,1
492 369 m 1,10,11
 492 361 492 361 491 351 c 128,-1,12
 490 341 490 341 485 335 c 1,13,14
 475 336 475 336 464 336 c 0,15,16
 454 336 454 336 440 336 c 2,17,-1
 378 336 l 1,18,19
 371 303 371 303 366 280 c 128,-1,20
 361 257 361 257 356 238 c 1,21,-1
 445 238 l 1,22,23
 458 220 458 220 456 204.5 c 128,-1,24
 454 189 454 189 445 172 c 1,25,26
 422 171 422 171 396.5 170.5 c 128,-1,27
 371 170 371 170 343 170 c 1,28,29
 337 140 337 140 331 103 c 128,-1,30
 325 66 325 66 314 2 c 1,31,32
 309 2 309 2 296.5 1 c 128,-1,33
 284 0 284 0 258 2 c 1,34,35
 267 54 267 54 275 94.5 c 128,-1,36
 283 135 283 135 290 170 c 1,37,-1
 190 170 l 1,38,39
 184 140 184 140 178 103 c 128,-1,40
 172 66 172 66 162 2 c 1,41,42
 157 2 157 2 144 1 c 128,-1,43
 131 0 131 0 105 2 c 1,44,45
 114 54 114 54 122 94.5 c 128,-1,46
 130 135 130 135 137 171 c 1,47,48
 109 171 109 171 85.5 171.5 c 128,-1,49
 62 172 62 172 44 173 c 1,50,51
 44 182 44 182 41.5 189.5 c 128,-1,52
 39 197 39 197 39 206 c 0,53,54
 39 212 39 212 41.5 221 c 128,-1,55
 44 230 44 230 45 237 c 1,56,57
 63 237 63 237 90.5 237.5 c 128,-1,58
 118 238 118 238 151 238 c 1,59,60
 156 263 156 263 161 286 c 128,-1,61
 166 309 166 309 171 335 c 1,62,-1
 90 335 l 1,63,64
 79 352 79 352 78 365 c 128,-1,65
 77 378 77 378 90 400 c 1,66,67
 114 400 114 400 137 399.5 c 128,-1,68
 160 399 160 399 183 399 c 1,69,70
 189 433 189 433 196 473.5 c 128,-1,71
 203 514 203 514 211 564 c 1,72,73
 221 567 221 567 240 567 c 0,74,75
 248 567 248 567 255.5 566.5 c 128,-1,76
 263 566 263 566 268 565 c 1,77,78
 263 522 263 522 255.5 481 c 128,-1,79
 248 440 248 440 239 399 c 1,80,81
 266 399 266 399 289 398.5 c 128,-1,82
 312 398 312 398 336 398 c 1,83,84
 342 433 342 433 348.5 472.5 c 128,-1,85
 355 512 355 512 364 564 c 1,86,87
 374 567 374 567 392 567 c 0,88,89
 400 567 400 567 408 566.5 c 128,-1,90
 416 566 416 566 421 565 c 1,91,92
 416 522 416 522 408 481.5 c 128,-1,93
 400 441 400 441 391 398 c 1,94,-1
 489 398 l 1,95,96
 491 388 491 388 492 383 c 2,97,-1
 492 369 l 1,98,-1
 492 369 l 1,10,11
EndSplineSet
Validated: 37
EndChar

StartChar: dollar
Encoding: 36 36 21
Width: 533
Flags: W
LayerCount: 2
Fore
SplineSet
131 601 m 0,0,1
 131 553 131 553 164 519 c 128,-1,2
 197 485 197 485 243 459 c 1,3,4
 243 536 243 536 243.5 600.5 c 128,-1,5
 244 665 244 665 244 720 c 1,6,7
 197 714 197 714 164 683.5 c 128,-1,8
 131 653 131 653 131 601 c 0,0,1
398 156 m 0,9,10
 397 211 397 211 364 246.5 c 128,-1,11
 331 282 331 282 282 310 c 1,12,-1
 282 17 l 1,13,14
 334 25 334 25 366.5 61.5 c 128,-1,15
 399 98 399 98 398 156 c 0,9,10
261 819 m 1,16,17
 266 819 266 819 272.5 818.5 c 128,-1,18
 279 818 279 818 283 814 c 1,19,20
 282 808 282 808 282 801 c 0,21,22
 282 795 282 795 282 787 c 256,23,24
 282 780 282 780 282 772 c 0,25,26
 282 765 282 765 281 757 c 1,27,28
 301 755 301 755 325 744.5 c 128,-1,29
 349 734 349 734 367 724 c 0,30,31
 378 718 378 718 383.5 723.5 c 128,-1,32
 389 729 389 729 394 739.5 c 128,-1,33
 399 750 399 750 407 759 c 128,-1,34
 415 768 415 768 430 768 c 0,35,36
 437 768 437 768 439 758 c 128,-1,37
 441 748 441 748 441 733 c 256,38,39
 441 719 441 719 439.5 703.5 c 128,-1,40
 438 688 438 688 438 677 c 0,41,42
 439 624 439 624 435 570 c 0,43,44
 433 561 433 561 430 558 c 128,-1,45
 427 555 427 555 423 555 c 256,46,47
 419 555 419 555 415 556 c 128,-1,48
 411 557 411 557 408 557 c 0,49,50
 402 557 402 557 397.5 566 c 128,-1,51
 393 575 393 575 390 588 c 128,-1,52
 387 601 387 601 384 615 c 128,-1,53
 381 629 381 629 375 639 c 0,54,55
 361 673 361 673 335 693.5 c 128,-1,56
 309 714 309 714 281 719 c 1,57,-1
 281 438 l 1,58,59
 311 423 311 423 341 408 c 128,-1,60
 371 393 371 393 395 378 c 0,61,62
 438 349 438 349 462 303 c 128,-1,63
 486 257 486 257 487 205 c 0,64,65
 487 103 487 103 430.5 46 c 128,-1,66
 374 -11 374 -11 282 -22 c 1,67,68
 281 -32 281 -32 281 -40 c 0,69,70
 281 -49 281 -49 281 -57 c 256,71,72
 281 -65 281 -65 281 -73 c 0,73,74
 281 -81 281 -81 280 -88 c 1,75,-1
 259 -88 l 2,76,77
 247 -88 247 -88 244 -87 c 0,78,79
 243 -81 243 -81 243 -74 c 256,80,81
 243 -67 243 -67 243 -58 c 2,82,-1
 243 -25 l 1,83,84
 224 -25 224 -25 206.5 -19.5 c 128,-1,85
 189 -14 189 -14 175 -8.5 c 128,-1,86
 161 -3 161 -3 148 2 c 128,-1,87
 135 7 135 7 125 7 c 0,88,89
 113 7 113 7 107 0.5 c 128,-1,90
 101 -6 101 -6 96 -15 c 128,-1,91
 91 -24 91 -24 84 -30.5 c 128,-1,92
 77 -37 77 -37 61 -37 c 0,93,94
 54 -37 54 -37 52 -24 c 128,-1,95
 50 -11 50 -11 50 6 c 256,96,97
 50 23 50 23 51.5 41.5 c 128,-1,98
 53 60 53 60 53 72 c 0,99,100
 53 99 53 99 53.5 120 c 128,-1,101
 54 141 54 141 56 168 c 0,102,103
 57 177 57 177 61 180 c 128,-1,104
 65 183 65 183 69 183 c 256,105,106
 73 183 73 183 76.5 182 c 128,-1,107
 80 181 80 181 83 181 c 0,108,109
 90 181 90 181 94 172.5 c 128,-1,110
 98 164 98 164 101 151 c 128,-1,111
 104 138 104 138 108 124 c 128,-1,112
 112 110 112 110 117 99 c 0,113,114
 133 61 133 61 168.5 39.5 c 128,-1,115
 204 18 204 18 243 15 c 1,116,-1
 243 332 l 1,117,118
 207 351 207 351 172 371 c 128,-1,119
 137 391 137 391 109.5 416 c 128,-1,120
 82 441 82 441 64.5 474 c 128,-1,121
 47 507 47 507 47 552 c 256,122,123
 47 597 47 597 62 633.5 c 128,-1,124
 77 670 77 670 103.5 696 c 128,-1,125
 130 722 130 722 166 737.5 c 128,-1,126
 202 753 202 753 244 757 c 1,127,-1
 244 817 l 1,128,129
 250 819 250 819 252 819 c 2,130,-1
 261 819 l 1,131,-1
 261 819 l 1,16,17
EndSplineSet
Validated: 37
EndChar

StartChar: percent
Encoding: 37 37 22
Width: 798
Flags: W
LayerCount: 2
Fore
SplineSet
677 148 m 0,0,1
 677 198 677 198 650 228 c 128,-1,2
 623 258 623 258 584 258 c 0,3,4
 552 258 552 258 525 230 c 128,-1,5
 498 202 498 202 497 156 c 0,6,7
 495 104 495 104 521.5 77.5 c 128,-1,8
 548 51 548 51 586 51 c 0,9,10
 620 51 620 51 648 75.5 c 128,-1,11
 676 100 676 100 677 148 c 0,0,1
301 563 m 0,12,13
 301 613 301 613 274 643 c 128,-1,14
 247 673 247 673 208 673 c 0,15,16
 176 673 176 673 149 644.5 c 128,-1,17
 122 616 122 616 121 570 c 0,18,19
 119 518 119 518 145.5 492 c 128,-1,20
 172 466 172 466 210 466 c 0,21,22
 244 466 244 466 272 490.5 c 128,-1,23
 300 515 300 515 301 563 c 0,12,13
671 662 m 1,24,25
 642 619 642 619 610.5 578.5 c 128,-1,26
 579 538 579 538 546 497 c 0,27,28
 450 374 450 374 354.5 254 c 128,-1,29
 259 134 259 134 169 7 c 1,30,31
 164 9 164 9 150.5 18.5 c 128,-1,32
 137 28 137 28 114 36 c 1,33,34
 238 202 238 202 365 361.5 c 128,-1,35
 492 521 492 521 614 690 c 1,36,37
 625 690 625 690 642.5 679 c 128,-1,38
 660 668 660 668 671 662 c 1,24,25
748 159 m 0,39,40
 748 124 748 124 736 93 c 128,-1,41
 724 62 724 62 702.5 39 c 128,-1,42
 681 16 681 16 651.5 2.5 c 128,-1,43
 622 -11 622 -11 586 -11 c 0,44,45
 549 -11 549 -11 518.5 0 c 128,-1,46
 488 11 488 11 466.5 32.5 c 128,-1,47
 445 54 445 54 433.5 84 c 128,-1,48
 422 114 422 114 422 151 c 0,49,50
 422 186 422 186 433.5 216.5 c 128,-1,51
 445 247 445 247 466.5 270 c 128,-1,52
 488 293 488 293 518 306 c 128,-1,53
 548 319 548 319 584 319 c 0,54,55
 617 319 617 319 646.5 307 c 128,-1,56
 676 295 676 295 698.5 273.5 c 128,-1,57
 721 252 721 252 734.5 222.5 c 128,-1,58
 748 193 748 193 748 159 c 0,39,40
372 573 m 0,59,60
 372 538 372 538 360 507.5 c 128,-1,61
 348 477 348 477 326.5 454 c 128,-1,62
 305 431 305 431 275.5 417 c 128,-1,63
 246 403 246 403 210 403 c 0,64,65
 173 403 173 403 143 414.5 c 128,-1,66
 113 426 113 426 91.5 447.5 c 128,-1,67
 70 469 70 469 58 498.5 c 128,-1,68
 46 528 46 528 46 565 c 0,69,70
 46 600 46 600 58 631 c 128,-1,71
 70 662 70 662 91.5 685 c 128,-1,72
 113 708 113 708 142.5 721 c 128,-1,73
 172 734 172 734 208 734 c 0,74,75
 241 734 241 734 270.5 722 c 128,-1,76
 300 710 300 710 322.5 688.5 c 128,-1,77
 345 667 345 667 358.5 637 c 128,-1,78
 372 607 372 607 372 573 c 0,59,60
EndSplineSet
Validated: 33
EndChar

StartChar: ampersand
Encoding: 38 38 23
Width: 811
Flags: W
LayerCount: 2
Fore
SplineSet
400 548 m 0,0,1
 400 587 400 587 379 613 c 128,-1,2
 358 639 358 639 317 639 c 0,3,4
 281 639 281 639 259 615.5 c 128,-1,5
 237 592 237 592 237 556 c 0,6,7
 237 534 237 534 246 515 c 0,8,9
 250 505 250 505 259.5 492 c 128,-1,10
 269 479 269 479 281.5 467 c 128,-1,11
 294 455 294 455 306.5 444.5 c 128,-1,12
 319 434 319 434 329 429 c 1,13,14
 334 431 334 431 337.5 433.5 c 128,-1,15
 341 436 341 436 345 438 c 0,16,17
 372 456 372 456 386 485.5 c 128,-1,18
 400 515 400 515 400 548 c 0,0,1
269 365 m 1,19,20
 217 345 217 345 183.5 300.5 c 128,-1,21
 150 256 150 256 150 198 c 0,22,23
 150 165 150 165 162 137.5 c 128,-1,24
 174 110 174 110 195.5 89.5 c 128,-1,25
 217 69 217 69 245 57 c 128,-1,26
 273 45 273 45 306 45 c 0,27,28
 355 45 355 45 390 65.5 c 128,-1,29
 425 86 425 86 458 120 c 0,30,31
 465 127 465 127 470.5 135.5 c 128,-1,32
 476 144 476 144 482 153 c 1,33,34
 476 168 476 168 465 180.5 c 128,-1,35
 454 193 454 193 442 207 c 0,36,37
 405 253 405 253 361.5 292.5 c 128,-1,38
 318 332 318 332 269 365 c 1,19,20
310 667 m 0,39,40
 342 667 342 667 370.5 660.5 c 128,-1,41
 399 654 399 654 420.5 640.5 c 128,-1,42
 442 627 442 627 455 604.5 c 128,-1,43
 468 582 468 582 468 549 c 0,44,45
 468 524 468 524 457 503.5 c 128,-1,46
 446 483 446 483 429 466.5 c 128,-1,47
 412 450 412 450 391 436.5 c 128,-1,48
 370 423 370 423 350 414 c 1,49,50
 359 406 359 406 369 399 c 128,-1,51
 379 392 379 392 389 384 c 0,52,53
 408 369 408 369 427.5 349.5 c 128,-1,54
 447 330 447 330 466 309 c 128,-1,55
 485 288 485 288 503.5 267 c 128,-1,56
 522 246 522 246 539 227 c 1,57,58
 543 229 543 229 545.5 233 c 128,-1,59
 548 237 548 237 550 240 c 0,60,61
 560 253 560 253 572.5 267.5 c 128,-1,62
 585 282 585 282 594.5 296 c 128,-1,63
 604 310 604 310 610.5 325.5 c 128,-1,64
 617 341 617 341 617 357 c 0,65,66
 617 376 617 376 612 383 c 128,-1,67
 607 390 607 390 601.5 392 c 128,-1,68
 596 394 596 394 591 396.5 c 128,-1,69
 586 399 586 399 586 412 c 0,70,71
 586 416 586 416 594 418 c 128,-1,72
 602 420 602 420 609 420 c 2,73,-1
 676 420 l 2,74,75
 699 420 699 420 721 422 c 128,-1,76
 743 424 743 424 767 424 c 0,77,78
 773 424 773 424 778 420.5 c 128,-1,79
 783 417 783 417 783 410 c 256,80,81
 783 403 783 403 778 399 c 128,-1,82
 773 395 773 395 766.5 393 c 128,-1,83
 760 391 760 391 751.5 390.5 c 128,-1,84
 743 390 743 390 737 390 c 0,85,86
 723 390 723 390 706.5 377 c 128,-1,87
 690 364 690 364 674.5 346.5 c 128,-1,88
 659 329 659 329 647.5 312 c 128,-1,89
 636 295 636 295 630 287 c 0,90,91
 613 264 613 264 594 239.5 c 128,-1,92
 575 215 575 215 558 194 c 1,93,94
 577 166 577 166 598.5 140 c 128,-1,95
 620 114 620 114 643 93.5 c 128,-1,96
 666 73 666 73 692 59 c 128,-1,97
 718 45 718 45 749 42 c 0,98,99
 756 39 756 39 764.5 36.5 c 128,-1,100
 773 34 773 34 778.5 30 c 128,-1,101
 784 26 784 26 784.5 19 c 128,-1,102
 785 12 785 12 778 1 c 0,103,104
 772 -1 772 -1 762.5 -2.5 c 128,-1,105
 753 -4 753 -4 742 -4.5 c 128,-1,106
 731 -5 731 -5 721 -5.5 c 128,-1,107
 711 -6 711 -6 703 -6 c 0,108,109
 654 -6 654 -6 622.5 9 c 128,-1,110
 591 24 591 24 569.5 44.5 c 128,-1,111
 548 65 548 65 532 87 c 128,-1,112
 516 109 516 109 500 123 c 0,113,114
 499 122 499 122 498.5 121 c 128,-1,115
 498 120 498 120 497 119 c 0,116,117
 486 102 486 102 468.5 82.5 c 128,-1,118
 451 63 451 63 430.5 45.5 c 128,-1,119
 410 28 410 28 388.5 13 c 128,-1,120
 367 -2 367 -2 348 -9 c 0,121,122
 308 -25 308 -25 258 -26 c 0,123,124
 225 -26 225 -26 198 -18 c 0,125,126
 167 -11 167 -11 141.5 5.5 c 128,-1,127
 116 22 116 22 98.5 45 c 128,-1,128
 81 68 81 68 71 96.5 c 128,-1,129
 61 125 61 125 61 157 c 2,130,-1
 61 176 l 2,131,132
 61 229 61 229 92 270.5 c 128,-1,133
 123 312 123 312 166 340 c 0,134,135
 183 351 183 351 206 362 c 128,-1,136
 229 373 229 373 244 387 c 0,137,138
 242 390 242 390 232 397 c 0,139,140
 207 419 207 419 186.5 452 c 128,-1,141
 166 485 166 485 166 519 c 0,142,143
 166 550 166 550 177 576.5 c 128,-1,144
 188 603 188 603 207 623 c 128,-1,145
 226 643 226 643 252.5 655 c 128,-1,146
 279 667 279 667 310 667 c 0,39,40
EndSplineSet
Validated: 1
EndChar

StartChar: quotesingle
Encoding: 39 39 24
Width: 159
Flags: W
LayerCount: 2
Fore
SplineSet
77 745 m 2,0,1
 83 745 83 745 90 744.5 c 128,-1,2
 97 744 97 744 110 744 c 0,3,4
 118 747 118 747 121.5 739.5 c 128,-1,5
 125 732 125 732 123 727 c 0,6,7
 121 716 121 716 117.5 686.5 c 128,-1,8
 114 657 114 657 110 625 c 128,-1,9
 106 593 106 593 102 566 c 128,-1,10
 98 539 98 539 95 532 c 0,11,12
 93 527 93 527 88 525 c 128,-1,13
 83 523 83 523 77.5 523.5 c 128,-1,14
 72 524 72 524 66.5 527.5 c 128,-1,15
 61 531 61 531 60 538 c 0,16,17
 58 551 58 551 54 577.5 c 128,-1,18
 50 604 50 604 46.5 633 c 128,-1,19
 43 662 43 662 40.5 688 c 128,-1,20
 38 714 38 714 38 728 c 0,21,22
 37 737 37 737 39.5 741 c 128,-1,23
 42 745 42 745 53 745 c 2,24,-1
 77 745 l 2,0,1
EndSplineSet
Validated: 1
EndChar

StartChar: parenleft
Encoding: 40 40 25
Width: 361
Flags: W
LayerCount: 2
Fore
SplineSet
325 734 m 0,0,1
 324 728 324 728 317 722 c 0,2,3
 280 685 280 685 256 650 c 0,4,5
 198 566 198 566 167.5 469 c 128,-1,6
 137 372 137 372 137 269 c 0,7,8
 137 232 137 232 141 192 c 128,-1,9
 145 152 145 152 154 111.5 c 128,-1,10
 163 71 163 71 176 33 c 128,-1,11
 189 -5 189 -5 208 -37 c 0,12,13
 231 -78 231 -78 254.5 -120 c 128,-1,14
 278 -162 278 -162 314 -193 c 0,15,16
 321 -202 321 -202 318 -212.5 c 128,-1,17
 315 -223 315 -223 304 -223 c 0,18,19
 295 -223 295 -223 280.5 -211 c 128,-1,20
 266 -199 266 -199 260 -193 c 0,21,22
 167 -98 167 -98 113 13 c 128,-1,23
 59 124 59 124 59 259 c 0,24,25
 59 317 59 317 71.5 376.5 c 128,-1,26
 84 436 84 436 107 493 c 128,-1,27
 130 550 130 550 163 601 c 128,-1,28
 196 652 196 652 237 694 c 0,29,30
 241 699 241 699 250 708.5 c 128,-1,31
 259 718 259 718 270 727 c 128,-1,32
 281 736 281 736 291 743.5 c 128,-1,33
 301 751 301 751 307 752 c 0,34,35
 319 745 319 745 325 734 c 0,0,1
EndSplineSet
Validated: 1
EndChar

StartChar: parenright
Encoding: 41 41 26
Width: 361
Flags: W
LayerCount: 2
Fore
SplineSet
297 269 m 0,0,1
 297 180 297 180 270 93.5 c 128,-1,2
 243 7 243 7 197 -67 c 0,3,4
 185 -87 185 -87 169 -109 c 128,-1,5
 153 -131 153 -131 134 -152.5 c 128,-1,6
 115 -174 115 -174 94.5 -192.5 c 128,-1,7
 74 -211 74 -211 53 -223 c 1,8,9
 35 -218 35 -218 31 -202 c 1,10,11
 65 -162 65 -162 97 -120 c 128,-1,12
 129 -78 129 -78 153 -31 c 0,13,14
 188 37 188 37 203.5 111 c 128,-1,15
 219 185 219 185 219 262 c 0,16,17
 219 311 219 311 212.5 363 c 128,-1,18
 206 415 206 415 192 465 c 128,-1,19
 178 515 178 515 156.5 562 c 128,-1,20
 135 609 135 609 106 649 c 256,21,22
 77 689 77 689 61 705 c 128,-1,23
 45 721 45 721 37 732 c 0,24,25
 35 736 35 736 41.5 745 c 128,-1,26
 48 754 48 754 53 754 c 0,27,28
 56 754 56 754 62.5 750 c 128,-1,29
 69 746 69 746 75 741 c 128,-1,30
 81 736 81 736 86.5 731.5 c 128,-1,31
 92 727 92 727 95 724 c 0,32,33
 188 631 188 631 242.5 517 c 128,-1,34
 297 403 297 403 297 269 c 0,0,1
EndSplineSet
Validated: 1
EndChar

StartChar: asterisk
Encoding: 42 42 27
Width: 532
Flags: W
LayerCount: 2
Fore
SplineSet
502 581 m 0,0,1
 507 571 507 571 503.5 567 c 128,-1,2
 500 563 500 563 492 560 c 0,3,4
 479 555 479 555 453 548 c 128,-1,5
 427 541 427 541 399 533 c 128,-1,6
 371 525 371 525 345 518.5 c 128,-1,7
 319 512 319 512 306 509 c 0,8,9
 294 505 294 505 290.5 513.5 c 128,-1,10
 287 522 287 522 293 529 c 0,11,12
 297 534 297 534 321 548 c 128,-1,13
 345 562 345 562 373.5 578 c 128,-1,14
 402 594 402 594 428.5 608.5 c 128,-1,15
 455 623 455 623 463 629 c 0,16,17
 468 631 468 631 475 630.5 c 128,-1,18
 482 630 482 630 483 621 c 0,19,20
 488 611 488 611 490.5 605.5 c 128,-1,21
 493 600 493 600 494.5 597 c 128,-1,22
 496 594 496 594 497.5 591 c 128,-1,23
 499 588 499 588 502 581 c 0,0,1
261 748 m 2,24,25
 264 748 264 748 269 747 c 128,-1,26
 274 746 274 746 286 746 c 0,27,28
 295 748 295 748 298 741 c 128,-1,29
 301 734 301 734 299 729 c 0,30,31
 297 718 297 718 294.5 688.5 c 128,-1,32
 292 659 292 659 289 627.5 c 128,-1,33
 286 596 286 596 282.5 569 c 128,-1,34
 279 542 279 542 275 536 c 0,35,36
 271 526 271 526 262 525 c 0,37,38
 254 525 254 525 252 540 c 0,39,40
 249 553 249 553 245 579 c 128,-1,41
 241 605 241 605 236.5 634 c 128,-1,42
 232 663 232 663 229 689.5 c 128,-1,43
 226 716 226 716 225 730 c 0,44,45
 226 738 226 738 228.5 743 c 128,-1,46
 231 748 231 748 243 748 c 2,47,-1
 261 748 l 2,24,25
94 332 m 0,48,49
 86 340 86 340 86 343 c 0,50,51
 86 348 86 348 93 355 c 0,52,53
 102 365 102 365 121.5 383.5 c 128,-1,54
 141 402 141 402 162.5 421 c 128,-1,55
 184 440 184 440 204.5 457 c 128,-1,56
 225 474 225 474 237 482 c 0,57,58
 247 491 247 491 254 485.5 c 128,-1,59
 261 480 261 480 257 469 c 0,60,61
 255 463 255 463 240 440.5 c 128,-1,62
 225 418 225 418 206.5 391.5 c 128,-1,63
 188 365 188 365 171.5 340.5 c 128,-1,64
 155 316 155 316 148 307 c 0,65,66
 146 302 146 302 139 299 c 128,-1,67
 132 296 132 296 127 304 c 0,68,69
 118 311 118 311 114.5 314 c 128,-1,70
 111 317 111 317 108 319.5 c 128,-1,71
 105 322 105 322 102.5 324.5 c 128,-1,72
 100 327 100 327 94 332 c 0,48,49
400 300 m 0,73,74
 387 290 387 290 375 304 c 0,75,76
 368 315 368 315 354.5 338 c 128,-1,77
 341 361 341 361 326 386.5 c 128,-1,78
 311 412 311 412 298.5 435 c 128,-1,79
 286 458 286 458 280 470 c 0,80,81
 274 481 274 481 280.5 487.5 c 128,-1,82
 287 494 287 494 296 487 c 0,83,84
 302 485 302 485 322 465.5 c 128,-1,85
 342 446 342 446 364.5 422.5 c 128,-1,86
 387 399 387 399 407 377.5 c 128,-1,87
 427 356 427 356 434 350 c 0,88,89
 439 346 439 346 440.5 339 c 128,-1,90
 442 332 442 332 434 329 c 0,91,92
 425 321 425 321 421 316.5 c 128,-1,93
 417 312 417 312 414.5 310 c 128,-1,94
 412 308 412 308 409 306 c 128,-1,95
 406 304 406 304 400 300 c 0,73,74
30 580 m 0,96,97
 33 587 33 587 34.5 590 c 128,-1,98
 36 593 36 593 37 596 c 128,-1,99
 38 599 38 599 40 603.5 c 128,-1,100
 42 608 42 608 47 620 c 0,101,102
 48 630 48 630 55 630 c 0,103,104
 63 630 63 630 69 625 c 0,105,106
 78 619 78 619 103.5 605 c 128,-1,107
 129 591 129 591 157 575 c 128,-1,108
 185 559 185 559 208.5 545 c 128,-1,109
 232 531 232 531 237 526 c 0,110,111
 244 518 244 518 240 509.5 c 128,-1,112
 236 501 236 501 222 504 c 0,113,114
 210 507 210 507 184.5 513.5 c 128,-1,115
 159 520 159 520 130.5 528.5 c 128,-1,116
 102 537 102 537 76 544.5 c 128,-1,117
 50 552 50 552 38 558 c 0,118,119
 30 561 30 561 27.5 565.5 c 128,-1,120
 25 570 25 570 30 580 c 0,96,97
EndSplineSet
Validated: 1
EndChar

StartChar: plus
Encoding: 43 43 28
Width: 491
Flags: W
LayerCount: 2
Fore
SplineSet
245 48 m 1,0,1
 237 48 237 48 227 48.5 c 128,-1,2
 217 49 217 49 211 54 c 1,3,4
 213 81 213 81 212.5 120 c 128,-1,5
 212 159 212 159 212 222 c 1,6,-1
 49 222 l 1,7,8
 38 239 38 239 37 252 c 128,-1,9
 36 265 36 265 49 288 c 1,10,11
 71 287 71 287 91 287 c 256,12,13
 111 287 111 287 132 287 c 2,14,-1
 211 287 l 1,15,-1
 211 450 l 1,16,17
 228 461 228 461 241 462 c 128,-1,18
 254 463 254 463 276 450 c 1,19,20
 275 428 275 428 275 407 c 0,21,22
 275 387 275 387 275 366 c 2,23,-1
 275 286 l 1,24,-1
 449 286 l 1,25,26
 451 276 451 276 451 270 c 2,27,-1
 451 256 l 2,28,29
 451 248 451 248 450.5 238 c 128,-1,30
 450 228 450 228 444 222 c 1,31,32
 417 224 417 224 378 223.5 c 128,-1,33
 339 223 339 223 274 223 c 1,34,-1
 274 50 l 1,35,36
 264 48 264 48 259 48 c 2,37,-1
 245 48 l 1,38,-1
 245 48 l 1,0,1
EndSplineSet
Validated: 37
EndChar

StartChar: comma
Encoding: 44 44 29
Width: 264
Flags: W
LayerCount: 2
Fore
SplineSet
217 -9 m 0,0,1
 217 -45 217 -45 201 -77 c 128,-1,2
 185 -109 185 -109 160 -133 c 0,3,4
 141 -152 141 -152 114.5 -169 c 128,-1,5
 88 -186 88 -186 68 -189 c 0,6,7
 63 -190 63 -190 57.5 -184 c 128,-1,8
 52 -178 52 -178 53 -173 c 0,9,10
 55 -166 55 -166 71 -156 c 128,-1,11
 87 -146 87 -146 105 -131.5 c 128,-1,12
 123 -117 123 -117 138 -97 c 128,-1,13
 153 -77 153 -77 153 -50 c 0,14,15
 153 -34 153 -34 148.5 -25 c 128,-1,16
 144 -16 144 -16 136.5 -11.5 c 128,-1,17
 129 -7 129 -7 119 -4 c 128,-1,18
 109 -1 109 -1 96 4 c 0,19,20
 79 12 79 12 66 23 c 128,-1,21
 53 34 53 34 53 54 c 0,22,23
 53 69 53 69 60 80 c 128,-1,24
 67 91 67 91 77.5 97.5 c 128,-1,25
 88 104 88 104 101 107.5 c 128,-1,26
 114 111 114 111 127 111 c 0,27,28
 149 111 149 111 165.5 99 c 128,-1,29
 182 87 182 87 193.5 69 c 128,-1,30
 205 51 205 51 211 30 c 128,-1,31
 217 9 217 9 217 -9 c 0,0,1
EndSplineSet
Validated: 1
EndChar

StartChar: hyphen
Encoding: 45 45 30
Width: 386
Flags: W
LayerCount: 2
Fore
SplineSet
48 278 m 0,0,1
 48 283 48 283 63.5 284 c 128,-1,2
 79 285 79 285 93 285 c 2,3,-1
 111 285 l 2,4,5
 169 285 169 285 227.5 284 c 128,-1,6
 286 283 286 283 344 286 c 0,7,8
 350 286 350 286 350 267 c 2,9,-1
 350 226 l 2,10,11
 350 221 350 221 339.5 219.5 c 128,-1,12
 329 218 329 218 316 218 c 2,13,-1
 85 218 l 2,14,15
 73 218 73 218 60.5 219 c 128,-1,16
 48 220 48 220 48 223 c 0,17,18
 47 230 47 230 47.5 240.5 c 128,-1,19
 48 251 48 251 48 278 c 0,0,1
EndSplineSet
Validated: 33
EndChar

StartChar: period
Encoding: 46 46 31
Width: 257
Flags: W
LayerCount: 2
Fore
SplineSet
181 44 m 256,0,1
 181 17 181 17 163.5 1 c 128,-1,2
 146 -15 146 -15 120 -15 c 256,3,4
 93 -15 93 -15 75 1.5 c 128,-1,5
 57 18 57 18 57 46 c 256,6,7
 57 74 57 74 76 92 c 128,-1,8
 95 110 95 110 122 110 c 0,9,10
 151 110 151 110 166 90.5 c 128,-1,11
 181 71 181 71 181 44 c 256,0,1
EndSplineSet
Validated: 1
EndChar

StartChar: slash
Encoding: 47 47 32
Width: 387
Flags: W
LayerCount: 2
Fore
SplineSet
359 744 m 1,0,1
 345 694 345 694 326.5 646.5 c 128,-1,2
 308 599 308 599 290 550 c 0,3,4
 235 404 235 404 180.5 261 c 128,-1,5
 126 118 126 118 77 -31 c 1,6,7
 72 -31 72 -31 59 -32 c 128,-1,8
 46 -33 46 -33 20 -31 c 1,9,10
 91 165 91 165 164 355.5 c 128,-1,11
 237 546 237 546 302 743 c 1,12,13
 312 746 312 746 331 746 c 0,14,15
 339 746 339 746 346.5 745.5 c 128,-1,16
 354 745 354 745 359 744 c 1,0,1
EndSplineSet
Validated: 33
EndChar

StartChar: zero
Encoding: 48 48 33
Width: 591
Flags: W
LayerCount: 2
Fore
SplineSet
461.915039062 335.232421875 m 4,0,1
 461.915039062 387.995117188 461.915039062 387.995117188 452.780273438 441.51171875 c 132,-1,2
 443.64453125 495.02734375 443.64453125 495.02734375 424.360351562 537.991210938 c 132,-1,3
 405.075195312 580.955078125 405.075195312 580.955078125 373.610351562 608.08984375 c 132,-1,4
 342.14453125 635.224609375 342.14453125 635.224609375 297.485351562 635.224609375 c 4,5,6
 257.900390625 636.732421875 257.900390625 636.732421875 228.97265625 610.3515625 c 132,-1,7
 200.044921875 583.969726562 200.044921875 583.969726562 181.267578125 542.513671875 c 132,-1,8
 162.490234375 501.057617188 162.490234375 501.057617188 152.84765625 449.048828125 c 132,-1,9
 143.205078125 397.040039062 143.205078125 397.040039062 142.190429688 347.29296875 c 4,10,11
 141.174804688 293.022460938 141.174804688 293.022460938 149.802734375 242.521484375 c 132,-1,12
 158.4296875 192.01953125 158.4296875 192.01953125 177.71484375 152.071289062 c 132,-1,13
 197 112.122070312 197 112.122070312 227.450195312 87.2490234375 c 132,-1,14
 257.900390625 62.375 257.900390625 62.375 301.544921875 60.8671875 c 4,15,16
 343.16015625 59.3603515625 343.16015625 59.3603515625 372.594726562 83.48046875 c 132,-1,17
 402.030273438 107.599609375 402.030273438 107.599609375 421.315429688 146.794921875 c 132,-1,18
 440.599609375 185.990234375 440.599609375 185.990234375 450.75 234.983398438 c 132,-1,19
 460.900390625 283.977539062 460.900390625 283.977539062 461.915039062 335.232421875 c 4,0,1
549.205078125 357.844726562 m 4,20,21
 549.205078125 279.455078125 549.205078125 279.455078125 530.934570312 209.356445312 c 132,-1,22
 512.665039062 139.2578125 512.665039062 139.2578125 480.184570312 86.4951171875 c 132,-1,23
 447.705078125 33.732421875 447.705078125 33.732421875 402.030273438 2.8291015625 c 132,-1,24
 356.35546875 -28.0751953125 356.35546875 -28.0751953125 302.559570312 -28.0751953125 c 4,25,26
 247.75 -28.0751953125 247.75 -28.0751953125 201.567382812 -1.693359375 c 132,-1,27
 155.384765625 24.6875 155.384765625 24.6875 121.889648438 73.681640625 c 132,-1,28
 88.39453125 122.674804688 88.39453125 122.674804688 70.125 189.758789062 c 132,-1,29
 51.85546875 256.842773438 51.85546875 256.842773438 51.85546875 339.754882812 c 4,30,31
 51.85546875 418.14453125 51.85546875 418.14453125 70.125 488.244140625 c 132,-1,32
 88.39453125 558.342773438 88.39453125 558.342773438 121.3828125 609.59765625 c 132,-1,33
 154.370117188 660.852539062 154.370117188 660.852539062 199.537109375 691.755859375 c 132,-1,34
 244.705078125 722.66015625 244.705078125 722.66015625 298.5 722.66015625 c 4,35,36
 349.25 722.66015625 349.25 722.66015625 394.41796875 694.771484375 c 132,-1,37
 439.584960938 666.8828125 439.584960938 666.8828125 474.094726562 618.642578125 c 132,-1,38
 508.60546875 570.40234375 508.60546875 570.40234375 528.905273438 502.565429688 c 132,-1,39
 549.205078125 434.727539062 549.205078125 434.727539062 549.205078125 357.844726562 c 4,20,21
EndSplineSet
EndChar

StartChar: one
Encoding: 49 49 34
Width: 372
Flags: W
LayerCount: 2
Fore
SplineSet
338 703.762695312 m 0,0,1
 338 681.677734375 338 681.677734375 327 676.9453125 c 128,-1,2
 316 672.212890625 316 672.212890625 302 672.212890625 c 0,3,4
 274 672.212890625 274 672.212890625 259 664.325195312 c 128,-1,5
 244 656.4375 244 656.4375 236.5 641.451171875 c 128,-1,6
 229 626.46484375 229 626.46484375 228 604.379882812 c 128,-1,7
 227 582.294921875 227 582.294921875 227 552.322265625 c 0,8,9
 227 460.827148438 227 460.827148438 225.5 370.12109375 c 128,-1,10
 224 279.415039062 224 279.415039062 224 187.919921875 c 2,11,-1
 224 164.2578125 l 1,12,-1
 224 187.919921875 l 1,13,-1
 224 148.482421875 l 1,14,-1
 224 164.2578125 l 1,15,16
 225 142.172851562 225 142.172851562 228 117.721679688 c 128,-1,17
 231 93.26953125 231 93.26953125 242 79.072265625 c 0,18,19
 251 66.4521484375 251 66.4521484375 267 61.7197265625 c 128,-1,20
 283 56.9873046875 283 56.9873046875 297.5 53.0439453125 c 128,-1,21
 312 49.099609375 312 49.099609375 323.5 43.5791015625 c 128,-1,22
 335 38.0576171875 335 38.0576171875 335 23.8603515625 c 0,23,24
 335 0.197265625 335 0.197265625 320 -2.1689453125 c 128,-1,25
 305 -4.53515625 305 -4.53515625 290 -4.53515625 c 0,26,27
 261 -4.53515625 261 -4.53515625 232.5 0.197265625 c 128,-1,28
 204 4.9296875 204 4.9296875 175 4.9296875 c 0,29,30
 160 4.9296875 160 4.9296875 148.5 3.3525390625 c 128,-1,31
 137 1.775390625 137 1.775390625 127.5 -0.5908203125 c 128,-1,32
 118 -2.95703125 118 -2.95703125 106.5 -4.53515625 c 128,-1,33
 95 -6.1123046875 95 -6.1123046875 80 -6.1123046875 c 2,34,-1
 66 -6.1123046875 l 2,35,36
 56 -6.1123046875 56 -6.1123046875 46 -0.5908203125 c 128,-1,37
 36 4.9296875 36 4.9296875 36 23.8603515625 c 0,38,39
 36 38.0576171875 36 38.0576171875 46 44.3671875 c 128,-1,40
 56 50.677734375 56 50.677734375 70 54.62109375 c 128,-1,41
 84 58.5654296875 84 58.5654296875 99.5 64.0859375 c 128,-1,42
 115 69.607421875 115 69.607421875 125 83.8046875 c 0,43,44
 135 96.4248046875 135 96.4248046875 137.5 129.552734375 c 128,-1,45
 140 162.6796875 140 162.6796875 140 194.23046875 c 2,46,-1
 140 227.357421875 l 1,47,-1
 141 342.514648438 l 2,48,49
 141 385.107421875 141 385.107421875 141.5 425.333984375 c 128,-1,50
 142 465.559570312 142 465.559570312 142 504.997070312 c 2,51,-1
 142 536.547851562 l 2,52,53
 142 563.365234375 142 563.365234375 139 595.704101562 c 128,-1,54
 136 628.04296875 136 628.04296875 130 640.662109375 c 4,55,56
 119 658.014648438 119 658.014648438 103.5 662.747070312 c 132,-1,57
 88 667.48046875 88 667.48046875 73.5 669.057617188 c 132,-1,58
 59 670.634765625 59 670.634765625 49.5 676.9453125 c 132,-1,59
 40 683.254882812 40 683.254882812 40 705.33984375 c 4,60,61
 40 721.115234375 40 721.115234375 49.5 724.26953125 c 132,-1,62
 59 727.424804688 59 727.424804688 68 727.424804688 c 6,63,-1
 79 727.424804688 l 6,64,65
 109 727.424804688 109 727.424804688 131.5 722.692382812 c 132,-1,66
 154 717.959960938 154 717.959960938 183 717.959960938 c 0,67,68
 197 717.959960938 197 717.959960938 212.5 720.326171875 c 128,-1,69
 228 722.692382812 228 722.692382812 243 722.692382812 c 2,70,-1
 332 722.692382812 l 1,71,72
 338 711.650390625 338 711.650390625 338 703.762695312 c 0,0,1
EndSplineSet
EndChar

StartChar: two
Encoding: 50 50 35
Width: 466
Flags: W
LayerCount: 2
Fore
SplineSet
47 554 m 0,0,1
 47 560 47 560 50.5 572 c 128,-1,2
 54 584 54 584 60 595.25 c 128,-1,3
 66 606.5 66 606.5 71 617.75 c 128,-1,4
 76 629 76 629 79 633.5 c 0,5,6
 99 668 99 668 116.5 685.25 c 128,-1,7
 134 702.5 134 702.5 150 710 c 128,-1,8
 166 717.5 166 717.5 181 719 c 128,-1,9
 196 720.5 196 720.5 211 720.5 c 0,10,11
 285 720.5 285 720.5 318.5 650.75 c 128,-1,12
 352 581 352 581 331 465.5 c 0,13,14
 326 435.5 326 435.5 311 395.75 c 128,-1,15
 296 356 296 356 276 314 c 128,-1,16
 256 272 256 272 233.5 231.5 c 128,-1,17
 211 191 211 191 190.5 158 c 128,-1,18
 170 125 170 125 154.5 102.5 c 128,-1,19
 139 80 139 80 134 75.5 c 1,20,21
 147 66.5 147 66.5 178.5 63.5 c 128,-1,22
 210 60.5 210 60.5 244.5 62.75 c 128,-1,23
 279 65 279 65 308 74 c 128,-1,24
 337 83 337 83 345 98 c 4,25,26
 355 117.5 355 117.5 367 142.25 c 132,-1,27
 379 167 379 167 389.5 190.25 c 132,-1,28
 400 213.5 400 213.5 408.5 231.5 c 132,-1,29
 417 249.5 417 249.5 419 254 c 4,30,31
 427 270.5 427 270.5 439 263.75 c 132,-1,32
 451 257 451 257 455 243.5 c 5,33,34
 429 182 429 182 419.5 133.25 c 132,-1,35
 410 84.5 410 84.5 406.5 52.25 c 128,-1,36
 403 20 403 20 402 3.5 c 128,-1,37
 401 -13 401 -13 393 -11.5 c 0,38,39
 364 -8.5 364 -8.5 321.5 1.25 c 128,-1,40
 279 11 279 11 214 14 c 0,41,42
 187 14 187 14 154 13.25 c 128,-1,43
 121 12.5 121 12.5 94 12.5 c 0,44,45
 90 12.5 90 12.5 83.5 -0.25 c 128,-1,46
 77 -13 77 -13 73 -10 c 0,47,48
 63 -10 63 -10 57.5 -4 c 128,-1,49
 52 2 52 2 52 21.5 c 0,50,51
 52 29 52 29 57 36.5 c 0,52,53
 86 84.5 86 84.5 114.5 140 c 128,-1,54
 143 195.5 143 195.5 168.5 251 c 128,-1,55
 194 306.5 194 306.5 213 357.5 c 128,-1,56
 232 408.5 232 408.5 244 450.5 c 0,57,58
 266 534.5 266 534.5 244 584 c 128,-1,59
 222 633.5 222 633.5 170 633.5 c 0,60,61
 138 633.5 138 633.5 120 620 c 128,-1,62
 102 606.5 102 606.5 92 589.25 c 128,-1,63
 82 572 82 572 76.5 556.25 c 128,-1,64
 71 540.5 71 540.5 65 536 c 256,65,66
 59 531.5 59 531.5 53 537.5 c 128,-1,67
 47 543.5 47 543.5 47 554 c 0,0,1
EndSplineSet
EndChar

StartChar: three
Encoding: 51 51 36
Width: 416
Flags: W
LayerCount: 2
Fore
SplineSet
35 589 m 4,0,1
 34 602 34 602 47 618.5 c 132,-1,2
 60 635 60 635 80.5 649.5 c 132,-1,3
 101 664 101 664 126 674 c 132,-1,4
 151 684 151 684 174 684 c 4,5,6
 199 684 199 684 222 678 c 132,-1,7
 245 672 245 672 263.5 658 c 132,-1,8
 282 644 282 644 293 622.5 c 132,-1,9
 304 601 304 601 304 569 c 4,10,11
 304 547 304 547 290 520.5 c 132,-1,12
 276 494 276 494 256 468.5 c 132,-1,13
 236 443 236 443 214.5 422 c 132,-1,14
 193 401 193 401 178 391 c 5,15,16
 223 395 223 395 259.5 383.5 c 132,-1,17
 296 372 296 372 321 348 c 132,-1,18
 346 324 346 324 359.5 290 c 132,-1,19
 373 256 373 256 373 217 c 4,20,21
 373 159 373 159 342 106 c 132,-1,22
 311 53 311 53 264 13 c 132,-1,23
 217 -27 217 -27 160.5 -50.5 c 132,-1,24
 104 -74 104 -74 50 -75 c 4,25,26
 44 -75 44 -75 41.5 -71.5 c 132,-1,27
 39 -68 39 -68 39.5 -63 c 132,-1,28
 40 -58 40 -58 42.5 -54.5 c 132,-1,29
 45 -51 45 -51 49 -51 c 4,30,31
 96 -38 96 -38 139 -17 c 132,-1,32
 182 4 182 4 214.5 33.5 c 132,-1,33
 247 63 247 63 266 100.5 c 132,-1,34
 285 138 285 138 285 185 c 4,35,36
 285 210 285 210 278 234.5 c 132,-1,37
 271 259 271 259 257.5 280 c 132,-1,38
 244 301 244 301 224 315.5 c 132,-1,39
 204 330 204 330 178 335 c 4,40,41
 158 339 158 339 135.5 341 c 132,-1,42
 113 343 113 343 91 332 c 4,43,44
 84 329 84 329 71.5 320 c 132,-1,45
 59 311 59 311 53 311 c 4,46,47
 38 311 38 311 38 329 c 4,48,49
 38 338 38 338 52 344.5 c 132,-1,50
 66 351 66 351 72 354 c 4,51,52
 95 366 95 366 122 386.5 c 132,-1,53
 149 407 149 407 173 432 c 132,-1,54
 197 457 197 457 213 485 c 132,-1,55
 229 513 229 513 229 541 c 4,56,57
 229 590 229 590 204 613.5 c 132,-1,58
 179 637 179 637 147 637 c 260,59,60
 114 637 114 637 94 620.5 c 132,-1,61
 74 604 74 604 50 578 c 4,62,63
 46 574 46 574 41 578.5 c 132,-1,64
 36 583 36 583 35 589 c 4,0,1
EndSplineSet
EndChar

StartChar: four
Encoding: 52 52 37
Width: 591
Flags: W
LayerCount: 2
Fore
SplineSet
587 227 m 4,0,1
 587 205 587 205 565 205 c 4,2,3
 553 205 553 205 540.5 206 c 132,-1,4
 528 207 528 207 515 207 c 6,5,-1
 495 207 l 6,6,7
 477 207 477 207 461.5 207.5 c 132,-1,8
 446 208 446 208 435.5 206.5 c 132,-1,9
 425 205 425 205 419 200 c 132,-1,10
 413 195 413 195 413 184 c 6,11,-1
 413 -20 l 6,12,13
 413 -28 413 -28 412 -36 c 132,-1,14
 411 -44 411 -44 415 -52 c 4,15,16
 413 -68 413 -68 397.5 -75 c 132,-1,17
 382 -82 382 -82 364 -82 c 4,18,19
 350 -82 350 -82 339 -77.5 c 132,-1,20
 328 -73 328 -73 328 -67 c 4,21,22
 330 -50 330 -50 330.5 -22.5 c 132,-1,23
 331 5 331 5 331 34 c 6,24,-1
 331 127 l 6,25,26
 331 134 331 134 331.5 143.5 c 132,-1,27
 332 153 332 153 332 162 c 4,28,29
 332 184 332 184 324.5 193.5 c 132,-1,30
 317 203 317 203 306.5 206 c 132,-1,31
 296 209 296 209 283 208 c 132,-1,32
 270 207 270 207 259 207 c 4,33,34
 201 207 201 207 144.5 203 c 132,-1,35
 88 199 88 199 30 199 c 4,36,37
 22 199 22 199 17.5 207.5 c 132,-1,38
 13 216 13 216 19 225 c 4,39,40
 31 243 31 243 50.5 270.5 c 132,-1,41
 70 298 70 298 93.5 330 c 132,-1,42
 117 362 117 362 142 396 c 132,-1,43
 167 430 167 430 190 461.5 c 132,-1,44
 213 493 213 493 233 519.5 c 132,-1,45
 253 546 253 546 266 562 c 4,46,47
 280 580 280 580 286.5 590.5 c 132,-1,48
 293 601 293 601 297.5 610 c 132,-1,49
 302 619 302 619 307.5 629 c 132,-1,50
 313 639 313 639 326 659 c 4,51,52
 333 669 333 669 347 673 c 132,-1,53
 361 677 361 677 376 677 c 260,54,55
 390 677 390 677 400 672 c 132,-1,56
 410 667 410 667 409 659 c 4,57,58
 409 656 409 656 410 645.5 c 132,-1,59
 411 635 411 635 411 599 c 6,60,-1
 411 275 l 6,61,62
 411 261 411 261 433 260 c 6,63,-1
 482 260 l 6,64,65
 504 260 504 260 523.5 260.5 c 132,-1,66
 543 261 543 261 552 261 c 4,67,68
 566 261 566 261 576.5 251 c 132,-1,69
 587 241 587 241 587 227 c 4,0,1
104 272 m 4,70,71
 104 264 104 264 111.5 261 c 132,-1,72
 119 258 119 258 125 258 c 4,73,74
 135 258 135 258 161.5 259 c 132,-1,75
 188 260 188 260 218 260.5 c 132,-1,76
 248 261 248 261 272.5 262 c 132,-1,77
 297 263 297 263 303 263 c 4,78,79
 323 263 323 263 327.5 269 c 132,-1,80
 332 275 332 275 332 288 c 6,81,-1
 332 346 l 6,82,83
 332 381 332 381 331.5 421 c 132,-1,84
 331 461 331 461 331 502 c 6,85,-1
 331 579 l 5,86,87
 292 527 292 527 239.5 461.5 c 132,-1,88
 187 396 187 396 132 318 c 4,89,90
 126 309 126 309 115 296 c 132,-1,91
 104 283 104 283 104 272 c 4,70,71
EndSplineSet
EndChar

StartChar: five
Encoding: 53 53 38
Width: 498
Flags: W
LayerCount: 2
Fore
SplineSet
428.5 679 m 4,0,1
 431.5 676 431.5 676 430.5 666.5 c 132,-1,2
 429.5 657 429.5 657 426 643.5 c 132,-1,3
 422.5 630 422.5 630 417.5 612 c 132,-1,4
 412.5 594 412.5 594 408.5 573 c 4,5,6
 405.5 563 405.5 563 401.5 552 c 132,-1,7
 397.5 541 397.5 541 391 531 c 132,-1,8
 384.5 521 384.5 521 373.5 515 c 132,-1,9
 362.5 509 362.5 509 346.5 509 c 4,10,11
 333.5 509 333.5 509 303.5 509 c 4,12,13
 274.5 509 274.5 509 243.5 509 c 260,14,15
 211.5 509 211.5 509 186 507.5 c 132,-1,16
 160.5 506 160.5 506 155.5 503 c 4,17,18
 147.5 503 147.5 503 139 482.5 c 132,-1,19
 130.5 462 130.5 462 123 436 c 132,-1,20
 115.5 410 115.5 410 108.5 384.5 c 132,-1,21
 101.5 359 101.5 359 95.5 349 c 5,22,23
 110.5 356 110.5 356 129 367.5 c 132,-1,24
 147.5 379 147.5 379 172 388.5 c 132,-1,25
 196.5 398 196.5 398 226 404 c 132,-1,26
 255.5 410 255.5 410 292.5 404 c 4,27,28
 337.5 397 337.5 397 370.5 376 c 132,-1,29
 403.5 355 403.5 355 424.5 324.5 c 132,-1,30
 445.5 294 445.5 294 454 254.5 c 132,-1,31
 462.5 215 462.5 215 457.5 171 c 4,32,33
 449.5 102 449.5 102 410.5 45 c 132,-1,34
 371.5 -12 371.5 -12 315.5 -53 c 4,35,36
 295.5 -68 295.5 -68 286.5 -69 c 260,37,38
 277.5 -69 277.5 -69 264.5 -52 c 4,39,40
 261.5 -49 261.5 -49 274.5 -37 c 132,-1,41
 287.5 -25 287.5 -25 306 -2.5 c 132,-1,42
 324.5 20 324.5 20 342.5 54.5 c 132,-1,43
 360.5 89 360.5 89 368.5 138 c 4,44,45
 373.5 177 373.5 177 372 207.5 c 132,-1,46
 370.5 238 370.5 238 359 261 c 132,-1,47
 347.5 284 347.5 284 325.5 301.5 c 132,-1,48
 303.5 319 303.5 319 267.5 334 c 4,49,50
 254.5 339 254.5 339 232 337.5 c 132,-1,51
 209.5 336 209.5 336 185 330.5 c 132,-1,52
 160.5 325 160.5 325 138 316 c 132,-1,53
 115.5 307 115.5 307 102.5 299 c 4,54,55
 94.5 296 94.5 296 90 289 c 132,-1,56
 85.5 282 85.5 282 80 275.5 c 132,-1,57
 74.5 269 74.5 269 65 266.5 c 132,-1,58
 55.5 264 55.5 264 40.5 270 c 4,59,60
 31.5 277 31.5 277 31.5 288 c 4,61,62
 31.5 305 31.5 305 41 320.5 c 132,-1,63
 50.5 336 50.5 336 53.5 344 c 4,64,65
 60.5 363 60.5 363 70.5 392 c 132,-1,66
 80.5 421 80.5 421 89.5 452.5 c 132,-1,67
 98.5 484 98.5 484 106 515 c 132,-1,68
 113.5 546 113.5 546 115.5 568 c 4,69,70
 116.5 573 116.5 573 118.5 578 c 132,-1,71
 120.5 583 120.5 583 127.5 583 c 4,72,73
 137.5 584 137.5 584 158.5 583.5 c 132,-1,74
 179.5 583 179.5 583 209 582.5 c 132,-1,75
 238.5 582 238.5 582 274 582.5 c 132,-1,76
 309.5 583 309.5 583 350.5 586 c 5,77,-1
 402.5 680 l 6,78,79
 407.5 687 407.5 687 415.5 684 c 132,-1,80
 423.5 681 423.5 681 428.5 679 c 4,0,1
EndSplineSet
EndChar

StartChar: six
Encoding: 54 54 39
Width: 585
Flags: W
LayerCount: 2
Fore
SplineSet
527 234 m 0,0,1
 527 186 527 186 511 141.5 c 128,-1,2
 495 97 495 97 465.5 62.5 c 128,-1,3
 436 28 436 28 395 7.5 c 128,-1,4
 354 -13 354 -13 304 -13 c 0,5,6
 255 -13 255 -13 206 7 c 0,7,8
 166 24 166 24 138 51.5 c 128,-1,9
 110 79 110 79 92 113 c 128,-1,10
 74 147 74 147 65 186.5 c 128,-1,11
 56 226 56 226 56 267 c 0,12,13
 56 348 56 348 82.5 421.5 c 128,-1,14
 109 495 109 495 155 557.5 c 128,-1,15
 201 620 201 620 262.5 669.5 c 128,-1,16
 324 719 324 719 394 752 c 0,17,18
 405 757 405 757 420 763 c 128,-1,19
 435 769 435 769 446 770 c 0,20,21
 451 767 451 767 457 762 c 128,-1,22
 463 757 463 757 463 750 c 0,23,24
 463 745 463 745 455 738.5 c 128,-1,25
 447 732 447 732 437.5 727 c 128,-1,26
 428 722 428 722 418 717.5 c 128,-1,27
 408 713 408 713 403 711 c 0,28,29
 386 701 386 701 370 689 c 128,-1,30
 354 677 354 677 339 664 c 0,31,32
 271 606 271 606 227.5 529.5 c 128,-1,33
 184 453 184 453 166 366 c 1,34,35
 178 378 178 378 196 391 c 128,-1,36
 214 404 214 404 235.5 415.5 c 128,-1,37
 257 427 257 427 282 434 c 128,-1,38
 307 441 307 441 335 441 c 0,39,40
 379 441 379 441 415 425.5 c 128,-1,41
 451 410 451 410 476 382 c 128,-1,42
 501 354 501 354 514 316 c 128,-1,43
 527 278 527 278 527 234 c 0,0,1
295 395 m 0,44,45
 273 395 273 395 252.5 386.5 c 128,-1,46
 232 378 232 378 214.5 365.5 c 128,-1,47
 197 353 197 353 182 339.5 c 128,-1,48
 167 326 167 326 158 314 c 1,49,50
 156 295 156 295 154.5 279.5 c 128,-1,51
 153 264 153 264 153 245 c 0,52,53
 153 209 153 209 159.5 169.5 c 128,-1,54
 166 130 166 130 182.5 96 c 128,-1,55
 199 62 199 62 227.5 40 c 128,-1,56
 256 18 256 18 300 18 c 0,57,58
 338 18 338 18 364 36.5 c 128,-1,59
 390 55 390 55 406.5 84 c 128,-1,60
 423 113 423 113 430 147 c 128,-1,61
 437 181 437 181 437 213 c 0,62,63
 437 247 437 247 429 279.5 c 128,-1,64
 421 312 421 312 404 338 c 128,-1,65
 387 364 387 364 360 379.5 c 128,-1,66
 333 395 333 395 295 395 c 0,44,45
EndSplineSet
Validated: 1
EndChar

StartChar: seven
Encoding: 55 55 40
Width: 494
Flags: W
LayerCount: 2
Fore
SplineSet
481 652 m 4,0,1
 481 649 481 649 475.5 635.5 c 132,-1,2
 470 622 470 622 460.5 602.5 c 132,-1,3
 451 583 451 583 441 560 c 132,-1,4
 431 537 431 537 420.5 516 c 132,-1,5
 410 495 410 495 402.5 478.5 c 132,-1,6
 395 462 395 462 392 456 c 4,7,8
 331 321 331 321 270.5 189.5 c 132,-1,9
 210 58 210 58 136 -71 c 4,10,11
 133 -76 133 -76 125 -75.5 c 132,-1,12
 117 -75 117 -75 108.5 -71 c 132,-1,13
 100 -67 100 -67 95 -60.5 c 132,-1,14
 90 -54 90 -54 92 -49 c 4,15,16
 141 52 141 52 189 149.5 c 132,-1,17
 237 247 237 247 287 348 c 4,18,19
 311 400 311 400 334.5 450.5 c 132,-1,20
 358 501 358 501 379 553 c 4,21,22
 380 558 380 558 381 563 c 132,-1,23
 382 568 382 568 382 573 c 4,24,25
 382 583 382 583 372 585 c 132,-1,26
 362 587 362 587 355 587 c 6,27,-1
 44 587 l 6,28,29
 35 587 35 587 27 589.5 c 132,-1,30
 19 592 19 592 22 600 c 4,31,32
 31 625 31 625 38.5 651 c 132,-1,33
 46 677 46 677 52 698.5 c 132,-1,34
 58 720 58 720 63.5 734 c 132,-1,35
 69 748 69 748 75 748 c 260,36,37
 80 748 80 748 88.5 745.5 c 132,-1,38
 97 743 97 743 97 735 c 4,39,40
 96 716 96 716 96.5 700 c 132,-1,41
 97 684 97 684 96 667 c 5,42,-1
 136 666 l 5,43,-1
 218 666 l 6,44,45
 238 666 238 666 259 666 c 4,46,47
 281 666 281 666 301 667 c 4,48,49
 334 668 334 668 367 669.5 c 132,-1,50
 400 671 400 671 433 671 c 6,51,-1
 446 671 l 6,52,53
 457 671 457 671 469 667 c 132,-1,54
 481 663 481 663 481 652 c 4,0,1
EndSplineSet
EndChar

StartChar: eight
Encoding: 56 56 41
Width: 507
Flags: W
LayerCount: 2
Fore
SplineSet
464 186 m 0,0,1
 465 144 465 144 449.5 108 c 128,-1,2
 434 72 434 72 407 44.5 c 128,-1,3
 380 17 380 17 343 2 c 128,-1,4
 306 -13 306 -13 265 -13 c 0,5,6
 225 -13 225 -13 186.5 -4.5 c 128,-1,7
 148 4 148 4 118 23.5 c 128,-1,8
 88 43 88 43 69 75.5 c 128,-1,9
 50 108 50 108 49 155 c 0,10,11
 48 187 48 187 58.5 213.5 c 128,-1,12
 69 240 69 240 87 262.5 c 128,-1,13
 105 285 105 285 129 303 c 128,-1,14
 153 321 153 321 178 335 c 2,15,-1
 200 347 l 1,16,17
 195 352 195 352 189.5 355.5 c 128,-1,18
 184 359 184 359 179 364 c 0,19,20
 155 379 155 379 132.5 396.5 c 128,-1,21
 110 414 110 414 92 435 c 128,-1,22
 74 456 74 456 62 480.5 c 128,-1,23
 50 505 50 505 49 536 c 0,24,25
 48 580 48 580 65 615 c 128,-1,26
 82 650 82 650 110.5 675 c 128,-1,27
 139 700 139 700 177 713.5 c 128,-1,28
 215 727 215 727 256 727 c 0,29,30
 293 727 293 727 329 716.5 c 128,-1,31
 365 706 365 706 393 685.5 c 128,-1,32
 421 665 421 665 439 633.5 c 128,-1,33
 457 602 457 602 458 562 c 0,34,35
 459 525 459 525 446.5 498 c 128,-1,36
 434 471 434 471 413 451 c 128,-1,37
 392 431 392 431 364.5 415 c 128,-1,38
 337 399 337 399 308 385 c 1,39,40
 314 380 314 380 321.5 376 c 128,-1,41
 329 372 329 372 336 368 c 0,42,43
 360 354 360 354 383 334.5 c 128,-1,44
 406 315 406 315 423.5 292 c 128,-1,45
 441 269 441 269 452.5 242.5 c 128,-1,46
 464 216 464 216 464 186 c 0,0,1
381 151 m 0,47,48
 380 187 380 187 367 215.5 c 128,-1,49
 354 244 354 244 333.5 265.5 c 128,-1,50
 313 287 313 287 286 303 c 128,-1,51
 259 319 259 319 229 331 c 1,52,53
 179 312 179 312 151.5 267.5 c 128,-1,54
 124 223 124 223 126 170 c 0,55,56
 127 140 127 140 133.5 113 c 128,-1,57
 140 86 140 86 154 65 c 128,-1,58
 168 44 168 44 190 31 c 128,-1,59
 212 18 212 18 244 18 c 0,60,61
 264 18 264 18 281.5 20.5 c 128,-1,62
 299 23 299 23 318 32 c 0,63,64
 354 49 354 49 368.5 80.5 c 128,-1,65
 383 112 383 112 381 151 c 0,47,48
381 557 m 0,66,67
 380 586 380 586 370 612 c 128,-1,68
 360 638 360 638 343.5 657 c 128,-1,69
 327 676 327 676 302.5 687 c 128,-1,70
 278 698 278 698 247 698 c 0,71,72
 193 698 193 698 159.5 662 c 128,-1,73
 126 626 126 626 126 571 c 0,74,75
 127 532 127 532 152 497 c 0,76,77
 160 486 160 486 175 471 c 128,-1,78
 190 456 190 456 208 441.5 c 128,-1,79
 226 427 226 427 244 416.5 c 128,-1,80
 262 406 262 406 276 402 c 1,81,82
 301 409 301 409 320.5 425.5 c 128,-1,83
 340 442 340 442 353.5 463 c 128,-1,84
 367 484 367 484 374 508.5 c 128,-1,85
 381 533 381 533 381 557 c 0,66,67
EndSplineSet
Validated: 33
EndChar

StartChar: nine
Encoding: 57 57 42
Width: 585
Flags: WO
LayerCount: 2
Fore
SplineSet
291 311 m 4,0,1
 313 311 313 311 333 319.5 c 132,-1,2
 353 328 353 328 371 340.5 c 132,-1,3
 389 353 389 353 404 367 c 132,-1,4
 419 381 419 381 428 392 c 5,5,6
 430 411 430 411 431.5 426.5 c 132,-1,7
 433 442 433 442 433 462 c 4,8,9
 433 497 433 497 426.5 536.5 c 132,-1,10
 420 576 420 576 403.5 610 c 132,-1,11
 387 644 387 644 358.5 666 c 132,-1,12
 330 688 330 688 286 688 c 4,13,14
 248 688 248 688 222 669.5 c 132,-1,15
 196 651 196 651 179.5 622.5 c 132,-1,16
 163 594 163 594 155.5 559.5 c 132,-1,17
 148 525 148 525 148 493 c 4,18,19
 148 459 148 459 156.5 426.5 c 132,-1,20
 165 394 165 394 182 368.5 c 132,-1,21
 199 343 199 343 226 327 c 132,-1,22
 253 311 253 311 291 311 c 4,0,1
58 472 m 4,23,24
 58 520 58 520 74.5 564.5 c 132,-1,25
 91 609 91 609 120 644 c 132,-1,26
 149 679 149 679 190 699.5 c 132,-1,27
 231 720 231 720 282 720 c 4,28,29
 331 720 331 720 380 699 c 4,30,31
 420 682 420 682 448 654.5 c 132,-1,32
 476 627 476 627 494 593 c 132,-1,33
 512 559 512 559 520.5 519.5 c 132,-1,34
 529 480 529 480 529 439 c 4,35,36
 529 358 529 358 506 288 c 132,-1,37
 483 218 483 218 444.5 161.5 c 132,-1,38
 406 105 406 105 355 63.5 c 132,-1,39
 304 22 304 22 249 0 c 4,40,41
 238 -5 238 -5 223 -11.5 c 132,-1,42
 208 -18 208 -18 197 -19 c 4,43,44
 192 -16 192 -16 186 -10.5 c 132,-1,45
 180 -5 180 -5 180 2 c 4,46,47
 180 5 180 5 192.5 13 c 132,-1,48
 205 21 205 21 221.5 31 c 132,-1,49
 238 41 238 41 254 50.5 c 132,-1,50
 270 60 270 60 278 67 c 4,51,52
 339 120 339 120 370 187.5 c 132,-1,53
 401 255 401 255 420 341 c 5,54,55
 408 329 408 329 390 315.5 c 132,-1,56
 372 302 372 302 350.5 290.5 c 132,-1,57
 329 279 329 279 303.5 272 c 132,-1,58
 278 265 278 265 251 265 c 4,59,60
 206 265 206 265 170.5 281 c 132,-1,61
 135 297 135 297 110 324.5 c 132,-1,62
 85 352 85 352 71.5 390 c 132,-1,63
 58 428 58 428 58 472 c 4,23,24
EndSplineSet
EndChar

StartChar: colon
Encoding: 58 58 43
Width: 263
Flags: W
LayerCount: 2
Fore
SplineSet
187 406 m 0,0,1
 187 378 187 378 167 358.5 c 128,-1,2
 147 339 147 339 120 339 c 0,3,4
 116 339 116 339 115 340 c 0,5,6
 104 341 104 341 93.5 347.5 c 128,-1,7
 83 354 83 354 75.5 364 c 128,-1,8
 68 374 68 374 63 385.5 c 128,-1,9
 58 397 58 397 58 409 c 0,10,11
 58 433 58 433 76.5 452 c 128,-1,12
 95 471 95 471 119 471 c 0,13,14
 146 471 146 471 166.5 452 c 128,-1,15
 187 433 187 433 187 406 c 0,0,1
187 51 m 0,16,17
 187 24 187 24 167.5 3 c 128,-1,18
 148 -18 148 -18 121 -18 c 0,19,20
 108 -18 108 -18 96 -12 c 128,-1,21
 84 -6 84 -6 76 3.5 c 128,-1,22
 68 13 68 13 62.5 25.5 c 128,-1,23
 57 38 57 38 57 51 c 0,24,25
 57 78 57 78 76 96 c 128,-1,26
 95 114 95 114 122 114 c 0,27,28
 147 114 147 114 167 95.5 c 128,-1,29
 187 77 187 77 187 51 c 0,16,17
EndSplineSet
Validated: 1
EndChar

StartChar: semicolon
Encoding: 59 59 44
Width: 264
Flags: W
LayerCount: 2
Fore
SplineSet
196 406 m 0,0,1
 196 378 196 378 177 358.5 c 128,-1,2
 158 339 158 339 130 339 c 0,3,4
 127 339 127 339 126 340 c 0,5,6
 100 342 100 342 86.5 361.5 c 128,-1,7
 73 381 73 381 73 404 c 0,8,9
 73 433 73 433 89.5 451 c 128,-1,10
 106 469 106 469 135 469 c 0,11,12
 160 469 160 469 178 449.5 c 128,-1,13
 196 430 196 430 196 406 c 0,0,1
217 -12 m 0,14,15
 217 -50 217 -50 202 -80.5 c 128,-1,16
 187 -111 187 -111 160 -135 c 0,17,18
 155 -139 155 -139 142.5 -148 c 128,-1,19
 130 -157 130 -157 116 -166 c 128,-1,20
 102 -175 102 -175 89.5 -181.5 c 128,-1,21
 77 -188 77 -188 71 -188 c 0,22,23
 64 -188 64 -188 62 -181 c 1,24,25
 57 -179 57 -179 57 -172 c 0,26,27
 57 -171 57 -171 61 -167.5 c 128,-1,28
 65 -164 65 -164 69 -160.5 c 128,-1,29
 73 -157 73 -157 77 -154 c 128,-1,30
 81 -151 81 -151 83 -150 c 0,31,32
 98 -140 98 -140 111 -129.5 c 128,-1,33
 124 -119 124 -119 133 -107 c 128,-1,34
 142 -95 142 -95 147.5 -80.5 c 128,-1,35
 153 -66 153 -66 153 -45 c 0,36,37
 153 -27 153 -27 145 -18 c 128,-1,38
 137 -9 137 -9 125.5 -4.5 c 128,-1,39
 114 0 114 0 100.5 3 c 128,-1,40
 87 6 87 6 76 13 c 0,41,42
 52 27 52 27 52 52 c 0,43,44
 52 80 52 80 75.5 95.5 c 128,-1,45
 99 111 99 111 124 111 c 256,46,47
 149 111 149 111 166 99.5 c 128,-1,48
 183 88 183 88 195 70 c 128,-1,49
 207 52 207 52 212 31 c 128,-1,50
 217 10 217 10 217 -12 c 0,14,15
EndSplineSet
Validated: 1
EndChar

StartChar: less
Encoding: 60 60 45
Width: 468
Flags: W
LayerCount: 2
Fore
SplineSet
136 230 m 1,0,1
 185 192 185 192 220 165.5 c 128,-1,2
 255 139 255 139 286.5 116.5 c 128,-1,3
 318 94 318 94 351.5 71 c 128,-1,4
 385 48 385 48 431 16 c 1,5,6
 431 7 431 7 429.5 3 c 128,-1,7
 428 -1 428 -1 426 -4.5 c 128,-1,8
 424 -8 424 -8 422.5 -12 c 128,-1,9
 421 -16 421 -16 421 -26 c 1,10,11
 362 5 362 5 320.5 29 c 128,-1,12
 279 53 279 53 239.5 77.5 c 128,-1,13
 200 102 200 102 156.5 130.5 c 128,-1,14
 113 159 113 159 50 198 c 1,15,-1
 50 261 l 1,16,17
 93 286 93 286 125.5 306 c 128,-1,18
 158 326 158 326 184.5 343.5 c 128,-1,19
 211 361 211 361 235 378 c 128,-1,20
 259 395 259 395 285 412 c 128,-1,21
 311 429 311 429 342.5 448 c 128,-1,22
 374 467 374 467 416 489 c 1,23,24
 416 480 416 480 417 476 c 128,-1,25
 418 472 418 472 419 469 c 128,-1,26
 420 466 420 466 421 462.5 c 128,-1,27
 422 459 422 459 422 450 c 1,28,29
 375 415 375 415 338.5 387 c 128,-1,30
 302 359 302 359 270 333.5 c 128,-1,31
 238 308 238 308 206 283.5 c 128,-1,32
 174 259 174 259 136 230 c 1,0,1
EndSplineSet
Validated: 1
EndChar

StartChar: equal
Encoding: 61 61 46
Width: 524
Flags: W
LayerCount: 2
Fore
SplineSet
463 340 m 1,0,1
 463 332 463 332 462.5 322 c 128,-1,2
 462 312 462 312 457 306 c 1,3,4
 446 307 446 307 432 307 c 0,5,6
 420 307 420 307 404 307 c 2,7,-1
 328 307 l 2,8,9
 282 307 282 307 217 306.5 c 128,-1,10
 152 306 152 306 61 306 c 1,11,12
 50 323 50 323 49 336 c 128,-1,13
 48 349 48 349 61 372 c 1,14,15
 155 372 155 372 241 371 c 128,-1,16
 327 370 327 370 389 370 c 2,17,-1
 461 370 l 1,18,19
 463 360 463 360 463 354 c 2,20,-1
 463 340 l 1,21,-1
 463 340 l 1,0,1
57 208 m 1,22,23
 79 208 79 208 106.5 208.5 c 128,-1,24
 134 209 134 209 180 209 c 2,25,-1
 458 209 l 1,26,27
 471 191 471 191 468.5 176 c 128,-1,28
 466 161 466 161 458 143 c 1,29,30
 436 142 436 142 412 142 c 256,31,32
 387 142 387 142 358 142 c 2,33,-1
 247 142 l 2,34,35
 192 142 192 142 141 142.5 c 128,-1,36
 90 143 90 143 56 144 c 1,37,38
 56 153 56 153 53.5 160.5 c 128,-1,39
 51 168 51 168 51 177 c 0,40,41
 51 183 51 183 53.5 192.5 c 128,-1,42
 56 202 56 202 57 208 c 1,22,23
EndSplineSet
Validated: 37
EndChar

StartChar: greater
Encoding: 62 62 47
Width: 468
Flags: W
LayerCount: 2
Fore
SplineSet
343 230 m 1,0,1
 304 259 304 259 273 283.5 c 128,-1,2
 242 308 242 308 209.5 333 c 128,-1,3
 177 358 177 358 140.5 386.5 c 128,-1,4
 104 415 104 415 57 450 c 1,5,6
 57 459 57 459 58 462.5 c 128,-1,7
 59 466 59 466 60 469 c 128,-1,8
 61 472 61 472 62 476 c 128,-1,9
 63 480 63 480 63 489 c 1,10,11
 125 455 125 455 166.5 429 c 128,-1,12
 208 403 208 403 244.5 378 c 128,-1,13
 281 353 281 353 323 325.5 c 128,-1,14
 365 298 365 298 429 261 c 1,15,-1
 429 198 l 1,16,17
 387 172 387 172 354.5 151 c 128,-1,18
 322 130 322 130 293.5 112 c 128,-1,19
 265 94 265 94 239.5 78 c 128,-1,20
 214 62 214 62 187 46 c 128,-1,21
 160 30 160 30 128.5 12.5 c 128,-1,22
 97 -5 97 -5 58 -26 c 1,23,24
 58 -17 58 -17 56.5 -12.5 c 128,-1,25
 55 -8 55 -8 53 -4.5 c 128,-1,26
 51 -1 51 -1 49.5 3 c 128,-1,27
 48 7 48 7 48 16 c 1,28,29
 94 48 94 48 128 72.5 c 128,-1,30
 162 97 162 97 193.5 120 c 128,-1,31
 225 143 225 143 260 169 c 128,-1,32
 295 195 295 195 343 230 c 1,0,1
EndSplineSet
Validated: 1
EndChar

StartChar: question
Encoding: 63 63 48
Width: 367
Flags: W
LayerCount: 2
Fore
SplineSet
174 40 m 0,0,1
 174 14 174 14 154 -3 c 128,-1,2
 134 -20 134 -20 109 -15 c 0,3,4
 85 -13 85 -13 72 4.5 c 128,-1,5
 59 22 59 22 59 44 c 0,6,7
 59 70 59 70 74.5 86.5 c 128,-1,8
 90 103 90 103 117 103 c 0,9,10
 143 103 143 103 158.5 83.5 c 128,-1,11
 174 64 174 64 174 40 c 0,0,1
328 479 m 0,12,13
 328 440 328 440 314.5 413.5 c 128,-1,14
 301 387 301 387 281 368 c 128,-1,15
 261 349 261 349 237 336 c 128,-1,16
 213 323 213 323 191 311 c 128,-1,17
 169 299 169 299 152.5 286 c 128,-1,18
 136 273 136 273 131 255 c 0,19,20
 127 252 127 252 127 239 c 2,21,-1
 127 212 l 2,22,23
 127 199 127 199 123.5 187 c 128,-1,24
 120 175 120 175 109 174 c 0,25,26
 96 177 96 177 94 190 c 0,27,28
 93 194 93 194 92.5 199 c 128,-1,29
 92 204 92 204 92 210 c 2,30,-1
 92 237 l 2,31,32
 92 251 92 251 92.5 263 c 128,-1,33
 93 275 93 275 93 284 c 0,34,35
 93 303 93 303 92 317 c 128,-1,36
 91 331 91 331 91.5 341 c 128,-1,37
 92 351 92 351 94.5 358 c 128,-1,38
 97 365 97 365 104 370 c 0,39,40
 132 381 132 381 160.5 395 c 128,-1,41
 189 409 189 409 213.5 427.5 c 128,-1,42
 238 446 238 446 252.5 472 c 128,-1,43
 267 498 267 498 267 534 c 0,44,45
 267 559 267 559 258.5 582 c 128,-1,46
 250 605 250 605 234.5 624 c 128,-1,47
 219 643 219 643 197.5 655 c 128,-1,48
 176 667 176 667 151 667 c 0,49,50
 134 667 134 667 116 660.5 c 128,-1,51
 98 654 98 654 81 654 c 256,52,53
 64 654 64 654 51 665 c 128,-1,54
 38 676 38 676 38 693 c 0,55,56
 38 708 38 708 44 717.5 c 128,-1,57
 50 727 50 727 60.5 732.5 c 128,-1,58
 71 738 71 738 83 739.5 c 128,-1,59
 95 741 95 741 108 741 c 0,60,61
 151 741 151 741 190.5 715 c 128,-1,62
 230 689 230 689 261 650 c 128,-1,63
 292 611 292 611 310 565 c 128,-1,64
 328 519 328 519 328 479 c 0,12,13
EndSplineSet
Validated: 33
EndChar

StartChar: at
Encoding: 64 64 49
Width: 898
Flags: W
LayerCount: 2
Fore
SplineSet
512 93 m 0,0,1
 518 100 518 100 527 113.5 c 128,-1,2
 536 127 536 127 539 138 c 2,3,-1
 541 174 l 1,4,-1
 541 203 l 2,5,6
 541 211 541 211 540.5 218 c 128,-1,7
 540 225 540 225 539 230 c 1,8,9
 530 228 530 228 517.5 224.5 c 128,-1,10
 505 221 505 221 492 216.5 c 128,-1,11
 479 212 479 212 467.5 207.5 c 128,-1,12
 456 203 456 203 446 200 c 0,13,14
 418 190 418 190 395.5 170.5 c 128,-1,15
 373 151 373 151 373 119 c 0,16,17
 373 90 373 90 386 73 c 128,-1,18
 399 56 399 56 432 56 c 0,19,20
 454 56 454 56 476 67 c 128,-1,21
 498 78 498 78 512 93 c 0,0,1
535 81 m 1,22,23
 524 66 524 66 506.5 51.5 c 128,-1,24
 489 37 489 37 469 25 c 128,-1,25
 449 13 449 13 426.5 6.5 c 128,-1,26
 404 0 404 0 384 0 c 0,27,28
 332 0 332 0 311 28.5 c 128,-1,29
 290 57 290 57 290 103 c 0,30,31
 290 126 290 126 301.5 145 c 128,-1,32
 313 164 313 164 331 179.5 c 128,-1,33
 349 195 349 195 370 206 c 128,-1,34
 391 217 391 217 410 224 c 0,35,36
 446 237 446 237 475 247 c 128,-1,37
 504 257 504 257 541 266 c 1,38,-1
 541 341 l 2,39,40
 541 384 541 384 525 410.5 c 128,-1,41
 509 437 509 437 463 437 c 0,42,43
 432 437 432 437 413.5 427.5 c 128,-1,44
 395 418 395 418 384.5 404.5 c 128,-1,45
 374 391 374 391 370 378 c 128,-1,46
 366 365 366 365 364 357 c 0,47,48
 359 341 359 341 342.5 329 c 128,-1,49
 326 317 326 317 306 317 c 0,50,51
 295 317 295 317 293 327 c 128,-1,52
 291 337 291 337 291 345 c 0,53,54
 291 370 291 370 311.5 395 c 128,-1,55
 332 420 332 420 361.5 441 c 128,-1,56
 391 462 391 462 426 475 c 128,-1,57
 461 488 461 488 489 488 c 0,58,59
 496 488 496 488 507 486.5 c 128,-1,60
 518 485 518 485 529.5 483 c 128,-1,61
 541 481 541 481 551 478 c 128,-1,62
 561 475 561 475 567 472 c 0,63,64
 601 455 601 455 609 426.5 c 128,-1,65
 617 398 617 398 617 364 c 0,66,67
 617 321 617 321 616 278.5 c 128,-1,68
 615 236 615 236 615 193 c 2,69,-1
 615 163 l 2,70,71
 615 139 615 139 616.5 115 c 128,-1,72
 618 91 618 91 624 83 c 0,73,74
 628 76 628 76 636 73.5 c 128,-1,75
 644 71 644 71 652 71 c 0,76,77
 683 71 683 71 707 95.5 c 128,-1,78
 731 120 731 120 748 154.5 c 128,-1,79
 765 189 765 189 773.5 226 c 128,-1,80
 782 263 782 263 782 288 c 0,81,82
 782 353 782 353 757 407 c 128,-1,83
 732 461 732 461 689 500 c 128,-1,84
 646 539 646 539 590 560.5 c 128,-1,85
 534 582 534 582 471 582 c 0,86,87
 395 582 395 582 334 552.5 c 128,-1,88
 273 523 273 523 230 474 c 128,-1,89
 187 425 187 425 164 359.5 c 128,-1,90
 141 294 141 294 141 222 c 0,91,92
 141 151 141 151 163.5 93 c 128,-1,93
 186 35 186 35 227 -11 c 0,94,95
 274 -61 274 -61 337 -89 c 128,-1,96
 400 -117 400 -117 477 -117 c 0,97,98
 506 -117 506 -117 540 -111 c 128,-1,99
 574 -105 574 -105 607.5 -93.5 c 128,-1,100
 641 -82 641 -82 670.5 -65 c 128,-1,101
 700 -48 700 -48 720 -26 c 1,102,103
 731 -29 731 -29 743 -32 c 128,-1,104
 755 -35 755 -35 766 -37 c 1,105,106
 707 -102 707 -102 632 -135 c 128,-1,107
 557 -168 557 -168 470 -168 c 0,108,109
 407 -168 407 -168 347.5 -150 c 128,-1,110
 288 -132 288 -132 237 -98.5 c 128,-1,111
 186 -65 186 -65 147 -17 c 128,-1,112
 108 31 108 31 85 91 c 0,113,114
 72 126 72 126 66.5 163 c 128,-1,115
 61 200 61 200 61 237 c 0,116,117
 61 317 61 317 94.5 390 c 128,-1,118
 128 463 128 463 186 518 c 256,119,120
 244 573 244 573 317.5 600.5 c 128,-1,121
 391 628 391 628 471 628 c 0,122,123
 521 628 521 628 572 615 c 128,-1,124
 623 602 623 602 667.5 576.5 c 128,-1,125
 712 551 712 551 748 514 c 128,-1,126
 784 477 784 477 806 429 c 0,127,128
 820 397 820 397 828.5 364 c 128,-1,129
 837 331 837 331 837 296 c 0,130,131
 837 251 837 251 823 204.5 c 128,-1,132
 809 158 809 158 784 117.5 c 128,-1,133
 759 77 759 77 722 47.5 c 128,-1,134
 685 18 685 18 639 9 c 0,135,136
 634 8 634 8 628 7.5 c 128,-1,137
 622 7 622 7 616 7 c 0,138,139
 582 7 582 7 563 28.5 c 128,-1,140
 544 50 544 50 536 81 c 1,141,-1
 535 81 l 1,22,23
EndSplineSet
Validated: 1
EndChar

StartChar: A
Encoding: 65 65 50
Width: 796
Flags: W
LayerCount: 2
Fore
SplineSet
10 11 m 0,0,1
 10 24 10 24 18.5 28.5 c 128,-1,2
 27 33 27 33 38.5 35 c 128,-1,3
 50 37 50 37 63 41 c 128,-1,4
 76 45 76 45 85 59 c 0,5,6
 88 63 88 63 94 77 c 128,-1,7
 100 91 100 91 107 106.5 c 128,-1,8
 114 122 114 122 119.5 137 c 128,-1,9
 125 152 125 152 128 159 c 0,10,11
 150 214 150 214 172 268 c 128,-1,12
 194 322 194 322 216 377 c 0,13,14
 254 470 254 470 292 562 c 128,-1,15
 330 654 330 654 368 748 c 0,16,17
 370 754 370 754 372.5 757.5 c 128,-1,18
 375 761 375 761 383 761 c 0,19,20
 390 761 390 761 394 755.5 c 128,-1,21
 398 750 398 750 400 744 c 0,22,23
 424 686 424 686 448.5 625.5 c 128,-1,24
 473 565 473 565 497 507 c 0,25,26
 540 395 540 395 587 285.5 c 128,-1,27
 634 176 634 176 686 68 c 0,28,29
 695 49 695 49 712 42.5 c 128,-1,30
 729 36 729 36 745.5 33 c 128,-1,31
 762 30 762 30 774 26.5 c 128,-1,32
 786 23 786 23 786 9 c 0,33,34
 786 0 786 0 775.5 -3.5 c 128,-1,35
 765 -7 765 -7 755 -7 c 2,36,-1
 743 -7 l 2,37,38
 718 -7 718 -7 694 -4 c 128,-1,39
 670 -1 670 -1 645 -1 c 0,40,41
 609 -1 609 -1 574 -4 c 128,-1,42
 539 -7 539 -7 503 -7 c 0,43,44
 494 -7 494 -7 486.5 -1 c 128,-1,45
 479 5 479 5 479 14 c 0,46,47
 479 25 479 25 493.5 27.5 c 128,-1,48
 508 30 508 30 526 31 c 128,-1,49
 544 32 544 32 558 36 c 128,-1,50
 572 40 572 40 572 57 c 0,51,52
 572 60 572 60 571 64 c 128,-1,53
 570 68 570 68 569 71 c 0,54,55
 566 81 566 81 558 102 c 128,-1,56
 550 123 550 123 538.5 151.5 c 128,-1,57
 527 180 527 180 513 215 c 128,-1,58
 499 250 499 250 483 287 c 0,59,60
 478 297 478 297 474.5 305 c 128,-1,61
 471 313 471 313 469 315 c 0,62,63
 461 323 461 323 444.5 325 c 128,-1,64
 428 327 428 327 411 327 c 2,65,-1
 391 327 l 2,66,67
 379 327 379 327 359 327.5 c 128,-1,68
 339 328 339 328 317 328 c 0,69,70
 297 328 297 328 277 327 c 128,-1,71
 257 326 257 326 244 323 c 1,72,73
 226 280 226 280 210 237.5 c 128,-1,74
 194 195 194 195 182.5 160 c 128,-1,75
 171 125 171 125 164.5 101.5 c 128,-1,76
 158 78 158 78 158 73 c 0,77,78
 158 51 158 51 174 45 c 128,-1,79
 190 39 190 39 210 37 c 128,-1,80
 230 35 230 35 246.5 31.5 c 128,-1,81
 263 28 263 28 263 12 c 0,82,83
 263 4 263 4 257 -1.5 c 128,-1,84
 251 -7 251 -7 243 -7 c 0,85,86
 210 -7 210 -7 176 -3.5 c 128,-1,87
 142 0 142 0 110 0 c 0,88,89
 86 0 86 0 67 -2.5 c 128,-1,90
 48 -5 48 -5 25 -5 c 0,91,92
 18 -5 18 -5 14 0 c 128,-1,93
 10 5 10 5 10 11 c 0,0,1
366 614 m 1,94,95
 352 581 352 581 341.5 557.5 c 128,-1,96
 331 534 331 534 320.5 508 c 128,-1,97
 310 482 310 482 297 450.5 c 128,-1,98
 284 419 284 419 263 370 c 1,99,-1
 291 370 l 2,100,101
 308 370 308 370 343.5 370.5 c 128,-1,102
 379 371 379 371 443 371 c 1,103,104
 443 372 443 372 447 372.5 c 128,-1,105
 451 373 451 373 453 374 c 0,106,107
 440 410 440 410 425.5 450 c 128,-1,108
 411 490 411 490 398.5 525.5 c 128,-1,109
 386 561 386 561 377.5 585.5 c 128,-1,110
 369 610 369 610 366 614 c 1,94,95
EndSplineSet
Validated: 1
Substitution2: "'c2sc' Versalien in Kapit+AOQA-lchen in Lateinisch Nachschlagetabelle 0 Subtabelle" uni1D00
EndChar

StartChar: B
Encoding: 66 66 51
Width: 705
Flags: W
LayerCount: 2
Fore
SplineSet
501 570 m 0,0,1
 501 639 501 639 458.5 675 c 128,-1,2
 416 711 416 711 350 711 c 2,3,-1
 336 711 l 2,4,5
 325 711 325 711 311.5 710.5 c 128,-1,6
 298 710 298 710 285 706 c 128,-1,7
 272 702 272 702 263 695 c 128,-1,8
 254 688 254 688 252 675 c 0,9,10
 250 664 250 664 249.5 652 c 128,-1,11
 249 640 249 640 249 629 c 2,12,-1
 249 433 l 2,13,14
 249 428 249 428 257 422 c 128,-1,15
 265 416 265 416 283 416 c 2,16,-1
 317 416 l 2,17,18
 354 416 354 416 387.5 424 c 128,-1,19
 421 432 421 432 446 450.5 c 128,-1,20
 471 469 471 469 486 498.5 c 128,-1,21
 501 528 501 528 501 570 c 0,0,1
549 206 m 0,22,23
 549 254 549 254 526 292 c 0,24,25
 508 324 508 324 482 341.5 c 128,-1,26
 456 359 456 359 425 368.5 c 128,-1,27
 394 378 394 378 361 380 c 128,-1,28
 328 382 328 382 295 382 c 2,29,-1
 278 382 l 2,30,31
 267 382 267 382 257 377 c 128,-1,32
 247 372 247 372 247 356 c 2,33,-1
 247 147 l 2,34,35
 247 123 247 123 250.5 98 c 128,-1,36
 254 73 254 73 273 55 c 0,37,38
 289 41 289 41 316 38 c 128,-1,39
 343 35 343 35 364 35 c 0,40,41
 458 35 458 35 503.5 82.5 c 128,-1,42
 549 130 549 130 549 206 c 0,22,23
656 216 m 0,43,44
 656 159 656 159 635 117.5 c 128,-1,45
 614 76 614 76 579 49 c 128,-1,46
 544 22 544 22 497 8.5 c 128,-1,47
 450 -5 450 -5 396 -6 c 0,48,49
 391 -7 391 -7 387 -7 c 256,50,51
 383 -7 383 -7 378 -7 c 2,52,-1
 76 -7 l 2,53,54
 65 -7 65 -7 50.5 -4.5 c 128,-1,55
 36 -2 36 -2 36 13 c 0,56,57
 36 23 36 23 52 26 c 128,-1,58
 68 29 68 29 87 32 c 128,-1,59
 106 35 106 35 123.5 42 c 128,-1,60
 141 49 141 49 144 67 c 0,61,62
 145 69 145 69 146 99.5 c 128,-1,63
 147 130 147 130 147.5 178.5 c 128,-1,64
 148 227 148 227 149.5 288 c 128,-1,65
 151 349 151 349 151.5 412.5 c 128,-1,66
 152 476 152 476 152 537 c 256,67,68
 152 597 152 597 152 643 c 0,69,70
 152 662 152 662 147.5 674 c 128,-1,71
 143 686 143 686 135 692 c 128,-1,72
 127 698 127 698 114 700.5 c 128,-1,73
 101 703 101 703 84 706 c 0,74,75
 81 706 81 706 74.5 707 c 128,-1,76
 68 708 68 708 61.5 710 c 128,-1,77
 55 712 55 712 50 715 c 128,-1,78
 45 718 45 718 45 722 c 0,79,80
 45 732 45 732 57.5 736 c 128,-1,81
 70 740 70 740 87.5 741 c 128,-1,82
 105 742 105 742 124 741 c 128,-1,83
 143 740 143 740 156 740 c 0,84,85
 202 740 202 740 247.5 744.5 c 128,-1,86
 293 749 293 749 340 749 c 0,87,88
 382 749 382 749 427.5 739.5 c 128,-1,89
 473 730 473 730 511.5 709 c 128,-1,90
 550 688 550 688 574.5 653 c 128,-1,91
 599 618 599 618 599 568 c 0,92,93
 599 510 599 510 563 472.5 c 128,-1,94
 527 435 527 435 475 418 c 1,95,96
 480 414 480 414 495.5 409 c 128,-1,97
 511 404 511 404 519 401 c 0,98,99
 580 377 580 377 618 330.5 c 128,-1,100
 656 284 656 284 656 216 c 0,43,44
EndSplineSet
Validated: 33
Substitution2: "'c2sc' Versalien in Kapit+AOQA-lchen in Lateinisch Nachschlagetabelle 0 Subtabelle" uni0299
EndChar

StartChar: C
Encoding: 67 67 52
Width: 744
Flags: W
LayerCount: 2
Fore
SplineSet
682 776 m 0,0,1
 689 776 689 776 691 766 c 128,-1,2
 693 756 693 756 693 741 c 256,3,4
 693 727 693 727 691.5 711.5 c 128,-1,5
 690 696 690 696 690 685 c 0,6,7
 690 658 690 658 689 631.5 c 128,-1,8
 688 605 688 605 686 579 c 0,9,10
 684 570 684 570 681 566.5 c 128,-1,11
 678 563 678 563 674 563 c 256,12,13
 670 563 670 563 666.5 564 c 128,-1,14
 663 565 663 565 659 565 c 0,15,16
 653 565 653 565 649 574.5 c 128,-1,17
 645 584 645 584 642 596.5 c 128,-1,18
 639 609 639 609 635.5 623 c 128,-1,19
 632 637 632 637 626 647 c 0,20,21
 593 683 593 683 545.5 702 c 128,-1,22
 498 721 498 721 447 721 c 0,23,24
 376 721 376 721 326 693.5 c 128,-1,25
 276 666 276 666 244.5 619.5 c 128,-1,26
 213 573 213 573 198 512.5 c 128,-1,27
 183 452 183 452 183 386 c 0,28,29
 183 315 183 315 198 248.5 c 128,-1,30
 213 182 213 182 246 130.5 c 128,-1,31
 279 79 279 79 331 47 c 128,-1,32
 383 15 383 15 458 15 c 0,33,34
 483 15 483 15 509.5 21 c 128,-1,35
 536 27 536 27 561 37.5 c 128,-1,36
 586 48 586 48 608 63.5 c 128,-1,37
 630 79 630 79 646 99 c 0,38,39
 651 106 651 106 658 118.5 c 128,-1,40
 665 131 665 131 672 143.5 c 128,-1,41
 679 156 679 156 685 165 c 128,-1,42
 691 174 691 174 696 174 c 0,43,44
 707 174 707 174 712 170 c 128,-1,45
 717 166 717 166 717 155 c 0,46,47
 717 147 717 147 714.5 128.5 c 128,-1,48
 712 110 712 110 707.5 90 c 128,-1,49
 703 70 703 70 698 53.5 c 128,-1,50
 693 37 693 37 688 32 c 0,51,52
 671 17 671 17 642 6 c 128,-1,53
 613 -5 613 -5 580.5 -12 c 128,-1,54
 548 -19 548 -19 513.5 -22.5 c 128,-1,55
 479 -26 479 -26 452 -26 c 0,56,57
 362 -26 362 -26 289.5 7.5 c 128,-1,58
 217 41 217 41 166.5 97.5 c 128,-1,59
 116 154 116 154 88.5 228.5 c 128,-1,60
 61 303 61 303 61 385 c 0,61,62
 61 474 61 474 89.5 543 c 128,-1,63
 118 612 118 612 167.5 660 c 128,-1,64
 217 708 217 708 286.5 732.5 c 128,-1,65
 356 757 356 757 439 757 c 0,66,67
 474 757 474 757 508.5 753 c 128,-1,68
 543 749 543 749 578 741 c 0,69,70
 586 739 586 739 596.5 735.5 c 128,-1,71
 607 732 607 732 618 729 c 0,72,73
 625 723 625 723 630.5 729.5 c 128,-1,74
 636 736 636 736 642 746.5 c 128,-1,75
 648 757 648 757 657.5 766.5 c 128,-1,76
 667 776 667 776 682 776 c 0,0,1
EndSplineSet
Validated: 1
Substitution2: "'c2sc' Versalien in Kapit+AOQA-lchen in Lateinisch Nachschlagetabelle 0 Subtabelle" uni1D04
EndChar

StartChar: D
Encoding: 68 68 53
Width: 852
Flags: W
LayerCount: 2
Fore
SplineSet
675 368 m 0,0,1
 675 492 675 492 612 579.5 c 128,-1,2
 549 667 549 667 428 702 c 0,3,4
 406 708 406 708 383.5 713 c 128,-1,5
 361 718 361 718 338 718 c 2,6,-1
 309 718 l 1,7,8
 310 718 310 718 303.5 717.5 c 128,-1,9
 297 717 297 717 288 714 c 128,-1,10
 279 711 279 711 269 704 c 128,-1,11
 259 697 259 697 254 685 c 0,12,13
 251 675 251 675 250 665 c 128,-1,14
 249 655 249 655 249 645 c 0,15,16
 249 618 249 618 249.5 590.5 c 128,-1,17
 250 563 250 563 250 537 c 0,18,19
 250 447 250 447 249 358 c 128,-1,20
 248 269 248 269 248 179 c 0,21,22
 248 134 248 134 253.5 104.5 c 128,-1,23
 259 75 259 75 272 57.5 c 128,-1,24
 285 40 285 40 304.5 33 c 128,-1,25
 324 26 324 26 351 26 c 0,26,27
 423 26 423 26 483 52.5 c 128,-1,28
 543 79 543 79 585.5 125.5 c 128,-1,29
 628 172 628 172 651.5 234.5 c 128,-1,30
 675 297 675 297 675 368 c 0,0,1
792 360 m 0,31,32
 792 272 792 272 755 203.5 c 128,-1,33
 718 135 718 135 657.5 88 c 128,-1,34
 597 41 597 41 519 16.5 c 128,-1,35
 441 -8 441 -8 360 -8 c 0,36,37
 335 -8 335 -8 319.5 -7 c 128,-1,38
 304 -6 304 -6 289.5 -5 c 128,-1,39
 275 -4 275 -4 259.5 -3 c 128,-1,40
 244 -2 244 -2 219 -2 c 0,41,42
 176 -2 176 -2 136.5 -4.5 c 128,-1,43
 97 -7 97 -7 54 -7 c 0,44,45
 45 -7 45 -7 45 2 c 0,46,47
 45 12 45 12 50.5 17.5 c 128,-1,48
 56 23 56 23 64 26 c 128,-1,49
 72 29 72 29 80.5 30 c 128,-1,50
 89 31 89 31 96 33 c 0,51,52
 129 40 129 40 136.5 55 c 128,-1,53
 144 70 144 70 146 100 c 0,54,55
 147 110 147 110 147.5 123.5 c 128,-1,56
 148 137 148 137 149 160 c 128,-1,57
 150 183 150 183 150.5 220 c 128,-1,58
 151 257 151 257 151 316 c 2,59,-1
 151 555 l 2,60,61
 151 571 151 571 150.5 590.5 c 128,-1,62
 150 610 150 610 148.5 628 c 128,-1,63
 147 646 147 646 145.5 660 c 128,-1,64
 144 674 144 674 142 679 c 0,65,66
 135 694 135 694 120 697.5 c 128,-1,67
 105 701 105 701 90 701 c 0,68,69
 82 701 82 701 74 700.5 c 128,-1,70
 66 700 66 700 57 700 c 0,71,72
 48 700 48 700 40 706 c 0,73,74
 35 710 35 710 36.5 718 c 128,-1,75
 38 726 38 726 42 730 c 256,76,77
 46 734 46 734 66.5 737.5 c 128,-1,78
 87 741 87 741 116 743.5 c 128,-1,79
 145 746 145 746 178.5 748 c 128,-1,80
 212 750 212 750 243 751 c 128,-1,81
 274 752 274 752 299 752.5 c 128,-1,82
 324 753 324 753 334 753 c 0,83,84
 436 753 436 753 520.5 726 c 128,-1,85
 605 699 605 699 665.5 648.5 c 128,-1,86
 726 598 726 598 759 525 c 128,-1,87
 792 452 792 452 792 360 c 0,31,32
EndSplineSet
Validated: 1
Substitution2: "'c2sc' Versalien in Kapit+AOQA-lchen in Lateinisch Nachschlagetabelle 0 Subtabelle" uni1D05
EndChar

StartChar: E
Encoding: 69 69 54
Width: 687
Flags: W
LayerCount: 2
Fore
SplineSet
574 582 m 0,0,1
 564 582 564 582 558 594.5 c 128,-1,2
 552 607 552 607 546 624.5 c 128,-1,3
 540 642 540 642 532 659 c 128,-1,4
 524 676 524 676 510 684 c 0,5,6
 501 689 501 689 483.5 692.5 c 128,-1,7
 466 696 466 696 444.5 698 c 128,-1,8
 423 700 423 700 400 700.5 c 128,-1,9
 377 701 377 701 356 701 c 2,10,-1
 311 701 l 2,11,12
 287 701 287 701 275 691.5 c 128,-1,13
 263 682 263 682 257.5 666.5 c 128,-1,14
 252 651 252 651 251 632 c 128,-1,15
 250 613 250 613 250 596 c 0,16,17
 250 561 250 561 250.5 526.5 c 128,-1,18
 251 492 251 492 251 457 c 2,19,-1
 251 433 l 2,20,21
 251 420 251 420 253 412 c 0,22,23
 257 407 257 407 265 404.5 c 128,-1,24
 273 402 273 402 283 401.5 c 128,-1,25
 293 401 293 401 302 401.5 c 128,-1,26
 311 402 311 402 317 402 c 0,27,28
 345 402 345 402 373.5 402.5 c 128,-1,29
 402 403 402 403 430 408 c 0,30,31
 461 413 461 413 474 433.5 c 128,-1,32
 487 454 487 454 489 483 c 0,33,34
 492 489 492 489 496 495 c 128,-1,35
 500 501 500 501 508 501 c 0,36,37
 519 501 519 501 520 490.5 c 128,-1,38
 521 480 521 480 521 469 c 0,39,40
 521 447 521 447 520 425.5 c 128,-1,41
 519 404 519 404 519 383 c 256,42,43
 519 361 519 361 520 340 c 128,-1,44
 521 319 521 319 521 298 c 0,45,46
 521 293 521 293 521.5 285.5 c 128,-1,47
 522 278 522 278 521 270.5 c 128,-1,48
 520 263 520 263 516.5 258.5 c 128,-1,49
 513 254 513 254 506 254 c 256,50,51
 499 254 499 254 494.5 263 c 128,-1,52
 490 272 490 272 487.5 284 c 128,-1,53
 485 296 485 296 483 307.5 c 128,-1,54
 481 319 481 319 478 325 c 0,55,56
 474 344 474 344 457 354 c 128,-1,57
 440 364 440 364 417 367.5 c 128,-1,58
 394 371 394 371 369 370.5 c 128,-1,59
 344 370 344 370 325 370 c 0,60,61
 320 370 320 370 311.5 369.5 c 128,-1,62
 303 369 303 369 294 368.5 c 128,-1,63
 285 368 285 368 276 367 c 128,-1,64
 267 366 267 366 263 365 c 0,65,66
 257 364 257 364 255 355.5 c 128,-1,67
 253 347 253 347 252 337 c 128,-1,68
 251 327 251 327 251.5 316.5 c 128,-1,69
 252 306 252 306 252 302 c 2,70,-1
 252 140 l 2,71,72
 252 129 252 129 252.5 115 c 128,-1,73
 253 101 253 101 255.5 87.5 c 128,-1,74
 258 74 258 74 263.5 62 c 128,-1,75
 269 50 269 50 281 44 c 0,76,77
 289 40 289 40 309.5 37.5 c 128,-1,78
 330 35 330 35 353 34 c 128,-1,79
 376 33 376 33 397.5 32.5 c 128,-1,80
 419 32 419 32 428 32 c 2,81,-1
 460 32 l 2,82,83
 473 32 473 32 489.5 33 c 128,-1,84
 506 34 506 34 521 35.5 c 128,-1,85
 536 37 536 37 548.5 40 c 128,-1,86
 561 43 561 43 569 48 c 0,87,88
 583 57 583 57 595.5 76.5 c 128,-1,89
 608 96 608 96 619 115.5 c 128,-1,90
 630 135 630 135 639.5 150 c 128,-1,91
 649 165 649 165 657 165 c 0,92,93
 669 165 669 165 671 156.5 c 128,-1,94
 673 148 673 148 669 140 c 0,95,96
 669 139 669 139 667 130 c 128,-1,97
 665 121 665 121 664 119 c 0,98,99
 663 116 663 116 658.5 98 c 128,-1,100
 654 80 654 80 649.5 60 c 128,-1,101
 645 40 645 40 641.5 23.5 c 128,-1,102
 638 7 638 7 638 7 c 1,103,104
 630 -5 630 -5 612 -5 c 2,105,-1
 129 -5 l 2,106,107
 115 -5 115 -5 100 -6 c 128,-1,108
 85 -7 85 -7 70 -7 c 0,109,110
 59 -7 59 -7 47.5 -6 c 128,-1,111
 36 -5 36 -5 36 10 c 0,112,113
 36 18 36 18 48.5 22.5 c 128,-1,114
 61 27 61 27 79 31 c 128,-1,115
 97 35 97 35 114.5 41.5 c 128,-1,116
 132 48 132 48 141 61 c 0,117,118
 149 73 149 73 152.5 101 c 128,-1,119
 156 129 156 129 156 162 c 0,120,121
 156 196 156 196 155 230 c 128,-1,122
 154 264 154 264 154 290 c 0,123,124
 154 373 154 373 153 455 c 128,-1,125
 152 537 152 537 152 620 c 2,126,-1
 152 638 l 2,127,128
 152 643 152 643 152 647 c 256,129,130
 152 651 152 651 151 656 c 0,131,132
 149 683 149 683 132 691.5 c 128,-1,133
 115 700 115 700 95 703 c 128,-1,134
 75 706 75 706 59 708.5 c 128,-1,135
 43 711 43 711 43 724 c 0,136,137
 43 733 43 733 51.5 736.5 c 128,-1,138
 60 740 60 740 72 741.5 c 128,-1,139
 84 743 84 743 97.5 742.5 c 128,-1,140
 111 742 111 742 120 742 c 0,141,142
 155 742 155 742 189.5 740.5 c 128,-1,143
 224 739 224 739 260 739 c 0,144,145
 331 739 331 739 399 740.5 c 128,-1,146
 467 742 467 742 538 742 c 2,147,-1
 549 742 l 2,148,149
 560 742 560 742 571.5 740 c 128,-1,150
 583 738 583 738 585 730 c 0,151,152
 589 710 589 710 589 692 c 0,153,154
 589 683 589 683 588.5 670 c 128,-1,155
 588 657 588 657 588 639 c 0,156,157
 588 619 588 619 585 601 c 128,-1,158
 582 583 582 583 574 582 c 0,0,1
EndSplineSet
Validated: 33
Substitution2: "'c2sc' Versalien in Kapit+AOQA-lchen in Lateinisch Nachschlagetabelle 0 Subtabelle" uni1D07
EndChar

StartChar: F
Encoding: 70 70 55
Width: 622
Flags: W
LayerCount: 2
Fore
SplineSet
41 720 m 0,0,1
 41 726 41 726 43 730 c 128,-1,2
 45 734 45 734 52.5 736.5 c 128,-1,3
 60 739 60 739 75 739.5 c 128,-1,4
 90 740 90 740 117 740 c 0,5,6
 142 740 142 740 163.5 739.5 c 128,-1,7
 185 739 185 739 194 739 c 2,8,-1
 352 739 l 2,9,10
 399 739 399 739 445.5 739.5 c 128,-1,11
 492 740 492 740 539 740 c 2,12,-1
 561 740 l 2,13,14
 569 740 569 740 575.5 739.5 c 128,-1,15
 582 739 582 739 584 739 c 0,16,17
 589 738 589 738 591 722.5 c 128,-1,18
 593 707 593 707 593.5 687 c 128,-1,19
 594 667 594 667 593.5 647.5 c 128,-1,20
 593 628 593 628 593 620 c 0,21,22
 593 614 593 614 593 606 c 256,23,24
 593 599 593 599 592 593 c 128,-1,25
 591 587 591 587 588 583 c 128,-1,26
 585 579 585 579 579 579 c 0,27,28
 564 579 564 579 559.5 593 c 128,-1,29
 555 607 555 607 551.5 626 c 128,-1,30
 548 645 548 645 539 664 c 128,-1,31
 530 683 530 683 508 691 c 0,32,33
 498 695 498 695 479.5 697 c 128,-1,34
 461 699 461 699 441 700.5 c 128,-1,35
 421 702 421 702 402 702.5 c 128,-1,36
 383 703 383 703 372 703 c 2,37,-1
 349 703 l 2,38,39
 329 703 329 703 305 700 c 128,-1,40
 281 697 281 697 270 691 c 0,41,42
 252 679 252 679 249.5 661 c 128,-1,43
 247 643 247 643 247 623 c 0,44,45
 247 577 247 577 247.5 530.5 c 128,-1,46
 248 484 248 484 248 438 c 0,47,48
 248 422 248 422 252.5 414.5 c 128,-1,49
 257 407 257 407 264.5 404 c 128,-1,50
 272 401 272 401 282 401.5 c 128,-1,51
 292 402 292 402 303 402 c 2,52,-1
 340 402 l 2,53,54
 357 402 357 402 376.5 402.5 c 128,-1,55
 396 403 396 403 414 406 c 128,-1,56
 432 409 432 409 446 413 c 128,-1,57
 460 417 460 417 467 424 c 0,58,59
 477 434 477 434 481.5 448.5 c 128,-1,60
 486 463 486 463 489.5 475 c 128,-1,61
 493 487 493 487 498 496 c 128,-1,62
 503 505 503 505 515 505 c 0,63,64
 522 505 522 505 523.5 495.5 c 128,-1,65
 525 486 525 486 525 481 c 0,66,67
 525 458 525 458 524 437 c 128,-1,68
 523 416 523 416 523 393 c 256,69,70
 523 370 523 370 524.5 349 c 128,-1,71
 526 328 526 328 526 305 c 0,72,73
 526 299 526 299 526.5 291.5 c 128,-1,74
 527 284 527 284 525.5 276 c 128,-1,75
 524 268 524 268 520.5 263 c 128,-1,76
 517 258 517 258 510 258 c 0,77,78
 500 258 500 258 496 272.5 c 128,-1,79
 492 287 492 287 486.5 305 c 128,-1,80
 481 323 481 323 471 340 c 128,-1,81
 461 357 461 357 438 364 c 0,82,83
 424 369 424 369 395.5 370.5 c 128,-1,84
 367 372 367 372 343 372 c 2,85,-1
 315 372 l 2,86,87
 308 372 308 372 297 372.5 c 128,-1,88
 286 373 286 373 275 371.5 c 128,-1,89
 264 370 264 370 256.5 364.5 c 128,-1,90
 249 359 249 359 249 349 c 0,91,92
 249 303 249 303 248 258 c 128,-1,93
 247 213 247 213 247 167 c 2,94,-1
 247 145 l 2,95,96
 247 135 247 135 247 122 c 0,97,98
 247 110 247 110 248 98 c 128,-1,99
 249 86 249 86 249.5 77 c 128,-1,100
 250 68 250 68 252 65 c 0,101,102
 261 46 261 46 281 39.5 c 128,-1,103
 301 33 301 33 321.5 31 c 128,-1,104
 342 29 342 29 357.5 25.5 c 128,-1,105
 373 22 373 22 373 7 c 0,106,107
 373 -2 373 -2 363 -5.5 c 128,-1,108
 353 -9 353 -9 343 -9 c 2,109,-1
 333 -9 l 2,110,111
 295 -9 295 -9 257 -5.5 c 128,-1,112
 219 -2 219 -2 181 -2 c 0,113,114
 151 -2 151 -2 123 -5.5 c 128,-1,115
 95 -9 95 -9 67 -9 c 0,116,117
 59 -9 59 -9 47.5 -7.5 c 128,-1,118
 36 -6 36 -6 36 5 c 0,119,120
 36 13 36 13 45 18 c 128,-1,121
 54 23 54 23 66.5 25 c 128,-1,122
 79 27 79 27 91.5 28.5 c 128,-1,123
 104 30 104 30 111 32 c 0,124,125
 134 36 134 36 141 56 c 0,126,127
 144 62 144 62 146 78.5 c 128,-1,128
 148 95 148 95 149.5 116 c 128,-1,129
 151 137 151 137 151.5 159 c 128,-1,130
 152 181 152 181 152 200 c 2,131,-1
 152 238 l 2,132,133
 152 340 152 340 150 439.5 c 128,-1,134
 148 539 148 539 148 641 c 0,135,136
 148 666 148 666 140 678.5 c 128,-1,137
 132 691 132 691 120.5 696.5 c 128,-1,138
 109 702 109 702 95 703.5 c 128,-1,139
 81 705 81 705 69 705.5 c 128,-1,140
 57 706 57 706 49 708.5 c 128,-1,141
 41 711 41 711 41 720 c 0,0,1
EndSplineSet
Validated: 33
Substitution2: "'c2sc' Versalien in Kapit+AOQA-lchen in Lateinisch Nachschlagetabelle 0 Subtabelle" uniA730
EndChar

StartChar: G
Encoding: 71 71 56
Width: 825
Flags: W
LayerCount: 2
Fore
SplineSet
684 757 m 0,0,1
 691 757 691 757 693 746.5 c 128,-1,2
 695 736 695 736 695 722 c 256,3,4
 695 708 695 708 693.5 692.5 c 128,-1,5
 692 677 692 677 692 666 c 0,6,7
 692 639 692 639 691 612.5 c 128,-1,8
 690 586 690 586 688 559 c 0,9,10
 686 550 686 550 683 547 c 128,-1,11
 680 544 680 544 676 544 c 256,12,13
 672 544 672 544 668.5 545 c 128,-1,14
 665 546 665 546 662 546 c 0,15,16
 656 546 656 546 651 554 c 128,-1,17
 646 562 646 562 642.5 574.5 c 128,-1,18
 639 587 639 587 636 600.5 c 128,-1,19
 633 614 633 614 629 626 c 0,20,21
 620 648 620 648 600.5 665 c 128,-1,22
 581 682 581 682 555 694.5 c 128,-1,23
 529 707 529 707 500.5 713.5 c 128,-1,24
 472 720 472 720 444 720 c 0,25,26
 368 720 368 720 318.5 691 c 128,-1,27
 269 662 269 662 239.5 613.5 c 128,-1,28
 210 565 210 565 197.5 503 c 128,-1,29
 185 441 185 441 185 377 c 0,30,31
 185 309 185 309 198.5 247 c 128,-1,32
 212 185 212 185 241.5 137.5 c 128,-1,33
 271 90 271 90 318 62 c 128,-1,34
 365 34 365 34 431 34 c 0,35,36
 499 34 499 34 536 45.5 c 128,-1,37
 573 57 573 57 590.5 79 c 128,-1,38
 608 101 608 101 611 133.5 c 128,-1,39
 614 166 614 166 614 208 c 0,40,41
 614 264 614 264 612 296 c 128,-1,42
 610 328 610 328 602 343.5 c 128,-1,43
 594 359 594 359 577.5 363 c 128,-1,44
 561 367 561 367 532 367 c 0,45,46
 519 367 519 367 508.5 369 c 128,-1,47
 498 371 498 371 498 388 c 0,48,49
 498 395 498 395 503.5 398.5 c 128,-1,50
 509 402 509 402 516.5 404 c 128,-1,51
 524 406 524 406 532 406.5 c 128,-1,52
 540 407 540 407 545 407 c 0,53,54
 576 407 576 407 596.5 404.5 c 128,-1,55
 617 402 617 402 648 402 c 0,56,57
 682 402 682 402 707 405 c 128,-1,58
 732 408 732 408 766 408 c 0,59,60
 777 408 777 408 790 405.5 c 128,-1,61
 803 403 803 403 803 389 c 0,62,63
 803 379 803 379 794 376.5 c 128,-1,64
 785 374 785 374 772 373.5 c 128,-1,65
 759 373 759 373 744.5 371 c 128,-1,66
 730 369 730 369 719 359 c 0,67,68
 715 357 715 357 712 349 c 128,-1,69
 709 341 709 341 707.5 329 c 128,-1,70
 706 317 706 317 704.5 304 c 128,-1,71
 703 291 703 291 703 280 c 2,72,-1
 703 259 l 2,73,74
 703 246 703 246 704 223.5 c 128,-1,75
 705 201 705 201 705.5 177 c 128,-1,76
 706 153 706 153 706.5 130.5 c 128,-1,77
 707 108 707 108 707 94 c 0,78,79
 707 87 707 87 706.5 77 c 128,-1,80
 706 67 706 67 700 61 c 0,81,82
 682 37 682 37 645.5 24.5 c 128,-1,83
 609 12 609 12 567.5 5.5 c 128,-1,84
 526 -1 526 -1 486.5 -2.5 c 128,-1,85
 447 -4 447 -4 424 -4 c 0,86,87
 344 -4 344 -4 277 18 c 128,-1,88
 210 40 210 40 162.5 85 c 128,-1,89
 115 130 115 130 88 198.5 c 128,-1,90
 61 267 61 267 61 359 c 0,91,92
 61 452 61 452 89.5 526 c 128,-1,93
 118 600 118 600 169 651.5 c 128,-1,94
 220 703 220 703 292 730.5 c 128,-1,95
 364 758 364 758 452 758 c 0,96,97
 496 758 496 758 544.5 745.5 c 128,-1,98
 593 733 593 733 629 710 c 0,99,100
 636 705 636 705 642 711.5 c 128,-1,101
 648 718 648 718 654 728 c 128,-1,102
 660 738 660 738 667.5 747.5 c 128,-1,103
 675 757 675 757 684 757 c 0,0,1
EndSplineSet
Validated: 1
Substitution2: "'c2sc' Versalien in Kapit+AOQA-lchen in Lateinisch Nachschlagetabelle 0 Subtabelle" uni0262
EndChar

StartChar: H
Encoding: 72 72 57
Width: 885
Flags: W
HStem: -9 35<36 125 270 357 524 617 765 848> 341 45<256 633> 706 34<52 73 86 128 263 356 543 624 753 849> 721 20G<69 98>
VStem: 151 98<45 330 387 689> 641 99<45 331 386 692>
LayerCount: 2
Fore
SplineSet
850 715 m 0,0,1
 847 709 847 709 834 707.5 c 128,-1,2
 821 706 821 706 805.5 704.5 c 128,-1,3
 790 703 790 703 775 700 c 128,-1,4
 760 697 760 697 753 688 c 0,5,6
 745 679 745 679 742 663.5 c 128,-1,7
 739 648 739 648 739 631 c 2,8,-1
 739 613 l 2,9,10
 739 484 739 484 738 357.5 c 128,-1,11
 737 231 737 231 737 102 c 0,12,13
 737 76 737 76 745.5 62.5 c 128,-1,14
 754 49 754 49 766 42.5 c 128,-1,15
 778 36 778 36 792.5 34 c 128,-1,16
 807 32 807 32 819 30 c 128,-1,17
 831 28 831 28 839.5 23.5 c 128,-1,18
 848 19 848 19 848 8 c 0,19,20
 848 -7 848 -7 837 -8 c 128,-1,21
 826 -9 826 -9 814 -9 c 0,22,23
 780 -9 780 -9 746 -6 c 128,-1,24
 712 -3 712 -3 678 -3 c 0,25,26
 645 -3 645 -3 612 -6 c 128,-1,27
 579 -9 579 -9 546 -9 c 0,28,29
 524 -9 524 -9 524 7 c 0,30,31
 524 22 524 22 535 25.5 c 128,-1,32
 546 29 546 29 561 29 c 256,33,34
 576 29 576 29 593 31.5 c 128,-1,35
 610 34 610 34 622 48 c 256,36,37
 633 62 633 62 636 83.5 c 128,-1,38
 639 105 639 105 639 123 c 2,39,-1
 639 309 l 2,40,41
 639 324 639 324 633 331 c 128,-1,42
 627 338 627 338 617.5 340 c 128,-1,43
 608 342 608 342 597.5 341.5 c 128,-1,44
 587 341 587 341 578 341 c 2,45,-1
 328 341 l 2,46,47
 316 341 316 341 301.5 341.5 c 128,-1,48
 287 342 287 342 275 339.5 c 128,-1,49
 263 337 263 337 255.5 330.5 c 128,-1,50
 248 324 248 324 248 308 c 2,51,-1
 248 108 l 2,52,53
 248 88 248 88 248.5 84 c 128,-1,54
 249 80 249 80 249 77 c 0,55,56
 252 49 252 49 269.5 40.5 c 128,-1,57
 287 32 287 32 306.5 30 c 128,-1,58
 326 28 326 28 341.5 26.5 c 128,-1,59
 357 25 357 25 357 10 c 0,60,61
 357 -5 357 -5 346.5 -6.5 c 128,-1,62
 336 -8 336 -8 323 -8 c 0,63,64
 296 -8 296 -8 268.5 -5.5 c 128,-1,65
 241 -3 241 -3 214 -3 c 2,66,-1
 174 -3 l 2,67,68
 146 -3 146 -3 119.5 -6 c 128,-1,69
 93 -9 93 -9 67 -9 c 0,70,71
 59 -9 59 -9 47.5 -8 c 128,-1,72
 36 -7 36 -7 36 4 c 0,73,74
 36 19 36 19 52 23 c 128,-1,75
 68 27 68 27 87 30 c 128,-1,76
 106 33 106 33 124 42.5 c 128,-1,77
 142 52 142 52 146 80 c 0,78,79
 149 103 149 103 150 126.5 c 128,-1,80
 151 150 151 150 151 172 c 2,81,-1
 151 622 l 2,82,83
 151 653 151 653 143 669 c 128,-1,84
 135 685 135 685 123 692.5 c 128,-1,85
 111 700 111 700 97.5 702.5 c 128,-1,86
 84 705 84 705 71.5 706.5 c 128,-1,87
 59 708 59 708 51.5 711.5 c 128,-1,88
 44 715 44 715 44 727 c 0,89,90
 44 736 44 736 53.5 738.5 c 128,-1,91
 63 741 63 741 74 741 c 2,92,-1
 85 741 l 2,93,94
 112 741 112 741 137.5 739.5 c 128,-1,95
 163 738 163 738 189 738 c 0,96,97
 226 738 226 738 263.5 739 c 128,-1,98
 301 740 301 740 338 740 c 0,99,100
 344 740 344 740 350 737 c 128,-1,101
 356 734 356 734 356 727 c 0,102,103
 356 707 356 707 340 704 c 128,-1,104
 324 701 324 701 303 701 c 0,105,106
 293 701 293 701 283.5 699 c 128,-1,107
 274 697 274 697 266.5 691.5 c 128,-1,108
 259 686 259 686 254.5 675.5 c 128,-1,109
 250 665 250 665 250 647 c 0,110,111
 250 633 250 633 249.5 618.5 c 128,-1,112
 249 604 249 604 249 590 c 2,113,-1
 249 416 l 2,114,115
 249 387 249 387 275 387 c 0,116,117
 318 387 318 387 351.5 386.5 c 128,-1,118
 385 386 385 386 417 386 c 256,119,120
 449 386 449 386 482 385.5 c 128,-1,121
 515 385 515 385 558 385 c 0,122,123
 568 385 568 385 581 384.5 c 128,-1,124
 594 384 594 384 606 384.5 c 128,-1,125
 618 385 618 385 627 387.5 c 128,-1,126
 636 390 636 390 638 396 c 0,127,128
 639 399 639 399 639.5 415 c 128,-1,129
 640 431 640 431 640 454 c 0,130,131
 640 478 640 478 640.5 503.5 c 128,-1,132
 641 529 641 529 641 553 c 2,133,-1
 641 620 l 2,134,135
 641 627 641 627 640.5 636.5 c 128,-1,136
 640 646 640 646 638.5 656 c 128,-1,137
 637 666 637 666 634 674.5 c 128,-1,138
 631 683 631 683 625 688 c 0,139,140
 619 692 619 692 609.5 694.5 c 128,-1,141
 600 697 600 697 590 698 c 128,-1,142
 580 699 580 699 571.5 700.5 c 128,-1,143
 563 702 563 702 560 706 c 0,144,145
 550 706 550 706 543.5 708 c 128,-1,146
 537 710 537 710 537 722 c 0,147,148
 537 730 537 730 541 733.5 c 128,-1,149
 545 737 545 737 552 738.5 c 128,-1,150
 559 740 559 740 566.5 739.5 c 128,-1,151
 574 739 574 739 583 739 c 0,152,153
 610 739 610 739 635 736.5 c 128,-1,154
 660 734 660 734 686 734 c 0,155,156
 718 734 718 734 749.5 736 c 128,-1,157
 781 738 781 738 813 738 c 0,158,159
 837 738 837 738 843.5 734 c 128,-1,160
 850 730 850 730 850 715 c 0,0,1
EndSplineSet
Validated: 1
Substitution2: "'c2sc' Versalien in Kapit+AOQA-lchen in Lateinisch Nachschlagetabelle 0 Subtabelle" uni029C
EndChar

StartChar: I
Encoding: 73 73 58
Width: 389
Flags: W
HStem: -9 23G<60 95 291 313> -7 29<306 350> 702 36<50 130 252 353> 710 30<40 67>
VStem: 141 98<45 687>
LayerCount: 2
Fore
SplineSet
353 723 m 0,0,1
 353 709 353 709 342.5 705.5 c 128,-1,2
 332 702 332 702 317 702 c 0,3,4
 289 702 289 702 274 698 c 128,-1,5
 259 694 259 694 252 685 c 128,-1,6
 245 676 245 676 244 662.5 c 128,-1,7
 243 649 243 649 243 631 c 0,8,9
 243 566 243 566 241.5 502.5 c 128,-1,10
 240 439 240 439 240 375 c 2,11,-1
 240 114 l 2,12,13
 240 98 240 98 242.5 77 c 128,-1,14
 245 56 245 56 257 45 c 0,15,16
 266 37 266 37 282 34 c 128,-1,17
 298 31 298 31 313 28.5 c 128,-1,18
 328 26 328 26 339 22.5 c 128,-1,19
 350 19 350 19 350 10 c 0,20,21
 350 -5 350 -5 335.5 -6.5 c 128,-1,22
 321 -8 321 -8 305 -8 c 0,23,24
 276 -8 276 -8 247.5 -5 c 128,-1,25
 219 -2 219 -2 190 -2 c 0,26,27
 159 -2 159 -2 135 -5.5 c 128,-1,28
 111 -9 111 -9 80 -9 c 2,29,-1
 66 -9 l 2,30,31
 56 -9 56 -9 46 -5.5 c 128,-1,32
 36 -2 36 -2 36 10 c 0,33,34
 36 19 36 19 46 23 c 128,-1,35
 56 27 56 27 70 29.5 c 128,-1,36
 84 32 84 32 99.5 35.5 c 128,-1,37
 115 39 115 39 125 48 c 0,38,39
 135 56 135 56 137.5 77 c 128,-1,40
 140 98 140 98 140 118 c 2,41,-1
 140 139 l 1,42,-1
 141 498 l 2,43,44
 141 525 141 525 141.5 550 c 128,-1,45
 142 575 142 575 142 601 c 2,46,-1
 142 621 l 2,47,48
 142 638 142 638 139 658.5 c 128,-1,49
 136 679 136 679 130 687 c 0,50,51
 119 698 119 698 103.5 700.5 c 128,-1,52
 88 703 88 703 73.5 704.5 c 128,-1,53
 59 706 59 706 49.5 710 c 128,-1,54
 40 714 40 714 40 728 c 0,55,56
 40 738 40 738 49.5 739.5 c 128,-1,57
 59 741 59 741 68 741 c 2,58,-1
 79 741 l 2,59,60
 109 741 109 741 139 738 c 128,-1,61
 169 735 169 735 199 735 c 0,62,63
 213 735 213 735 228.5 736.5 c 128,-1,64
 244 738 244 738 258 738 c 2,65,-1
 347 738 l 2,66,67
 349 736 349 736 351 731 c 128,-1,68
 353 726 353 726 353 723 c 0,0,1
EndSplineSet
Validated: 1
Substitution2: "'c2sc' Versalien in Kapit+AOQA-lchen in Lateinisch Nachschlagetabelle 0 Subtabelle" uni026A
EndChar

StartChar: J
Encoding: 74 74 59
Width: 365
Flags: W
LayerCount: 2
Fore
SplineSet
343 721 m 0,0,1
 343 716 343 716 337.5 711.5 c 128,-1,2
 332 707 332 707 311 705 c 0,3,4
 268 706 268 706 253 687.5 c 128,-1,5
 238 669 238 669 238 626 c 0,6,7
 238 615 238 615 238.5 604 c 128,-1,8
 239 593 239 593 239 582 c 0,9,10
 239 464 239 464 238.5 348.5 c 128,-1,11
 238 233 238 233 238 116 c 0,12,13
 238 59 238 59 228 -1 c 128,-1,14
 218 -61 218 -61 194 -113 c 128,-1,15
 170 -165 170 -165 128 -203 c 128,-1,16
 86 -241 86 -241 22 -255 c 0,17,18
 16 -256 16 -256 12 -251 c 128,-1,19
 8 -246 8 -246 8 -239 c 256,20,21
 8 -232 8 -232 11 -225 c 128,-1,22
 14 -218 14 -218 22 -217 c 0,23,24
 51 -214 51 -214 70 -192.5 c 128,-1,25
 89 -171 89 -171 102 -139.5 c 128,-1,26
 115 -108 115 -108 121.5 -70 c 128,-1,27
 128 -32 128 -32 131 5 c 128,-1,28
 134 42 134 42 135 72.5 c 128,-1,29
 136 103 136 103 137 121 c 0,30,31
 138 182 138 182 138.5 243.5 c 128,-1,32
 139 305 139 305 139 367 c 2,33,-1
 139 616 l 2,34,35
 139 640 139 640 136 665 c 0,36,37
 134 689 134 689 116 694.5 c 128,-1,38
 98 700 98 700 77 701 c 128,-1,39
 56 702 56 702 39 705 c 128,-1,40
 22 708 22 708 22 724 c 0,41,42
 22 732 22 732 28.5 736 c 128,-1,43
 35 740 35 740 42 740 c 0,44,45
 89 740 89 740 135.5 737 c 128,-1,46
 182 734 182 734 229 734 c 0,47,48
 252 734 252 734 274.5 736.5 c 128,-1,49
 297 739 297 739 319 739 c 0,50,51
 327 739 327 739 335 735 c 128,-1,52
 343 731 343 731 343 721 c 0,0,1
EndSplineSet
Validated: 33
Substitution2: "'c2sc' Versalien in Kapit+AOQA-lchen in Lateinisch Nachschlagetabelle 0 Subtabelle" uni1D0A
EndChar

StartChar: K
Encoding: 75 75 60
Width: 819
Flags: W
LayerCount: 2
Fore
SplineSet
225 735 m 2,0,1
 249 735 249 735 271.5 737.5 c 128,-1,2
 294 740 294 740 317 740 c 2,3,-1
 327 740 l 2,4,5
 335 740 335 740 344 737 c 128,-1,6
 353 734 353 734 353 728 c 0,7,8
 351 724 351 724 350 718.5 c 128,-1,9
 349 713 349 713 347 710 c 0,10,11
 342 702 342 702 326 703.5 c 128,-1,12
 310 705 310 705 293 702.5 c 128,-1,13
 276 700 276 700 263.5 688 c 128,-1,14
 251 676 251 676 251 639 c 2,15,-1
 251 585 l 2,16,17
 251 560 251 560 251.5 537 c 128,-1,18
 252 514 252 514 252 489 c 2,19,-1
 252 435 l 2,20,21
 252 433 252 433 250.5 426.5 c 128,-1,22
 249 420 249 420 251 419 c 0,23,24
 262 419 262 419 273.5 425 c 128,-1,25
 285 431 285 431 295 439 c 128,-1,26
 305 447 305 447 313.5 455.5 c 128,-1,27
 322 464 322 464 327 469 c 0,28,29
 334 476 334 476 353 493.5 c 128,-1,30
 372 511 372 511 395.5 533 c 128,-1,31
 419 555 419 555 445 579.5 c 128,-1,32
 471 604 471 604 492.5 626 c 128,-1,33
 514 648 514 648 528 664.5 c 128,-1,34
 542 681 542 681 542 687 c 0,35,36
 542 697 542 697 527.5 699 c 128,-1,37
 513 701 513 701 496 701.5 c 128,-1,38
 479 702 479 702 465 704.5 c 128,-1,39
 451 707 451 707 451 717 c 2,40,-1
 451 725 l 1,41,42
 456 738 456 738 471 738.5 c 128,-1,43
 486 739 486 739 501 739 c 0,44,45
 529 739 529 739 557 737.5 c 128,-1,46
 585 736 585 736 613 736 c 0,47,48
 639 736 639 736 664 737.5 c 128,-1,49
 689 739 689 739 715 739 c 0,50,51
 723 739 723 739 730 735 c 128,-1,52
 737 731 737 731 737 722 c 0,53,54
 737 711 737 711 726 706.5 c 128,-1,55
 715 702 715 702 698.5 700 c 128,-1,56
 682 698 682 698 664 695.5 c 128,-1,57
 646 693 646 693 633 686 c 0,58,59
 625 682 625 682 602 663.5 c 128,-1,60
 579 645 579 645 549 620 c 128,-1,61
 519 595 519 595 486.5 566 c 128,-1,62
 454 537 454 537 426 511 c 128,-1,63
 398 485 398 485 379 467 c 128,-1,64
 360 449 360 449 358 443 c 0,65,66
 360 438 360 438 378 417.5 c 128,-1,67
 396 397 396 397 421 369 c 128,-1,68
 446 341 446 341 476 308.5 c 128,-1,69
 506 276 506 276 532.5 247.5 c 128,-1,70
 559 219 559 219 579.5 197 c 128,-1,71
 600 175 600 175 607 168 c 0,72,73
 624 149 624 149 643 126.5 c 128,-1,74
 662 104 662 104 681.5 85 c 128,-1,75
 701 66 701 66 723 51 c 128,-1,76
 745 36 745 36 771 30 c 0,77,78
 784 28 784 28 796.5 24 c 128,-1,79
 809 20 809 20 808 4 c 0,80,81
 807 -4 807 -4 797 -5.5 c 128,-1,82
 787 -7 787 -7 781 -7 c 0,83,84
 748 -7 748 -7 716.5 -4.5 c 128,-1,85
 685 -2 685 -2 652 -2 c 0,86,87
 613 -2 613 -2 573.5 -4.5 c 128,-1,88
 534 -7 534 -7 495 -7 c 0,89,90
 485 -7 485 -7 478.5 -4.5 c 128,-1,91
 472 -2 472 -2 472 10 c 0,92,93
 472 20 472 20 483 25.5 c 128,-1,94
 494 31 494 31 508 33 c 128,-1,95
 522 35 522 35 535.5 34.5 c 128,-1,96
 549 34 549 34 554 34 c 0,97,98
 562 34 562 34 570 37 c 128,-1,99
 578 40 578 40 569 52 c 0,100,101
 568 54 568 54 563 61 c 128,-1,102
 558 68 558 68 552 76 c 128,-1,103
 546 84 546 84 540.5 91 c 128,-1,104
 535 98 535 98 532 101 c 0,105,106
 521 114 521 114 501 138 c 128,-1,107
 481 162 481 162 456.5 190.5 c 128,-1,108
 432 219 432 219 405.5 249 c 128,-1,109
 379 279 379 279 354 305 c 128,-1,110
 329 331 329 331 308.5 350 c 128,-1,111
 288 369 288 369 275 375 c 1,112,113
 264 376 264 376 258.5 378 c 128,-1,114
 253 380 253 380 251 372 c 0,115,116
 250 367 250 367 249.5 354 c 128,-1,117
 249 341 249 341 249 327 c 2,118,-1
 249 281 l 2,119,120
 249 243 249 243 248.5 206 c 128,-1,121
 248 169 248 169 248 131 c 0,122,123
 248 116 248 116 249.5 97.5 c 128,-1,124
 251 79 251 79 256.5 63.5 c 128,-1,125
 262 48 262 48 274.5 39 c 128,-1,126
 287 30 287 30 308 32 c 0,127,128
 312 29 312 29 321 29.5 c 128,-1,129
 330 30 330 30 339 29.5 c 128,-1,130
 348 29 348 29 354.5 26.5 c 128,-1,131
 361 24 361 24 361 14 c 0,132,133
 361 3 361 3 352 -1.5 c 128,-1,134
 343 -6 343 -6 333 -6 c 2,135,-1
 319 -6 l 2,136,137
 297 -6 297 -6 276.5 -3.5 c 128,-1,138
 256 -1 256 -1 234 -1 c 0,139,140
 191 -1 191 -1 151.5 -4 c 128,-1,141
 112 -7 112 -7 69 -7 c 0,142,143
 60 -7 60 -7 48 -5 c 128,-1,144
 36 -3 36 -3 36 8 c 0,145,146
 36 20 36 20 46 25 c 128,-1,147
 56 30 56 30 70 31.5 c 128,-1,148
 84 33 84 33 98.5 33.5 c 128,-1,149
 113 34 113 34 121 38 c 0,150,151
 130 42 130 42 135.5 51.5 c 128,-1,152
 141 61 141 61 144 72.5 c 128,-1,153
 147 84 147 84 148.5 96 c 128,-1,154
 150 108 150 108 150 117 c 0,155,156
 150 219 150 219 151.5 320 c 128,-1,157
 153 421 153 421 153 523 c 2,158,-1
 153 648 l 2,159,160
 153 664 153 664 148 681 c 128,-1,161
 143 698 143 698 124 701 c 0,162,163
 114 703 114 703 101 702.5 c 128,-1,164
 88 702 88 702 76.5 704 c 128,-1,165
 65 706 65 706 57 711 c 128,-1,166
 49 716 49 716 49 728 c 0,167,168
 49 736 49 736 59 738.5 c 128,-1,169
 69 741 69 741 78 741 c 2,170,-1
 89 741 l 2,171,172
 116 741 116 741 141.5 738 c 128,-1,173
 167 735 167 735 194 735 c 2,174,-1
 225 735 l 2,0,1
EndSplineSet
Validated: 33
Substitution2: "'c2sc' Versalien in Kapit+AOQA-lchen in Lateinisch Nachschlagetabelle 0 Subtabelle" uni1D0B
EndChar

StartChar: L
Encoding: 76 76 61
Width: 642
Flags: W
HStem: -9 34<36 127> 706 33<37 71 302 371> 721 20G<66 90>
VStem: 153 98<64 689>
LayerCount: 2
Fore
SplineSet
212 734 m 0,0,1
 250 734 250 734 284 736 c 128,-1,2
 318 738 318 738 361 738 c 1,3,4
 370 730 370 730 371 722 c 0,5,6
 371 710 371 710 359 706 c 128,-1,7
 347 702 347 702 330.5 700.5 c 128,-1,8
 314 699 314 699 298 697.5 c 128,-1,9
 282 696 282 696 271 688 c 0,10,11
 264 682 264 682 260.5 672 c 128,-1,12
 257 662 257 662 255.5 650.5 c 128,-1,13
 254 639 254 639 253.5 627.5 c 128,-1,14
 253 616 253 616 253 608 c 0,15,16
 253 515 253 515 252 425.5 c 128,-1,17
 251 336 251 336 251 243 c 2,18,-1
 251 204 l 2,19,20
 251 186 251 186 251.5 163.5 c 128,-1,21
 252 141 252 141 254 121 c 128,-1,22
 256 101 256 101 260 85.5 c 128,-1,23
 264 70 264 70 271 63 c 0,24,25
 297 44 297 44 330.5 40 c 128,-1,26
 364 36 364 36 395.5 40.5 c 128,-1,27
 427 45 427 45 452.5 54 c 128,-1,28
 478 63 478 63 487 70 c 0,29,30
 503 79 503 79 521.5 102 c 128,-1,31
 540 125 540 125 555 150 c 128,-1,32
 570 175 570 175 581.5 195 c 128,-1,33
 593 215 593 215 596 218 c 0,34,35
 605 225 605 225 616.5 222.5 c 128,-1,36
 628 220 628 220 632 211 c 1,37,38
 606 170 606 170 592 129.5 c 128,-1,39
 578 89 578 89 569.5 57 c 128,-1,40
 561 25 561 25 555.5 5 c 128,-1,41
 550 -15 550 -15 543 -15 c 0,42,43
 475 -15 475 -15 403.5 -6 c 128,-1,44
 332 3 332 3 264 3 c 0,45,46
 230 3 230 3 205 1 c 128,-1,47
 180 -1 180 -1 157 -3 c 128,-1,48
 134 -5 134 -5 109 -7 c 128,-1,49
 84 -9 84 -9 50 -9 c 0,50,51
 44 -9 44 -9 40 -4 c 128,-1,52
 36 1 36 1 36 7 c 0,53,54
 36 21 36 21 46 25 c 128,-1,55
 56 29 56 29 71.5 30 c 128,-1,56
 87 31 87 31 104.5 33.5 c 128,-1,57
 122 36 122 36 136 49 c 0,58,59
 148 61 148 61 152.5 94 c 128,-1,60
 157 127 157 127 157 166 c 0,61,62
 157 206 157 206 155 246.5 c 128,-1,63
 153 287 153 287 153 315 c 2,64,-1
 153 614 l 2,65,66
 153 640 153 640 148 660 c 0,67,68
 144 683 144 683 126.5 690.5 c 128,-1,69
 109 698 109 698 89 700.5 c 128,-1,70
 69 703 69 703 53 706 c 128,-1,71
 37 709 37 709 37 723 c 256,72,73
 37 737 37 737 48.5 739 c 128,-1,74
 60 741 60 741 72 741 c 0,75,76
 108 741 108 741 142 737.5 c 128,-1,77
 176 734 176 734 212 734 c 0,0,1
EndSplineSet
Validated: 33
Substitution2: "'c2sc' Versalien in Kapit+AOQA-lchen in Lateinisch Nachschlagetabelle 0 Subtabelle" uni029F
EndChar

StartChar: M
Encoding: 77 77 62
Width: 1025
Flags: W
LayerCount: 2
Fore
SplineSet
982 716 m 0,0,1
 982 708 982 708 974 703 c 128,-1,2
 966 698 966 698 954.5 696 c 128,-1,3
 943 694 943 694 932 693.5 c 128,-1,4
 921 693 921 693 914 693 c 0,5,6
 894 693 894 693 882.5 685.5 c 128,-1,7
 871 678 871 678 866 665.5 c 128,-1,8
 861 653 861 653 860 637 c 128,-1,9
 859 621 859 621 859 604 c 2,10,-1
 859 579 l 2,11,12
 861 462 861 462 866 351.5 c 128,-1,13
 871 241 871 241 878 120 c 0,14,15
 879 102 879 102 882 79 c 128,-1,16
 885 56 885 56 902 45 c 0,17,18
 907 42 907 42 919.5 38.5 c 128,-1,19
 932 35 932 35 946.5 31.5 c 128,-1,20
 961 28 961 28 974 24 c 128,-1,21
 987 20 987 20 995 16 c 0,22,23
 1001 13 1001 13 1001 5 c 0,24,25
 1001 -5 1001 -5 991.5 -6.5 c 128,-1,26
 982 -8 982 -8 972 -8 c 2,27,-1
 962 -8 l 2,28,29
 932 -8 932 -8 901.5 -4.5 c 128,-1,30
 871 -1 871 -1 842 -1 c 0,31,32
 809 -1 809 -1 775.5 -4.5 c 128,-1,33
 742 -8 742 -8 710 -8 c 0,34,35
 703 -8 703 -8 690 -6 c 128,-1,36
 677 -4 677 -4 677 6 c 0,37,38
 677 15 677 15 685 20 c 128,-1,39
 693 25 693 25 699 29 c 1,40,41
 727 29 727 29 744 34 c 128,-1,42
 761 39 761 39 769 50 c 128,-1,43
 777 61 777 61 779.5 79 c 128,-1,44
 782 97 782 97 782 124 c 2,45,-1
 769 465 l 2,46,47
 768 492 768 492 767.5 513.5 c 128,-1,48
 767 535 767 535 767 549 c 0,49,50
 767 580 767 580 759 585 c 1,51,52
 755 582 755 582 750 574 c 128,-1,53
 745 566 745 566 741 557 c 128,-1,54
 737 548 737 548 733.5 539 c 128,-1,55
 730 530 730 530 728 526 c 0,56,57
 681 420 681 420 635.5 320.5 c 128,-1,58
 590 221 590 221 546 114 c 0,59,60
 541 102 541 102 533.5 81.5 c 128,-1,61
 526 61 526 61 517.5 43 c 128,-1,62
 509 25 509 25 501 11 c 128,-1,63
 493 -3 493 -3 486 -3 c 0,64,65
 475 -3 475 -3 469 11.5 c 128,-1,66
 463 26 463 26 461 34 c 0,67,68
 427 130 427 130 389.5 223 c 128,-1,69
 352 316 352 316 309 409 c 0,70,71
 305 418 305 418 293.5 446.5 c 128,-1,72
 282 475 282 475 268 507 c 128,-1,73
 254 539 254 539 241.5 563.5 c 128,-1,74
 229 588 229 588 224 588 c 0,75,76
 222 588 222 588 220.5 557.5 c 128,-1,77
 219 527 219 527 217.5 479 c 128,-1,78
 216 431 216 431 215 372 c 128,-1,79
 214 313 214 313 213.5 257 c 128,-1,80
 213 201 213 201 212.5 152.5 c 128,-1,81
 212 104 212 104 212 79 c 0,82,83
 212 62 212 62 220.5 52.5 c 128,-1,84
 229 43 229 43 242 38 c 128,-1,85
 255 33 255 33 270.5 31 c 128,-1,86
 286 29 286 29 298.5 27 c 128,-1,87
 311 25 311 25 320 20 c 128,-1,88
 329 15 329 15 329 5 c 0,89,90
 329 -6 329 -6 316 -7 c 128,-1,91
 303 -8 303 -8 296 -8 c 0,92,93
 269 -8 269 -8 243 -6 c 128,-1,94
 217 -4 217 -4 190 -4 c 0,95,96
 157 -4 157 -4 125 -6 c 128,-1,97
 93 -8 93 -8 60 -8 c 0,98,99
 54 -8 54 -8 42.5 -5.5 c 128,-1,100
 31 -3 31 -3 31 5 c 0,101,102
 31 21 31 21 45 25 c 128,-1,103
 59 29 59 29 77.5 31.5 c 128,-1,104
 96 34 96 34 114.5 39.5 c 128,-1,105
 133 45 133 45 141 66 c 0,106,107
 147 81 147 81 150.5 99.5 c 128,-1,108
 154 118 154 118 156 135 c 0,109,110
 167 256 167 256 176 379 c 128,-1,111
 185 502 185 502 185 623 c 0,112,113
 185 659 185 659 169 676 c 128,-1,114
 153 693 153 693 115 700 c 0,115,116
 110 701 110 701 99.5 703.5 c 128,-1,117
 89 706 89 706 78.5 708.5 c 128,-1,118
 68 711 68 711 59.5 715 c 128,-1,119
 51 719 51 719 51 725 c 0,120,121
 51 736 51 736 62.5 737.5 c 128,-1,122
 74 739 74 739 82 739 c 0,123,124
 99 739 99 739 115 737 c 128,-1,125
 131 735 131 735 148 735 c 0,126,127
 175 735 175 735 200 737 c 128,-1,128
 225 739 225 739 252 739 c 0,129,130
 260 739 260 739 265 738.5 c 128,-1,131
 270 738 270 738 275 731 c 0,132,133
 294 704 294 704 305.5 671 c 128,-1,134
 317 638 317 638 331 607 c 0,135,136
 362 535 362 535 393 464.5 c 128,-1,137
 424 394 424 394 455 321 c 0,138,139
 462 304 462 304 471 280 c 128,-1,140
 480 256 480 256 489.5 234 c 128,-1,141
 499 212 499 212 506.5 196.5 c 128,-1,142
 514 181 514 181 519 181 c 256,143,144
 524 181 524 181 528 189.5 c 128,-1,145
 532 198 532 198 536 205 c 0,146,147
 594 326 594 326 645 449 c 128,-1,148
 696 572 696 572 755 693 c 0,149,150
 767 720 767 720 774 727.5 c 128,-1,151
 781 735 781 735 793 735 c 2,152,-1
 814 735 l 2,153,154
 832 735 832 735 841 734 c 128,-1,155
 850 733 850 733 865 733 c 0,156,157
 888 733 888 733 909.5 734 c 128,-1,158
 931 735 931 735 953 735 c 0,159,160
 960 735 960 735 971.5 731.5 c 128,-1,161
 983 728 983 728 982 716 c 0,0,1
EndSplineSet
Validated: 1
Substitution2: "'c2sc' Versalien in Kapit+AOQA-lchen in Lateinisch Nachschlagetabelle 0 Subtabelle" uni1D0D
EndChar

StartChar: N
Encoding: 78 78 63
Width: 922
Flags: W
LayerCount: 2
Fore
SplineSet
190 -4 m 0,0,1
 156 -4 156 -4 122.5 -6 c 128,-1,2
 89 -8 89 -8 54 -8 c 0,3,4
 46 -8 46 -8 35.5 -5 c 128,-1,5
 25 -2 25 -2 25 9 c 0,6,7
 25 18 25 18 32.5 22.5 c 128,-1,8
 40 27 40 27 51 28.5 c 128,-1,9
 62 30 62 30 74.5 30.5 c 128,-1,10
 87 31 87 31 95 32 c 0,11,12
 112 35 112 35 122 44 c 128,-1,13
 132 53 132 53 136.5 66.5 c 128,-1,14
 141 80 141 80 142 95.5 c 128,-1,15
 143 111 143 111 143 125 c 0,16,17
 145 248 145 248 147.5 367 c 128,-1,18
 150 486 150 486 150 609 c 0,19,20
 150 625 150 625 148 640 c 128,-1,21
 146 655 146 655 139 666.5 c 128,-1,22
 132 678 132 678 118.5 686 c 128,-1,23
 105 694 105 694 82 698 c 0,24,25
 76 699 76 699 64.5 699.5 c 128,-1,26
 53 700 53 700 42 702.5 c 128,-1,27
 31 705 31 705 22.5 709 c 128,-1,28
 14 713 14 713 14 721 c 0,29,30
 14 730 14 730 25 735 c 128,-1,31
 36 740 36 740 43 740 c 0,32,33
 66 740 66 740 87.5 739 c 128,-1,34
 109 738 109 738 131 738 c 0,35,36
 148 738 148 738 164 739 c 128,-1,37
 180 740 180 740 198 740 c 0,38,39
 216 740 216 740 226 735.5 c 128,-1,40
 236 731 236 731 244.5 722 c 128,-1,41
 253 713 253 713 263 699.5 c 128,-1,42
 273 686 273 686 293 668 c 0,43,44
 334 619 334 619 376.5 569 c 128,-1,45
 419 519 419 519 470.5 459 c 128,-1,46
 522 399 522 399 586 324 c 128,-1,47
 650 249 650 249 735 147 c 1,48,49
 749 148 749 148 749 170 c 2,50,-1
 749 294 l 2,51,52
 750 374 750 374 749.5 454 c 128,-1,53
 749 534 749 534 749 613 c 0,54,55
 749 627 749 627 748.5 640.5 c 128,-1,56
 748 654 748 654 744 668 c 0,57,58
 739 691 739 691 720 696 c 128,-1,59
 701 701 701 701 680 701.5 c 128,-1,60
 659 702 659 702 642.5 704.5 c 128,-1,61
 626 707 626 707 626 723 c 0,62,63
 626 733 626 733 633 736.5 c 128,-1,64
 640 740 640 740 648 740 c 0,65,66
 681 740 681 740 713.5 738 c 128,-1,67
 746 736 746 736 779 736 c 0,68,69
 806 736 806 736 833 737.5 c 128,-1,70
 860 739 860 739 887 739 c 0,71,72
 910 739 910 739 909 722 c 0,73,74
 909 710 909 710 896.5 706 c 128,-1,75
 884 702 884 702 867.5 700.5 c 128,-1,76
 851 699 851 699 834.5 696.5 c 128,-1,77
 818 694 818 694 811 685 c 0,78,79
 805 677 805 677 801 656.5 c 128,-1,80
 797 636 797 636 795.5 613 c 128,-1,81
 794 590 794 590 793.5 568.5 c 128,-1,82
 793 547 793 547 793 537 c 2,83,-1
 793 325 l 2,84,85
 793 266 793 266 792.5 191 c 128,-1,86
 792 116 792 116 792 14 c 0,87,88
 792 -3 792 -3 790 -18 c 128,-1,89
 788 -33 788 -33 775 -35 c 0,90,91
 770 -36 770 -36 765 -32.5 c 128,-1,92
 760 -29 760 -29 755.5 -23.5 c 128,-1,93
 751 -18 751 -18 746 -12.5 c 128,-1,94
 741 -7 741 -7 738 -3 c 0,95,96
 708 32 708 32 679 66.5 c 128,-1,97
 650 101 650 101 622 137 c 0,98,99
 621 138 621 138 618 141 c 128,-1,100
 615 144 615 144 605 156 c 128,-1,101
 595 168 595 168 573.5 193 c 128,-1,102
 552 218 552 218 513 263 c 128,-1,103
 474 308 474 308 415 376.5 c 128,-1,104
 356 445 356 445 270 546 c 0,105,106
 253 566 253 566 235 590 c 128,-1,107
 217 614 217 614 195 633 c 1,108,109
 192 616 192 616 191 598 c 0,110,111
 191 543 191 543 192.5 494 c 128,-1,112
 194 445 194 445 194.5 393 c 128,-1,113
 195 341 195 341 196 280 c 128,-1,114
 197 219 197 219 197 139 c 0,115,116
 197 92 197 92 203 70.5 c 128,-1,117
 209 49 209 49 221.5 41.5 c 128,-1,118
 234 34 234 34 254 33 c 128,-1,119
 274 32 274 32 303 26 c 0,120,121
 311 24 311 24 319 18 c 128,-1,122
 327 12 327 12 327 2 c 0,123,124
 327 -4 327 -4 320.5 -6 c 128,-1,125
 314 -8 314 -8 309 -8 c 0,126,127
 279 -8 279 -8 249.5 -6 c 128,-1,128
 220 -4 220 -4 190 -4 c 0,0,1
EndSplineSet
Validated: 33
Substitution2: "'c2sc' Versalien in Kapit+AOQA-lchen in Lateinisch Nachschlagetabelle 0 Subtabelle" uni0274
EndChar

StartChar: O
Encoding: 79 79 64
Width: 906
Flags: W
LayerCount: 2
Fore
SplineSet
718 420 m 0,0,1
 706 486 706 486 678 545 c 128,-1,2
 650 604 650 604 607.5 646.5 c 128,-1,3
 565 689 565 689 508 709 c 128,-1,4
 451 729 451 729 379 716 c 0,5,6
 302 702 302 702 258 661 c 128,-1,7
 214 620 214 620 194 564.5 c 128,-1,8
 174 509 174 509 173.5 446 c 128,-1,9
 173 383 173 383 184 325 c 0,10,11
 194 265 194 265 219.5 204 c 128,-1,12
 245 143 245 143 286 97 c 128,-1,13
 327 51 327 51 385 27.5 c 128,-1,14
 443 4 443 4 521 18 c 0,15,16
 597 31 597 31 641 74 c 128,-1,17
 685 117 685 117 705.5 174.5 c 128,-1,18
 726 232 726 232 727 297 c 128,-1,19
 728 362 728 362 718 420 c 0,0,1
845 374 m 0,20,21
 845 292 845 292 813.5 218.5 c 128,-1,22
 782 145 782 145 727.5 90.5 c 128,-1,23
 673 36 673 36 599 3.5 c 128,-1,24
 525 -29 525 -29 441 -29 c 0,25,26
 358 -29 358 -29 288 0.5 c 128,-1,27
 218 30 218 30 168 82 c 128,-1,28
 118 134 118 134 89.5 205 c 128,-1,29
 61 276 61 276 61 361 c 256,30,31
 61 446 61 446 90 519 c 128,-1,32
 119 592 119 592 170.5 645 c 128,-1,33
 222 698 222 698 293 728.5 c 128,-1,34
 364 759 364 759 447 759 c 0,35,36
 528 759 528 759 600.5 730.5 c 128,-1,37
 673 702 673 702 727 651.5 c 128,-1,38
 781 601 781 601 813 530.5 c 128,-1,39
 845 460 845 460 845 374 c 0,20,21
EndSplineSet
Validated: 33
Substitution2: "'c2sc' Versalien in Kapit+AOQA-lchen in Lateinisch Nachschlagetabelle 0 Subtabelle" uni1D0F
EndChar

StartChar: P
Encoding: 80 80 65
Width: 631
Flags: W
LayerCount: 2
Fore
SplineSet
480 526 m 0,0,1
 480 561 480 561 469.5 593.5 c 128,-1,2
 459 626 459 626 437 650.5 c 128,-1,3
 415 675 415 675 382 690.5 c 128,-1,4
 349 706 349 706 306 708 c 0,5,6
 295 708 295 708 281.5 706.5 c 128,-1,7
 268 705 268 705 259 696 c 0,8,9
 250 687 250 687 246.5 667 c 128,-1,10
 243 647 243 647 243 629 c 2,11,-1
 243 608 l 2,12,13
 243 556 243 556 244 505 c 128,-1,14
 245 454 245 454 246 401 c 1,15,-1
 245 401 l 1,16,-1
 245 326 l 2,17,18
 244 315 244 315 243.5 295.5 c 128,-1,19
 243 276 243 276 242.5 255 c 128,-1,20
 242 234 242 234 242 213 c 256,21,22
 242 191 242 191 242 175 c 2,23,-1
 242 113 l 2,24,25
 242 101 242 101 243 88.5 c 128,-1,26
 244 76 244 76 248 65 c 128,-1,27
 252 54 252 54 258.5 46 c 128,-1,28
 265 38 265 38 278 35 c 0,29,30
 284 33 284 33 295 31 c 128,-1,31
 306 29 306 29 318 27 c 128,-1,32
 330 25 330 25 339.5 23.5 c 128,-1,33
 349 22 349 22 353 20 c 0,34,35
 361 16 361 16 358.5 11 c 128,-1,36
 356 6 356 6 354 -1 c 0,37,38
 349 -5 349 -5 342 -6 c 128,-1,39
 335 -7 335 -7 328 -7 c 0,40,41
 295 -7 295 -7 261 -3.5 c 128,-1,42
 227 0 227 0 194 0 c 0,43,44
 158 0 158 0 123.5 -3.5 c 128,-1,45
 89 -7 89 -7 53 -7 c 0,46,47
 43 -7 43 -7 40 -0.5 c 128,-1,48
 37 6 37 6 37 14 c 0,49,50
 37 18 37 18 49.5 22 c 128,-1,51
 62 26 62 26 79 30.5 c 128,-1,52
 96 35 96 35 112 41.5 c 128,-1,53
 128 48 128 48 134 59 c 0,54,55
 142 76 142 76 143 97.5 c 128,-1,56
 144 119 144 119 144 138 c 0,57,58
 144 199 144 199 145 261 c 128,-1,59
 146 323 146 323 146 384 c 0,60,61
 146 452 146 452 145.5 519 c 128,-1,62
 145 586 145 586 145 653 c 0,63,64
 145 676 145 676 137 686 c 128,-1,65
 129 696 129 696 117 699.5 c 128,-1,66
 105 703 105 703 91 702 c 128,-1,67
 77 701 77 701 65 701.5 c 128,-1,68
 53 702 53 702 45 706.5 c 128,-1,69
 37 711 37 711 37 724 c 0,70,71
 37 732 37 732 43 735 c 128,-1,72
 49 738 49 738 56 739 c 0,73,74
 105 744 105 744 154 745 c 128,-1,75
 203 746 203 746 252 746 c 2,76,-1
 310 746 l 2,77,78
 365 746 365 746 415.5 733.5 c 128,-1,79
 466 721 466 721 504 694.5 c 128,-1,80
 542 668 542 668 564.5 626.5 c 128,-1,81
 587 585 587 585 587 528 c 0,82,83
 587 480 587 480 567.5 440.5 c 128,-1,84
 548 401 548 401 515 372.5 c 128,-1,85
 482 344 482 344 437.5 328 c 128,-1,86
 393 312 393 312 344 312 c 0,87,88
 327 312 327 312 323 314.5 c 128,-1,89
 319 317 319 317 312 323 c 0,90,91
 310 325 310 325 307.5 330.5 c 128,-1,92
 305 336 305 336 304.5 342 c 128,-1,93
 304 348 304 348 305.5 352.5 c 128,-1,94
 307 357 307 357 312 357 c 0,95,96
 316 356 316 356 317 356 c 0,97,98
 354 357 354 357 384 370 c 128,-1,99
 414 383 414 383 435.5 405 c 128,-1,100
 457 427 457 427 468.5 458 c 128,-1,101
 480 489 480 489 480 526 c 0,0,1
EndSplineSet
Validated: 1
Substitution2: "'c2sc' Versalien in Kapit+AOQA-lchen in Lateinisch Nachschlagetabelle 0 Subtabelle" uni1D18
EndChar

StartChar: Q
Encoding: 81 81 66
Width: 906
Flags: W
LayerCount: 2
Fore
SplineSet
718 420 m 0,0,1
 706 486 706 486 678.5 545 c 128,-1,2
 651 604 651 604 608 646.5 c 128,-1,3
 565 689 565 689 508 709 c 128,-1,4
 451 729 451 729 379 716 c 0,5,6
 310 703 310 703 267 662 c 128,-1,7
 224 621 224 621 202 565.5 c 128,-1,8
 180 510 180 510 176.5 446.5 c 128,-1,9
 173 383 173 383 184 325 c 0,10,11
 194 265 194 265 219.5 203.5 c 128,-1,12
 245 142 245 142 286 95.5 c 128,-1,13
 327 49 327 49 385 26 c 128,-1,14
 443 3 443 3 521 18 c 0,15,16
 579 30 579 30 622 72.5 c 128,-1,17
 665 115 665 115 689.5 172.5 c 128,-1,18
 714 230 714 230 721 296 c 128,-1,19
 728 362 728 362 718 420 c 0,0,1
845 374 m 0,20,21
 845 320 845 320 829.5 269 c 128,-1,22
 814 218 814 218 786 174 c 128,-1,23
 758 130 758 130 719.5 93 c 128,-1,24
 681 56 681 56 635 30 c 1,25,26
 661 -7 661 -7 685 -30 c 128,-1,27
 709 -53 709 -53 732.5 -68.5 c 128,-1,28
 756 -84 756 -84 780 -93.5 c 128,-1,29
 804 -103 804 -103 830 -114 c 0,30,31
 834 -116 834 -116 836.5 -122 c 128,-1,32
 839 -128 839 -128 839 -134 c 0,33,34
 839 -141 839 -141 836.5 -147.5 c 128,-1,35
 834 -154 834 -154 829 -154 c 0,36,37
 793 -157 793 -157 753.5 -149.5 c 128,-1,38
 714 -142 714 -142 673.5 -125 c 128,-1,39
 633 -108 633 -108 593.5 -80.5 c 128,-1,40
 554 -53 554 -53 519 -16 c 1,41,42
 507 -19 507 -19 498 -22 c 128,-1,43
 489 -25 489 -25 480.5 -26.5 c 128,-1,44
 472 -28 472 -28 463 -28.5 c 128,-1,45
 454 -29 454 -29 441 -29 c 0,46,47
 358 -29 358 -29 288 0.5 c 128,-1,48
 218 30 218 30 168 82 c 128,-1,49
 118 134 118 134 89.5 205 c 128,-1,50
 61 276 61 276 61 361 c 256,51,52
 61 446 61 446 90 519 c 128,-1,53
 119 592 119 592 170.5 645 c 128,-1,54
 222 698 222 698 293 728.5 c 128,-1,55
 364 759 364 759 447 759 c 0,56,57
 528 759 528 759 600.5 730.5 c 128,-1,58
 673 702 673 702 727 651.5 c 128,-1,59
 781 601 781 601 813 530.5 c 128,-1,60
 845 460 845 460 845 374 c 0,20,21
EndSplineSet
Validated: 33
Substitution2: "'c2sc' Versalien in Kapit+AOQA-lchen in Lateinisch Nachschlagetabelle 0 Subtabelle" Q.sc
EndChar

StartChar: R
Encoding: 82 82 67
Width: 735
Flags: W
LayerCount: 2
Fore
SplineSet
483 544 m 0,0,1
 483 585 483 585 470 615.5 c 128,-1,2
 457 646 457 646 434 667 c 128,-1,3
 411 688 411 688 379 699 c 128,-1,4
 347 710 347 710 309 710 c 0,5,6
 273 710 273 710 262 697 c 128,-1,7
 251 684 251 684 251 659 c 2,8,-1
 251 625 l 2,9,10
 251 584 251 584 250 532.5 c 128,-1,11
 249 481 249 481 249 440 c 0,12,13
 249 425 249 425 248.5 414 c 128,-1,14
 248 403 248 403 250.5 396 c 128,-1,15
 253 389 253 389 261.5 386 c 128,-1,16
 270 383 270 383 289 383 c 0,17,18
 330 383 330 383 365.5 389.5 c 128,-1,19
 401 396 401 396 427.5 414 c 128,-1,20
 454 432 454 432 468.5 463.5 c 128,-1,21
 483 495 483 495 483 544 c 0,0,1
435 359 m 1,22,23
 455 351 455 351 474.5 323 c 128,-1,24
 494 295 494 295 512.5 256 c 128,-1,25
 531 217 531 217 552.5 173.5 c 128,-1,26
 574 130 574 130 601 91 c 128,-1,27
 628 52 628 52 660.5 23 c 128,-1,28
 693 -6 693 -6 736 -15 c 0,29,30
 747 -20 747 -20 759 -23 c 128,-1,31
 771 -26 771 -26 771 -35 c 0,32,33
 771 -41 771 -41 762 -50 c 1,34,35
 751 -54 751 -54 725 -54 c 0,36,37
 715 -54 715 -54 704.5 -53 c 128,-1,38
 694 -52 694 -52 687 -51 c 0,39,40
 600 -36 600 -36 541 19.5 c 128,-1,41
 482 75 482 75 452 155 c 1,42,43
 435 188 435 188 419.5 222.5 c 128,-1,44
 404 257 404 257 385.5 285 c 128,-1,45
 367 313 367 313 341.5 331.5 c 128,-1,46
 316 350 316 350 280 350 c 0,47,48
 260 350 260 350 255 342 c 128,-1,49
 250 334 250 334 250 309 c 2,50,-1
 250 98 l 2,51,52
 250 71 250 71 256.5 58 c 128,-1,53
 263 45 263 45 275 39 c 128,-1,54
 287 33 287 33 303 31 c 128,-1,55
 319 29 319 29 340 25 c 0,56,57
 342 24 342 24 348 24 c 0,58,59
 356 24 356 24 363.5 21.5 c 128,-1,60
 371 19 371 19 371 11 c 0,61,62
 371 -3 371 -3 360.5 -6 c 128,-1,63
 350 -9 350 -9 330 -9 c 0,64,65
 293 -9 293 -9 256 -5.5 c 128,-1,66
 219 -2 219 -2 183 -2 c 0,67,68
 151 -2 151 -2 120 -5 c 128,-1,69
 89 -8 89 -8 57 -8 c 0,70,71
 44 -8 44 -8 40 -5.5 c 128,-1,72
 36 -3 36 -3 36 11 c 0,73,74
 36 18 36 18 44 21 c 128,-1,75
 52 24 52 24 65 26 c 128,-1,76
 78 28 78 28 92 30.5 c 128,-1,77
 106 33 106 33 119 40 c 128,-1,78
 132 47 132 47 140 59.5 c 128,-1,79
 148 72 148 72 148 93 c 2,80,-1
 148 304 l 2,81,82
 148 391 148 391 150 477 c 128,-1,83
 152 563 152 563 152 650 c 0,84,85
 152 670 152 670 143.5 681.5 c 128,-1,86
 135 693 135 693 122.5 697.5 c 128,-1,87
 110 702 110 702 95.5 703.5 c 128,-1,88
 81 705 81 705 68 706 c 128,-1,89
 55 707 55 707 47 710 c 128,-1,90
 39 713 39 713 39 722 c 0,91,92
 39 736 39 736 49.5 738.5 c 128,-1,93
 60 741 60 741 72 741 c 256,94,95
 83 741 83 741 94.5 740 c 128,-1,96
 106 739 106 739 118 739 c 2,97,-1
 207 739 l 2,98,99
 246 739 246 739 285.5 740.5 c 128,-1,100
 325 742 325 742 364 742 c 0,101,102
 398 742 398 742 436.5 733.5 c 128,-1,103
 475 725 475 725 509 702 c 128,-1,104
 543 679 543 679 565.5 640 c 128,-1,105
 588 601 588 601 588 541 c 0,106,107
 588 508 588 508 574 480 c 128,-1,108
 560 452 560 452 538 429.5 c 128,-1,109
 516 407 516 407 489 389 c 128,-1,110
 462 371 462 371 435 359 c 1,22,23
EndSplineSet
Validated: 1
Substitution2: "'c2sc' Versalien in Kapit+AOQA-lchen in Lateinisch Nachschlagetabelle 0 Subtabelle" uni0280
EndChar

StartChar: S
Encoding: 83 83 68
Width: 533
Flags: W
LayerCount: 2
Fore
SplineSet
61 -37 m 0,0,1
 54 -37 54 -37 52 -24 c 128,-1,2
 50 -11 50 -11 50 6 c 256,3,4
 50 23 50 23 51.5 41.5 c 128,-1,5
 53 60 53 60 53 72 c 0,6,7
 53 99 53 99 53.5 120 c 128,-1,8
 54 141 54 141 56 168 c 0,9,10
 57 177 57 177 61 180 c 128,-1,11
 65 183 65 183 69 183 c 256,12,13
 73 183 73 183 76.5 182 c 128,-1,14
 80 181 80 181 83 181 c 0,15,16
 90 181 90 181 94 172.5 c 128,-1,17
 98 164 98 164 101 151 c 128,-1,18
 104 138 104 138 108 124 c 128,-1,19
 112 110 112 110 117 99 c 0,20,21
 135 59 135 59 174 37 c 128,-1,22
 213 15 213 15 255 15 c 0,23,24
 286 15 286 15 312 25 c 128,-1,25
 338 35 338 35 357.5 53.5 c 128,-1,26
 377 72 377 72 387.5 97.5 c 128,-1,27
 398 123 398 123 398 156 c 0,28,29
 398 204 398 204 372 236.5 c 128,-1,30
 346 269 346 269 307 295 c 128,-1,31
 268 321 268 321 222.5 343.5 c 128,-1,32
 177 366 177 366 138 394 c 128,-1,33
 99 422 99 422 73 459.5 c 128,-1,34
 47 497 47 497 47 552 c 0,35,36
 47 601 47 601 65 639.5 c 128,-1,37
 83 678 83 678 113.5 704 c 128,-1,38
 144 730 144 730 185.5 744 c 128,-1,39
 227 758 227 758 273 758 c 0,40,41
 295 758 295 758 321.5 746.5 c 128,-1,42
 348 735 348 735 367 724 c 0,43,44
 378 718 378 718 383.5 723.5 c 128,-1,45
 389 729 389 729 394 739.5 c 128,-1,46
 399 750 399 750 407 759 c 128,-1,47
 415 768 415 768 430 768 c 0,48,49
 437 768 437 768 439 758 c 128,-1,50
 441 748 441 748 441 733 c 256,51,52
 441 719 441 719 439.5 703.5 c 128,-1,53
 438 688 438 688 438 677 c 0,54,55
 439 624 439 624 435 570 c 0,56,57
 433 561 433 561 430 558 c 128,-1,58
 427 555 427 555 423 555 c 256,59,60
 419 555 419 555 415 556 c 128,-1,61
 411 557 411 557 408 557 c 0,62,63
 402 557 402 557 397.5 566 c 128,-1,64
 393 575 393 575 390 588 c 128,-1,65
 387 601 387 601 384 615 c 128,-1,66
 381 629 381 629 375 639 c 0,67,68
 359 678 359 678 327 699.5 c 128,-1,69
 295 721 295 721 262 721 c 0,70,71
 235 721 235 721 211 713 c 128,-1,72
 187 705 187 705 169.5 689.5 c 128,-1,73
 152 674 152 674 141.5 651.5 c 128,-1,74
 131 629 131 629 131 601 c 0,75,76
 131 558 131 558 159 526 c 128,-1,77
 187 494 187 494 228 468.5 c 128,-1,78
 269 443 269 443 314.5 421.5 c 128,-1,79
 360 400 360 400 395 378 c 0,80,81
 438 349 438 349 462 303 c 128,-1,82
 486 257 486 257 487 205 c 0,83,84
 487 149 487 149 469.5 106 c 128,-1,85
 452 63 452 63 419.5 34.5 c 128,-1,86
 387 6 387 6 342.5 -9 c 128,-1,87
 298 -24 298 -24 245 -25 c 0,88,89
 226 -25 226 -25 208.5 -19.5 c 128,-1,90
 191 -14 191 -14 176.5 -8.5 c 128,-1,91
 162 -3 162 -3 149 2 c 128,-1,92
 136 7 136 7 125 7 c 0,93,94
 113 7 113 7 107 0.5 c 128,-1,95
 101 -6 101 -6 96 -15 c 128,-1,96
 91 -24 91 -24 83.5 -30.5 c 128,-1,97
 76 -37 76 -37 61 -37 c 0,0,1
EndSplineSet
Validated: 33
Substitution2: "'c2sc' Versalien in Kapit+AOQA-lchen in Lateinisch Nachschlagetabelle 0 Subtabelle" uniA731
EndChar

StartChar: T
Encoding: 84 84 69
Width: 722
Flags: W
HStem: -8 33<195 285 448 548> 686 42<108 315 428 629>
VStem: 317 99<48 682>
LayerCount: 2
Fore
SplineSet
708 740 m 0,0,1
 701 721 701 721 698 688.5 c 128,-1,2
 695 656 695 656 691.5 625.5 c 128,-1,3
 688 595 688 595 681.5 572.5 c 128,-1,4
 675 550 675 550 659 550 c 0,5,6
 647 550 647 550 645 559.5 c 128,-1,7
 643 569 643 569 644.5 584 c 128,-1,8
 646 599 646 599 647 616.5 c 128,-1,9
 648 634 648 634 642 649 c 0,10,11
 637 661 637 661 622 669 c 128,-1,12
 607 677 607 677 586.5 680.5 c 128,-1,13
 566 684 566 684 543 685.5 c 128,-1,14
 520 687 520 687 500 687 c 0,15,16
 485 687 485 687 472.5 686.5 c 128,-1,17
 460 686 460 686 452 686 c 0,18,19
 445 686 445 686 438.5 686.5 c 128,-1,20
 432 687 432 687 427.5 682.5 c 128,-1,21
 423 678 423 678 420.5 666 c 128,-1,22
 418 654 418 654 418 631 c 2,23,-1
 416 506 l 2,24,25
 414 416 414 416 416.5 326 c 128,-1,26
 419 236 419 236 417 145 c 0,27,28
 417 129 417 129 417.5 112.5 c 128,-1,29
 418 96 418 96 421 80 c 0,30,31
 426 51 426 51 446.5 41.5 c 128,-1,32
 467 32 467 32 489.5 29.5 c 128,-1,33
 512 27 512 27 530 25 c 128,-1,34
 548 23 548 23 548 10 c 0,35,36
 548 -6 548 -6 541 -7 c 128,-1,37
 534 -8 534 -8 520 -8 c 0,38,39
 479 -8 479 -8 438.5 -5.5 c 128,-1,40
 398 -3 398 -3 357 -3 c 0,41,42
 320 -3 320 -3 284 -5.5 c 128,-1,43
 248 -8 248 -8 211 -8 c 0,44,45
 203 -8 203 -8 194 -7 c 128,-1,46
 185 -6 185 -6 185 5 c 0,47,48
 185 17 185 17 194.5 21 c 128,-1,49
 204 25 204 25 214 25 c 0,50,51
 223 25 223 25 227 26 c 0,52,53
 257 29 257 29 275 36 c 128,-1,54
 293 43 293 43 302 56 c 128,-1,55
 311 69 311 69 314 88.5 c 128,-1,56
 317 108 317 108 317 136 c 2,57,-1
 317 632 l 2,58,59
 317 637 317 637 316.5 651 c 128,-1,60
 316 665 316 665 315 670 c 0,61,62
 313 679 313 679 291.5 682.5 c 128,-1,63
 270 686 270 686 246 686 c 2,64,-1
 182 686 l 2,65,66
 158 686 158 686 136.5 679.5 c 128,-1,67
 115 673 115 673 94 653 c 0,68,69
 89 648 89 648 81 631.5 c 128,-1,70
 73 615 73 615 63.5 597.5 c 128,-1,71
 54 580 54 580 45.5 565.5 c 128,-1,72
 37 551 37 551 33 551 c 0,73,74
 23 551 23 551 17.5 555 c 128,-1,75
 12 559 12 559 12 570 c 0,76,77
 12 587 12 587 20.5 616.5 c 128,-1,78
 29 646 29 646 34 699 c 0,79,80
 35 710 35 710 36 723 c 128,-1,81
 37 736 37 736 40.5 746.5 c 128,-1,82
 44 757 44 757 51 763.5 c 128,-1,83
 58 770 58 770 72 770 c 0,84,85
 77 770 77 770 80.5 765 c 128,-1,86
 84 760 84 760 89 753 c 128,-1,87
 94 746 94 746 103 740 c 128,-1,88
 112 734 112 734 127 733 c 0,89,90
 188 730 188 730 252.5 728.5 c 128,-1,91
 317 727 317 727 379 727 c 0,92,93
 428 727 428 727 473.5 728 c 128,-1,94
 519 729 519 729 568 729 c 0,95,96
 583 729 583 729 599 729.5 c 128,-1,97
 615 730 615 730 631 732 c 0,98,99
 643 734 643 734 651 741.5 c 128,-1,100
 659 749 659 749 665.5 757 c 128,-1,101
 672 765 672 765 676 771.5 c 128,-1,102
 680 778 680 778 685 778 c 0,103,104
 702 778 702 778 707 764.5 c 128,-1,105
 712 751 712 751 708 740 c 0,0,1
EndSplineSet
Validated: 33
Substitution2: "'c2sc' Versalien in Kapit+AOQA-lchen in Lateinisch Nachschlagetabelle 0 Subtabelle" uni1D1B
EndChar

StartChar: U
Encoding: 85 85 70
Width: 831
Flags: W
LayerCount: 2
Fore
SplineSet
814 724 m 0,0,1
 814 713 814 713 802 706.5 c 128,-1,2
 790 700 790 700 773.5 696.5 c 128,-1,3
 757 693 757 693 742 691 c 128,-1,4
 727 689 727 689 722 686 c 0,5,6
 715 682 715 682 712 654 c 128,-1,7
 709 626 709 626 708.5 588 c 128,-1,8
 708 550 708 550 708.5 509 c 128,-1,9
 709 468 709 468 709 437 c 0,10,11
 709 409 709 409 709.5 381.5 c 128,-1,12
 710 354 710 354 710 327 c 0,13,14
 710 282 710 282 707.5 232.5 c 128,-1,15
 705 183 705 183 691.5 138.5 c 128,-1,16
 678 94 678 94 651.5 58.5 c 128,-1,17
 625 23 625 23 575 3 c 0,18,19
 532 -13 532 -13 486 -20 c 128,-1,20
 440 -27 440 -27 396 -27 c 0,21,22
 344 -27 344 -27 297 -17 c 128,-1,23
 250 -7 250 -7 213 16.5 c 128,-1,24
 176 40 176 40 152.5 79 c 128,-1,25
 129 118 129 118 123 177 c 0,26,27
 122 186 122 186 121.5 195.5 c 128,-1,28
 121 205 121 205 121 214 c 2,29,-1
 121 252 l 2,30,31
 121 339 121 339 123 424 c 128,-1,32
 125 509 125 509 125 596 c 0,33,34
 125 610 125 610 124.5 628.5 c 128,-1,35
 124 647 124 647 119.5 663 c 128,-1,36
 115 679 115 679 104 690 c 128,-1,37
 93 701 93 701 73 701 c 2,38,-1
 61 701 l 2,39,40
 56 701 56 701 48.5 701.5 c 128,-1,41
 41 702 41 702 33.5 704 c 128,-1,42
 26 706 26 706 20 710 c 128,-1,43
 14 714 14 714 14 721 c 0,44,45
 14 740 14 740 35 740 c 0,46,47
 68 740 68 740 100 737 c 128,-1,48
 132 734 132 734 165 734 c 0,49,50
 201 734 201 734 235 737 c 128,-1,51
 269 740 269 740 305 740 c 0,52,53
 313 740 313 740 325.5 738 c 128,-1,54
 338 736 338 736 338 725 c 0,55,56
 338 711 338 711 324 706.5 c 128,-1,57
 310 702 310 702 292.5 699 c 128,-1,58
 275 696 275 696 258.5 691 c 128,-1,59
 242 686 242 686 234 670 c 0,60,61
 231 663 231 663 229 649.5 c 128,-1,62
 227 636 227 636 225.5 619.5 c 128,-1,63
 224 603 224 603 223.5 585.5 c 128,-1,64
 223 568 223 568 223 553 c 2,65,-1
 223 365 l 2,66,67
 223 333 223 333 223.5 301 c 128,-1,68
 224 269 224 269 226 238 c 0,69,70
 230 175 230 175 246 133.5 c 128,-1,71
 262 92 262 92 288 68.5 c 128,-1,72
 314 45 314 45 350 36 c 128,-1,73
 386 27 386 27 430 27 c 0,74,75
 482 27 482 27 519.5 36.5 c 128,-1,76
 557 46 557 46 583 68.5 c 128,-1,77
 609 91 609 91 625.5 126.5 c 128,-1,78
 642 162 642 162 651 214 c 0,79,80
 657 243 657 243 657 273 c 2,81,-1
 657 493 l 2,82,83
 657 517 657 517 658 546 c 128,-1,84
 659 575 659 575 659 603 c 256,85,86
 659 631 659 631 656 653 c 128,-1,87
 653 675 653 675 644 683 c 256,88,89
 635 691 635 691 620.5 693 c 128,-1,90
 606 695 606 695 592.5 697.5 c 128,-1,91
 579 700 579 700 569 706 c 128,-1,92
 559 712 559 712 559 726 c 0,93,94
 559 736 559 736 566 738 c 128,-1,95
 573 740 573 740 582 740 c 0,96,97
 609 740 609 740 636 738 c 128,-1,98
 663 736 663 736 689 736 c 0,99,100
 717 736 717 736 744.5 737.5 c 128,-1,101
 772 739 772 739 800 739 c 1,102,103
 814 734 814 734 814 724 c 0,0,1
EndSplineSet
Validated: 33
Substitution2: "'c2sc' Versalien in Kapit+AOQA-lchen in Lateinisch Nachschlagetabelle 0 Subtabelle" uni1D1C
EndChar

StartChar: V
Encoding: 86 86 71
Width: 786
Flags: W
LayerCount: 2
Fore
SplineSet
776 723 m 0,0,1
 776 710 776 710 767.5 705.5 c 128,-1,2
 759 701 759 701 746.5 699 c 128,-1,3
 734 697 734 697 721 692.5 c 128,-1,4
 708 688 708 688 698 675 c 0,5,6
 695 670 695 670 689.5 656.5 c 128,-1,7
 684 643 684 643 677.5 627.5 c 128,-1,8
 671 612 671 612 665 597.5 c 128,-1,9
 659 583 659 583 656 575 c 0,10,11
 634 520 634 520 611.5 466.5 c 128,-1,12
 589 413 589 413 566 357 c 0,13,14
 528 264 528 264 492.5 172 c 128,-1,15
 457 80 457 80 419 -13 c 0,16,17
 417 -19 417 -19 414.5 -23 c 128,-1,18
 412 -27 412 -27 403 -27 c 0,19,20
 396 -27 396 -27 392 -21 c 128,-1,21
 388 -15 388 -15 386 -10 c 0,22,23
 362 48 362 48 337.5 108.5 c 128,-1,24
 313 169 313 169 290 227 c 0,25,26
 247 338 247 338 205 448 c 128,-1,27
 163 558 163 558 111 667 c 0,28,29
 102 686 102 686 85 692 c 128,-1,30
 68 698 68 698 51.5 701.5 c 128,-1,31
 35 705 35 705 22.5 708.5 c 128,-1,32
 10 712 10 712 10 725 c 0,33,34
 10 734 10 734 21 737.5 c 128,-1,35
 32 741 32 741 42 741 c 2,36,-1
 53 741 l 2,37,38
 78 741 78 741 102.5 738 c 128,-1,39
 127 735 127 735 152 735 c 0,40,41
 188 735 188 735 223 738 c 128,-1,42
 258 741 258 741 294 741 c 0,43,44
 303 741 303 741 310 735 c 128,-1,45
 317 729 317 729 317 720 c 0,46,47
 317 709 317 709 303 707 c 128,-1,48
 289 705 289 705 271 703.5 c 128,-1,49
 253 702 253 702 238.5 697.5 c 128,-1,50
 224 693 224 693 224 677 c 0,51,52
 224 674 224 674 225 670.5 c 128,-1,53
 226 667 226 667 227 664 c 0,54,55
 232 649 232 649 247.5 607 c 128,-1,56
 263 565 263 565 283.5 512 c 128,-1,57
 304 459 304 459 327 400 c 128,-1,58
 350 341 350 341 370.5 291 c 128,-1,59
 391 241 391 241 406.5 206 c 128,-1,60
 422 171 422 171 428 166 c 0,61,62
 431 163 431 163 435 166.5 c 128,-1,63
 439 170 439 170 442.5 175.5 c 128,-1,64
 446 181 446 181 449 187 c 128,-1,65
 452 193 452 193 453 195 c 0,66,67
 459 209 459 209 473.5 247.5 c 128,-1,68
 488 286 488 286 507 335 c 128,-1,69
 526 384 526 384 546 439 c 128,-1,70
 566 494 566 494 583 541 c 128,-1,71
 600 588 600 588 611 621 c 128,-1,72
 622 654 622 654 622 662 c 0,73,74
 622 684 622 684 605.5 689.5 c 128,-1,75
 589 695 589 695 569 697 c 128,-1,76
 549 699 549 699 532.5 703 c 128,-1,77
 516 707 516 707 516 722 c 0,78,79
 516 730 516 730 522 735.5 c 128,-1,80
 528 741 528 741 537 741 c 0,81,82
 570 741 570 741 603.5 737.5 c 128,-1,83
 637 734 637 734 670 734 c 0,84,85
 694 734 694 734 716 736.5 c 128,-1,86
 738 739 738 739 762 739 c 0,87,88
 769 739 769 739 772.5 734 c 128,-1,89
 776 729 776 729 776 723 c 0,0,1
EndSplineSet
Validated: 1
Substitution2: "'c2sc' Versalien in Kapit+AOQA-lchen in Lateinisch Nachschlagetabelle 0 Subtabelle" uni1D20
EndChar

StartChar: W
Encoding: 87 87 72
Width: 1122
Flags: W
LayerCount: 2
Fore
SplineSet
566 381 m 1,0,1
 538 455 538 455 509 525.5 c 128,-1,2
 480 596 480 596 446 667 c 0,3,4
 437 686 437 686 420 692 c 128,-1,5
 403 698 403 698 387 701.5 c 128,-1,6
 371 705 371 705 358.5 708.5 c 128,-1,7
 346 712 346 712 346 725 c 0,8,9
 346 734 346 734 357 737.5 c 128,-1,10
 368 741 368 741 378 741 c 2,11,-1
 389 741 l 2,12,13
 414 741 414 741 438.5 738 c 128,-1,14
 463 735 463 735 487 735 c 0,15,16
 523 735 523 735 558.5 738 c 128,-1,17
 594 741 594 741 630 741 c 0,18,19
 639 741 639 741 646 735 c 128,-1,20
 653 729 653 729 653 720 c 0,21,22
 653 709 653 709 639 707 c 128,-1,23
 625 705 625 705 607 703.5 c 128,-1,24
 589 702 589 702 574.5 697.5 c 128,-1,25
 560 693 560 693 560 677 c 0,26,27
 560 674 560 674 561 670.5 c 128,-1,28
 562 667 562 667 563 664 c 0,29,30
 568 649 568 649 583.5 607 c 128,-1,31
 599 565 599 565 619.5 512 c 128,-1,32
 640 459 640 459 663 400 c 128,-1,33
 686 341 686 341 706.5 291 c 128,-1,34
 727 241 727 241 742.5 206 c 128,-1,35
 758 171 758 171 764 166 c 0,36,37
 767 163 767 163 771 166.5 c 128,-1,38
 775 170 775 170 778.5 175.5 c 128,-1,39
 782 181 782 181 784.5 187 c 128,-1,40
 787 193 787 193 788 195 c 0,41,42
 794 209 794 209 809 247.5 c 128,-1,43
 824 286 824 286 843 335 c 128,-1,44
 862 384 862 384 882 439 c 128,-1,45
 902 494 902 494 919 541 c 128,-1,46
 936 588 936 588 946.5 621 c 128,-1,47
 957 654 957 654 957 662 c 0,48,49
 957 684 957 684 941 689.5 c 128,-1,50
 925 695 925 695 905 697 c 128,-1,51
 885 699 885 699 868.5 703 c 128,-1,52
 852 707 852 707 852 722 c 0,53,54
 852 730 852 730 858 735.5 c 128,-1,55
 864 741 864 741 872 741 c 0,56,57
 905 741 905 741 939 737.5 c 128,-1,58
 973 734 973 734 1006 734 c 0,59,60
 1030 734 1030 734 1052 736.5 c 128,-1,61
 1074 739 1074 739 1098 739 c 0,62,63
 1105 739 1105 739 1108.5 734 c 128,-1,64
 1112 729 1112 729 1112 723 c 0,65,66
 1112 710 1112 710 1103.5 705.5 c 128,-1,67
 1095 701 1095 701 1082.5 699 c 128,-1,68
 1070 697 1070 697 1056.5 692.5 c 128,-1,69
 1043 688 1043 688 1034 675 c 0,70,71
 1031 670 1031 670 1025.5 656.5 c 128,-1,72
 1020 643 1020 643 1013.5 627.5 c 128,-1,73
 1007 612 1007 612 1001 597.5 c 128,-1,74
 995 583 995 583 992 575 c 0,75,76
 970 520 970 520 947.5 466.5 c 128,-1,77
 925 413 925 413 902 357 c 0,78,79
 864 264 864 264 828.5 172 c 128,-1,80
 793 80 793 80 755 -13 c 0,81,82
 753 -19 753 -19 750.5 -23 c 128,-1,83
 748 -27 748 -27 739 -27 c 0,84,85
 732 -27 732 -27 728 -21 c 128,-1,86
 724 -15 724 -15 722 -10 c 0,87,88
 698 48 698 48 673.5 108.5 c 128,-1,89
 649 169 649 169 626 227 c 2,90,-1
 592 313 l 1,91,-1
 573 279 l 2,92,93
 567 271 567 271 552 240.5 c 128,-1,94
 537 210 537 210 520 173.5 c 128,-1,95
 503 137 503 137 487 103.5 c 128,-1,96
 471 70 471 70 465 55 c 0,97,98
 460 44 460 44 453.5 30 c 128,-1,99
 447 16 447 16 440 4 c 128,-1,100
 433 -8 433 -8 425 -17 c 128,-1,101
 417 -26 417 -26 410 -26 c 0,102,103
 397 -26 397 -26 392 -15.5 c 128,-1,104
 387 -5 387 -5 383 5 c 0,105,106
 312 168 312 168 244.5 325.5 c 128,-1,107
 177 483 177 483 103 644 c 0,108,109
 89 676 89 676 72.5 685.5 c 128,-1,110
 56 695 56 695 42.5 697.5 c 128,-1,111
 29 700 29 700 19.5 704.5 c 128,-1,112
 10 709 10 709 10 729 c 0,113,114
 10 735 10 735 15 737 c 128,-1,115
 20 739 20 739 27.5 740 c 128,-1,116
 35 741 35 741 41 740.5 c 128,-1,117
 47 740 47 740 49 740 c 0,118,119
 72 740 72 740 94 737.5 c 128,-1,120
 116 735 116 735 138 735 c 0,121,122
 165 735 165 735 192 737.5 c 128,-1,123
 219 740 219 740 246 740 c 0,124,125
 254 740 254 740 260 736 c 128,-1,126
 266 732 266 732 266 723 c 0,127,128
 266 712 266 712 256.5 709.5 c 128,-1,129
 247 707 247 707 234.5 705 c 128,-1,130
 222 703 222 703 212.5 699.5 c 128,-1,131
 203 696 203 696 203 683 c 0,132,133
 203 676 203 676 215 642.5 c 128,-1,134
 227 609 227 609 246.5 562.5 c 128,-1,135
 266 516 266 516 289.5 462.5 c 128,-1,136
 313 409 313 409 334.5 360 c 128,-1,137
 356 311 356 311 373.5 273.5 c 128,-1,138
 391 236 391 236 398 220 c 0,139,140
 402 210 402 210 410.5 191.5 c 128,-1,141
 419 173 419 173 427.5 156 c 128,-1,142
 436 139 436 139 444 129 c 128,-1,143
 452 119 452 119 455 126 c 2,144,-1
 566 381 l 1,0,1
EndSplineSet
Validated: 1
Substitution2: "'c2sc' Versalien in Kapit+AOQA-lchen in Lateinisch Nachschlagetabelle 0 Subtabelle" uni1D21
EndChar

StartChar: X
Encoding: 88 88 73
Width: 798
Flags: W
LayerCount: 2
Fore
SplineSet
778 13 m 0,0,1
 778 -6 778 -6 769.5 -7.5 c 128,-1,2
 761 -9 761 -9 745 -9 c 256,3,4
 730 -9 730 -9 719 -8 c 128,-1,5
 708 -7 708 -7 697.5 -6 c 128,-1,6
 687 -5 687 -5 676 -4 c 128,-1,7
 665 -3 665 -3 649 -3 c 0,8,9
 603 -3 603 -3 560.5 -5 c 128,-1,10
 518 -7 518 -7 472 -7 c 0,11,12
 461 -7 461 -7 457 2 c 128,-1,13
 453 11 453 11 458 22 c 1,14,15
 466 27 466 27 482.5 28 c 128,-1,16
 499 29 499 29 514.5 30.5 c 128,-1,17
 530 32 530 32 542.5 37 c 128,-1,18
 555 42 555 42 555 55 c 0,19,20
 555 61 555 61 552 67 c 128,-1,21
 549 73 549 73 546 78 c 0,22,23
 541 85 541 85 528 104 c 128,-1,24
 515 123 515 123 498 148 c 128,-1,25
 481 173 481 173 461.5 200 c 128,-1,26
 442 227 442 227 425 250 c 128,-1,27
 408 273 408 273 394 289.5 c 128,-1,28
 380 306 380 306 375 308 c 1,29,30
 364 302 364 302 357 292.5 c 128,-1,31
 350 283 350 283 343 273 c 0,32,33
 336 265 336 265 323.5 247.5 c 128,-1,34
 311 230 311 230 296.5 209 c 128,-1,35
 282 188 282 188 266.5 165 c 128,-1,36
 251 142 251 142 238 121 c 128,-1,37
 225 100 225 100 217 84 c 128,-1,38
 209 68 209 68 209 59 c 0,39,40
 209 43 209 43 225 38 c 128,-1,41
 241 33 241 33 260.5 30.5 c 128,-1,42
 280 28 280 28 295.5 23.5 c 128,-1,43
 311 19 311 19 311 4 c 0,44,45
 311 -2 311 -2 303 -4.5 c 128,-1,46
 295 -7 295 -7 287 -7 c 2,47,-1
 279 -7 l 2,48,49
 255 -7 255 -7 233 -4.5 c 128,-1,50
 211 -2 211 -2 187 -2 c 0,51,52
 167 -2 167 -2 150 -3 c 128,-1,53
 133 -4 133 -4 117 -4.5 c 128,-1,54
 101 -5 101 -5 85 -6 c 128,-1,55
 69 -7 69 -7 47 -7 c 0,56,57
 39 -7 39 -7 29.5 -4 c 128,-1,58
 20 -1 20 -1 20 10 c 0,59,60
 20 20 20 20 26.5 24.5 c 128,-1,61
 33 29 33 29 43.5 30.5 c 128,-1,62
 54 32 54 32 67.5 34 c 128,-1,63
 81 36 81 36 96 44 c 0,64,65
 116 55 116 55 135 74.5 c 128,-1,66
 154 94 154 94 171 116.5 c 128,-1,67
 188 139 188 139 204.5 162.5 c 128,-1,68
 221 186 221 186 238 206 c 0,69,70
 249 219 249 219 267.5 239.5 c 128,-1,71
 286 260 286 260 304 281.5 c 128,-1,72
 322 303 322 303 335 322 c 128,-1,73
 348 341 348 341 348 350 c 1,74,75
 337 373 337 373 320.5 393 c 128,-1,76
 304 413 304 413 290 433 c 0,77,78
 253 485 253 485 215.5 535 c 128,-1,79
 178 585 178 585 139 635 c 0,80,81
 129 647 129 647 120 660 c 128,-1,82
 111 673 111 673 99 684 c 0,83,84
 87 696 87 696 73 699.5 c 128,-1,85
 59 703 59 703 48.5 704.5 c 128,-1,86
 38 706 38 706 31 709 c 128,-1,87
 24 712 24 712 24 724 c 0,88,89
 24 735 24 735 35.5 738.5 c 128,-1,90
 47 742 47 742 55 742 c 0,91,92
 75 742 75 742 93.5 741 c 128,-1,93
 112 740 112 740 128.5 738.5 c 128,-1,94
 145 737 145 737 163 736 c 128,-1,95
 181 735 181 735 202 735 c 0,96,97
 229 735 229 735 256 738.5 c 128,-1,98
 283 742 283 742 309 742 c 2,99,-1
 319 742 l 2,100,101
 329 742 329 742 338 738.5 c 128,-1,102
 347 735 347 735 347 726 c 0,103,104
 347 711 347 711 331 707 c 128,-1,105
 315 703 315 703 295.5 702 c 128,-1,106
 276 701 276 701 260.5 698 c 128,-1,107
 245 695 245 695 245 682 c 0,108,109
 245 676 245 676 260 651 c 128,-1,110
 275 626 275 626 295.5 596 c 128,-1,111
 316 566 316 566 337 537 c 128,-1,112
 358 508 358 508 370 493 c 0,113,114
 373 490 373 490 379 481 c 128,-1,115
 385 472 385 472 391.5 462.5 c 128,-1,116
 398 453 398 453 404.5 445.5 c 128,-1,117
 411 438 411 438 415 438 c 0,118,119
 420 438 420 438 431.5 451 c 128,-1,120
 443 464 443 464 457.5 483.5 c 128,-1,121
 472 503 472 503 488 526.5 c 128,-1,122
 504 550 504 550 517.5 572 c 128,-1,123
 531 594 531 594 542.5 611.5 c 128,-1,124
 554 629 554 629 559 636 c 0,125,126
 564 642 564 642 571 655.5 c 128,-1,127
 578 669 578 669 578 676 c 0,128,129
 578 692 578 692 564 697.5 c 128,-1,130
 550 703 550 703 534 706 c 128,-1,131
 518 709 518 709 504 711.5 c 128,-1,132
 490 714 490 714 490 724 c 0,133,134
 490 737 490 737 503 739 c 128,-1,135
 516 741 516 741 525 741 c 0,136,137
 557 741 557 741 587.5 738 c 128,-1,138
 618 735 618 735 650 735 c 0,139,140
 675 735 675 735 697 737.5 c 128,-1,141
 719 740 719 740 744 740 c 0,142,143
 752 740 752 740 764 739 c 128,-1,144
 776 738 776 738 776 727 c 0,145,146
 776 721 776 721 771.5 717 c 128,-1,147
 767 713 767 713 762 711 c 0,148,149
 746 705 746 705 731.5 702 c 128,-1,150
 717 699 717 699 703.5 695 c 128,-1,151
 690 691 690 691 677 683.5 c 128,-1,152
 664 676 664 676 650 662 c 0,153,154
 597 604 597 604 549 540.5 c 128,-1,155
 501 477 501 477 455 415 c 0,156,157
 447 406 447 406 445 395 c 1,158,159
 450 380 450 380 459.5 366.5 c 128,-1,160
 469 353 469 353 478 340 c 0,161,162
 527 272 527 272 575 206.5 c 128,-1,163
 623 141 623 141 673 77 c 0,164,165
 680 68 680 68 687.5 59.5 c 128,-1,166
 695 51 695 51 706 45 c 0,167,168
 717 37 717 37 729.5 33.5 c 128,-1,169
 742 30 742 30 753 27.5 c 128,-1,170
 764 25 764 25 771 22 c 128,-1,171
 778 19 778 19 778 13 c 0,0,1
EndSplineSet
Validated: 1
Substitution2: "'c2sc' Versalien in Kapit+AOQA-lchen in Lateinisch Nachschlagetabelle 0 Subtabelle" x.sc
EndChar

StartChar: Y
Encoding: 89 89 74
Width: 801
Flags: W
LayerCount: 2
Fore
SplineSet
33 741 m 0,0,1
 62 741 62 741 89.5 737 c 128,-1,2
 117 733 117 733 145 733 c 0,3,4
 184 733 184 733 223.5 736.5 c 128,-1,5
 263 740 263 740 303 740 c 0,6,7
 308 740 308 740 316 735 c 128,-1,8
 324 730 324 730 324 725 c 0,9,10
 324 710 324 710 309.5 707.5 c 128,-1,11
 295 705 295 705 278 704 c 128,-1,12
 261 703 261 703 246.5 700.5 c 128,-1,13
 232 698 232 698 232 684 c 0,14,15
 232 673 232 673 242 655.5 c 128,-1,16
 252 638 252 638 265 619 c 128,-1,17
 278 600 278 600 291.5 582 c 128,-1,18
 305 564 305 564 314 552 c 0,19,20
 339 516 339 516 363.5 480.5 c 128,-1,21
 388 445 388 445 415 413 c 0,22,23
 418 409 418 409 420.5 405 c 128,-1,24
 423 401 423 401 428 399 c 0,25,26
 431 400 431 400 434.5 403.5 c 128,-1,27
 438 407 438 407 440 409 c 0,28,29
 446 415 446 415 462 436 c 128,-1,30
 478 457 478 457 499 485 c 128,-1,31
 520 513 520 513 542.5 545.5 c 128,-1,32
 565 578 565 578 584 605.5 c 128,-1,33
 603 633 603 633 615.5 652.5 c 128,-1,34
 628 672 628 672 628 676 c 0,35,36
 628 693 628 693 613.5 697.5 c 128,-1,37
 599 702 599 702 582 703.5 c 128,-1,38
 565 705 565 705 551 707.5 c 128,-1,39
 537 710 537 710 537 724 c 0,40,41
 537 736 537 736 542.5 737.5 c 128,-1,42
 548 739 548 739 558 739 c 0,43,44
 582 739 582 739 605.5 736 c 128,-1,45
 629 733 629 733 652 733 c 0,46,47
 679 733 679 733 705 736.5 c 128,-1,48
 731 740 731 740 758 740 c 0,49,50
 772 740 772 740 784 735 c 128,-1,51
 796 730 796 730 790 717 c 0,52,53
 786 709 786 709 775.5 706 c 128,-1,54
 765 703 765 703 752.5 701 c 128,-1,55
 740 699 740 699 727 694 c 128,-1,56
 714 689 714 689 702 676 c 0,57,58
 664 632 664 632 629 586 c 128,-1,59
 594 540 594 540 558 494 c 0,60,61
 542 474 542 474 522 450.5 c 128,-1,62
 502 427 502 427 484 403 c 128,-1,63
 466 379 466 379 454 354.5 c 128,-1,64
 442 330 442 330 442 307 c 2,65,-1
 442 103 l 2,66,67
 442 75 442 75 450.5 60.5 c 128,-1,68
 459 46 459 46 471 40 c 128,-1,69
 483 34 483 34 498 33 c 128,-1,70
 513 32 513 32 527 31.5 c 128,-1,71
 541 31 541 31 551 28.5 c 128,-1,72
 561 26 561 26 565 15 c 0,73,74
 565 6 565 6 561 -1 c 128,-1,75
 557 -8 557 -8 546 -8 c 0,76,77
 506 -8 506 -8 465.5 -4.5 c 128,-1,78
 425 -1 425 -1 385 -1 c 0,79,80
 348 -1 348 -1 311.5 -4.5 c 128,-1,81
 275 -8 275 -8 239 -8 c 0,82,83
 236 -8 236 -8 231.5 -7 c 128,-1,84
 227 -6 227 -6 227 -1 c 0,85,86
 222 14 222 14 233.5 20 c 128,-1,87
 245 26 245 26 263 28.5 c 128,-1,88
 281 31 281 31 299.5 34 c 128,-1,89
 318 37 318 37 330 49 c 0,90,91
 335 55 335 55 338 69 c 128,-1,92
 341 83 341 83 342.5 101 c 128,-1,93
 344 119 344 119 344.5 139.5 c 128,-1,94
 345 160 345 160 345 178 c 2,95,-1
 345 268 l 2,96,97
 345 300 345 300 344 321.5 c 128,-1,98
 343 343 343 343 331 360 c 0,99,100
 276 440 276 440 221 516.5 c 128,-1,101
 166 593 166 593 111 673 c 0,102,103
 100 689 100 689 82.5 696 c 128,-1,104
 65 703 65 703 49 707 c 128,-1,105
 33 711 33 711 21.5 714.5 c 128,-1,106
 10 718 10 718 10 729 c 0,107,108
 10 739 10 739 17.5 740 c 128,-1,109
 25 741 25 741 33 741 c 0,0,1
EndSplineSet
Validated: 1
Substitution2: "'c2sc' Versalien in Kapit+AOQA-lchen in Lateinisch Nachschlagetabelle 0 Subtabelle" uni028F
EndChar

StartChar: Z
Encoding: 90 90 75
Width: 775
Flags: W
LayerCount: 2
Fore
SplineSet
92 750 m 0,0,1
 103 750 103 750 108.5 749 c 128,-1,2
 114 748 114 748 118 746 c 128,-1,3
 122 744 122 744 127.5 742 c 128,-1,4
 133 740 133 740 144 739 c 1,5,6
 153 733 153 733 171.5 731 c 128,-1,7
 190 729 190 729 207 729 c 2,8,-1
 226 729 l 2,9,10
 272 729 272 729 328.5 730 c 128,-1,11
 385 731 385 731 444 731.5 c 128,-1,12
 503 732 503 732 559.5 733 c 128,-1,13
 616 734 616 734 663 734 c 0,14,15
 673 734 673 734 688 736.5 c 128,-1,16
 703 739 703 739 716 740 c 128,-1,17
 729 741 729 741 737.5 737 c 128,-1,18
 746 733 746 733 743 721 c 0,19,20
 743 720 743 720 726 699 c 128,-1,21
 709 678 709 678 679.5 644 c 128,-1,22
 650 610 650 610 612.5 566.5 c 128,-1,23
 575 523 575 523 536 477 c 128,-1,24
 497 431 497 431 457.5 385.5 c 128,-1,25
 418 340 418 340 385.5 301.5 c 128,-1,26
 353 263 353 263 330 236 c 128,-1,27
 307 209 307 209 300 200 c 0,28,29
 292 189 292 189 275 168.5 c 128,-1,30
 258 148 258 148 240 126 c 128,-1,31
 222 104 222 104 208.5 84.5 c 128,-1,32
 195 65 195 65 193 52 c 0,33,34
 193 44 193 44 199.5 40 c 128,-1,35
 206 36 206 36 215 35 c 128,-1,36
 224 34 224 34 234.5 34.5 c 128,-1,37
 245 35 245 35 253 35 c 0,38,39
 299 35 299 35 353 35.5 c 128,-1,40
 407 36 407 36 453 36 c 0,41,42
 489 36 489 36 530.5 37.5 c 128,-1,43
 572 39 572 39 608 49 c 0,44,45
 634 59 634 59 648 77 c 128,-1,46
 662 95 662 95 676 119 c 0,47,48
 682 130 682 130 686 144 c 128,-1,49
 690 158 690 158 695.5 168 c 128,-1,50
 701 178 701 178 709 180.5 c 128,-1,51
 717 183 717 183 729 173 c 1,52,53
 732 156 732 156 732 140 c 0,54,55
 732 123 732 123 727.5 105 c 128,-1,56
 723 87 723 87 720 70 c 0,57,58
 718 58 718 58 716.5 44 c 128,-1,59
 715 30 715 30 711 18 c 128,-1,60
 707 6 707 6 698.5 -1 c 128,-1,61
 690 -8 690 -8 674 -8 c 0,62,63
 635 -8 635 -8 596 -6 c 128,-1,64
 557 -4 557 -4 518 -4 c 2,65,-1
 429 -4 l 2,66,67
 336 -4 336 -4 235 -7.5 c 128,-1,68
 134 -11 134 -11 41 -11 c 0,69,70
 25 -11 25 -11 25 4 c 0,71,72
 25 6 25 6 41.5 27 c 128,-1,73
 58 48 58 48 85.5 82.5 c 128,-1,74
 113 117 113 117 148.5 160.5 c 128,-1,75
 184 204 184 204 222 250 c 128,-1,76
 260 296 260 296 297.5 341.5 c 128,-1,77
 335 387 335 387 366 424.5 c 128,-1,78
 397 462 397 462 419 489 c 128,-1,79
 441 516 441 516 449 525 c 256,80,81
 456 534 456 534 475.5 556 c 128,-1,82
 495 578 495 578 515.5 601 c 128,-1,83
 536 624 536 624 553 644.5 c 128,-1,84
 570 665 570 665 573 672 c 0,85,86
 575 674 575 674 578.5 679.5 c 128,-1,87
 582 685 582 685 583 688 c 0,88,89
 584 692 584 692 576 693.5 c 128,-1,90
 568 695 568 695 557 695 c 0,91,92
 547 695 547 695 536.5 694.5 c 128,-1,93
 526 694 526 694 523 694 c 2,94,-1
 452 694 l 2,95,96
 422 694 422 694 390 693.5 c 128,-1,97
 358 693 358 693 327 692.5 c 128,-1,98
 296 692 296 692 267 691.5 c 128,-1,99
 238 691 238 691 215 690 c 0,100,101
 182 688 182 688 155.5 680 c 128,-1,102
 129 672 129 672 105 646 c 0,103,104
 97 638 97 638 90 625.5 c 128,-1,105
 83 613 83 613 76.5 601 c 128,-1,106
 70 589 70 589 62.5 580 c 128,-1,107
 55 571 55 571 49 571 c 0,108,109
 44 571 44 571 34.5 574 c 128,-1,110
 25 577 25 577 28 585 c 0,111,112
 34 612 34 612 42 638.5 c 128,-1,113
 50 665 50 665 58 691 c 0,114,115
 66 714 66 714 72 732 c 128,-1,116
 78 750 78 750 92 750 c 0,0,1
EndSplineSet
Validated: 1
Substitution2: "'c2sc' Versalien in Kapit+AOQA-lchen in Lateinisch Nachschlagetabelle 0 Subtabelle" uni1D22
EndChar

StartChar: bracketleft
Encoding: 91 91 76
Width: 340
Flags: W
LayerCount: 2
Fore
SplineSet
343 734 m 0,0,1
 343 717 343 717 327.5 707 c 128,-1,2
 312 697 312 697 292 692 c 128,-1,3
 272 687 272 687 251.5 685.5 c 128,-1,4
 231 684 231 684 221 684 c 0,5,6
 212 684 212 684 203.5 685 c 128,-1,7
 195 686 195 686 186 686 c 0,8,9
 172 686 172 686 162.5 679.5 c 128,-1,10
 153 673 153 673 153 658 c 0,11,12
 149 600 149 600 148 544.5 c 128,-1,13
 147 489 147 489 147 431 c 0,14,15
 147 295 147 295 146.5 163 c 128,-1,16
 146 31 146 31 148 -105 c 0,17,18
 148 -112 148 -112 150.5 -126.5 c 128,-1,19
 153 -141 153 -141 158 -146 c 0,20,21
 166 -154 166 -154 183 -154 c 128,-1,22
 200 -154 200 -154 211 -154 c 0,23,24
 221 -154 221 -154 242.5 -155.5 c 128,-1,25
 264 -157 264 -157 286 -162.5 c 128,-1,26
 308 -168 308 -168 324 -177.5 c 128,-1,27
 340 -187 340 -187 339 -203 c 0,28,29
 338 -210 338 -210 333 -212 c 128,-1,30
 328 -214 328 -214 323 -214 c 0,31,32
 311 -214 311 -214 298.5 -209 c 128,-1,33
 286 -204 286 -204 273 -202 c 0,34,35
 244 -197 244 -197 215.5 -196 c 128,-1,36
 187 -195 187 -195 159 -200 c 0,37,38
 142 -203 142 -203 126 -209.5 c 128,-1,39
 110 -216 110 -216 92 -216 c 0,40,41
 82 -216 82 -216 79.5 -210 c 128,-1,42
 77 -204 77 -204 77 -196 c 2,43,-1
 79 730 l 2,44,45
 79 734 79 734 79.5 738.5 c 128,-1,46
 80 743 80 743 85 745 c 0,47,48
 87 747 87 747 94 748 c 0,49,50
 117 748 117 748 138.5 742 c 128,-1,51
 160 736 160 736 182 733 c 0,52,53
 193 731 193 731 205.5 730 c 128,-1,54
 218 729 218 729 229 729 c 0,55,56
 267 729 267 729 303 738 c 0,57,58
 311 740 311 740 319 743 c 128,-1,59
 327 746 327 746 335 746 c 0,60,61
 339 746 339 746 341 742 c 128,-1,62
 343 738 343 738 343 734 c 0,0,1
EndSplineSet
Validated: 33
EndChar

StartChar: backslash
Encoding: 92 92 77
Width: 334
Flags: W
LayerCount: 2
Fore
SplineSet
312 -22 m 1,0,1
 225 179 225 179 138 375.5 c 128,-1,2
 51 572 51 572 -36 773 c 1,3,-1
 23 773 l 1,4,5
 110 572 110 572 196.5 375.5 c 128,-1,6
 283 179 283 179 372 -22 c 1,7,-1
 312 -22 l 1,0,1
EndSplineSet
Validated: 1
EndChar

StartChar: bracketright
Encoding: 93 93 78
Width: 330
Flags: W
LayerCount: 2
Fore
SplineSet
0 734 m 0,0,1
 0 738 0 738 2 742 c 128,-1,2
 4 746 4 746 8 746 c 0,3,4
 16 746 16 746 24 743 c 128,-1,5
 32 740 32 740 40 738 c 0,6,7
 75 729 75 729 114 729 c 0,8,9
 125 729 125 729 137.5 730 c 128,-1,10
 150 731 150 731 161 733 c 0,11,12
 184 736 184 736 205 742 c 128,-1,13
 226 748 226 748 249 748 c 0,14,15
 256 748 256 748 258 745 c 0,16,17
 263 743 263 743 263.5 738.5 c 128,-1,18
 264 734 264 734 264 730 c 2,19,-1
 266 -196 l 2,20,21
 266 -204 266 -204 263.5 -210 c 128,-1,22
 261 -216 261 -216 251 -216 c 0,23,24
 234 -216 234 -216 218 -209.5 c 128,-1,25
 202 -203 202 -203 184 -200 c 0,26,27
 155 -195 155 -195 126.5 -196 c 128,-1,28
 98 -197 98 -197 70 -202 c 0,29,30
 58 -204 58 -204 45.5 -209 c 128,-1,31
 33 -214 33 -214 20 -214 c 0,32,33
 15 -214 15 -214 10 -212 c 128,-1,34
 5 -210 5 -210 4 -203 c 0,35,36
 3 -188 3 -188 19 -178 c 128,-1,37
 35 -168 35 -168 57 -162.5 c 128,-1,38
 79 -157 79 -157 100.5 -155.5 c 128,-1,39
 122 -154 122 -154 132 -154 c 0,40,41
 143 -154 143 -154 160 -154.5 c 128,-1,42
 177 -155 177 -155 185 -146 c 0,43,44
 190 -141 190 -141 192.5 -127 c 128,-1,45
 195 -113 195 -113 195 -105 c 0,46,47
 197 31 197 31 196.5 163 c 128,-1,48
 196 295 196 295 196 431 c 0,49,50
 196 489 196 489 195.5 544.5 c 128,-1,51
 195 600 195 600 190 658 c 0,52,53
 190 672 190 672 180.5 679 c 128,-1,54
 171 686 171 686 157 686 c 0,55,56
 149 686 149 686 140 685 c 128,-1,57
 131 684 131 684 122 684 c 0,58,59
 112 684 112 684 91.5 685.5 c 128,-1,60
 71 687 71 687 51 692 c 128,-1,61
 31 697 31 697 15.5 707 c 128,-1,62
 0 717 0 717 0 734 c 0,0,1
EndSplineSet
Validated: 33
EndChar

StartChar: asciicircum
Encoding: 94 94 79
Width: 395
Flags: W
LayerCount: 2
Fore
SplineSet
26 502 m 0,0,1
 20 502 20 502 19 509 c 0,2,3
 19 512 19 512 31.5 527.5 c 128,-1,4
 44 543 44 543 62.5 565 c 128,-1,5
 81 587 81 587 103 612 c 128,-1,6
 125 637 125 637 145 659 c 128,-1,7
 165 681 165 681 180 696.5 c 128,-1,8
 195 712 195 712 199 715 c 0,9,10
 202 714 202 714 209 707 c 0,11,12
 240 673 240 673 269 637.5 c 128,-1,13
 298 602 298 602 330 569 c 0,14,15
 331 567 331 567 338.5 559 c 128,-1,16
 346 551 346 551 353.5 541.5 c 128,-1,17
 361 532 361 532 368 524.5 c 128,-1,18
 375 517 375 517 375 517 c 2,19,20
 377 511 377 511 377 509 c 0,21,22
 377 502 377 502 368 502 c 0,23,24
 360 502 360 502 336 518.5 c 128,-1,25
 312 535 312 535 285 555 c 128,-1,26
 258 575 258 575 233.5 595 c 128,-1,27
 209 615 209 615 199 623 c 1,28,29
 188 615 188 615 163 594.5 c 128,-1,30
 138 574 138 574 111 554 c 128,-1,31
 84 534 84 534 60 518 c 128,-1,32
 36 502 36 502 26 502 c 0,0,1
EndSplineSet
Validated: 1
EndChar

StartChar: underscore
Encoding: 95 95 80
Width: 618
Flags: W
LayerCount: 2
Fore
SplineSet
10 -142 m 1,0,-1
 10 -86 l 1,1,-1
 608 -86 l 1,2,-1
 608 -142 l 1,3,-1
 10 -142 l 1,0,-1
EndSplineSet
Validated: 1
EndChar

StartChar: grave
Encoding: 96 96 81
Width: 447
Flags: W
LayerCount: 2
Fore
SplineSet
150 714 m 0,0,1
 156 719 156 719 158.5 721 c 128,-1,2
 161 723 161 723 164 725 c 128,-1,3
 167 727 167 727 171.5 730 c 128,-1,4
 176 733 176 733 185 740 c 0,5,6
 190 748 190 748 197.5 744.5 c 128,-1,7
 205 741 205 741 207 736 c 0,8,9
 212 726 212 726 228 701 c 128,-1,10
 244 676 244 676 261.5 649 c 128,-1,11
 279 622 279 622 292.5 598 c 128,-1,12
 306 574 306 574 307 567 c 0,13,14
 310 557 310 557 302.5 552 c 128,-1,15
 295 547 295 547 286 556 c 0,16,17
 276 565 276 565 256.5 583 c 128,-1,18
 237 601 237 601 216 621.5 c 128,-1,19
 195 642 195 642 176.5 660.5 c 128,-1,20
 158 679 158 679 148 690 c 0,21,22
 142 697 142 697 142 702 c 128,-1,23
 142 707 142 707 150 714 c 0,0,1
EndSplineSet
Validated: 1
EndChar

StartChar: a
Encoding: 97 97 82
Width: 567
Flags: W
LayerCount: 2
Fore
SplineSet
344 214 m 1,0,1
 344 226 344 226 343.5 234.5 c 128,-1,2
 343 243 343 243 342 249 c 1,3,4
 331 247 331 247 317 242.5 c 128,-1,5
 303 238 303 238 288.5 233 c 128,-1,6
 274 228 274 228 260.5 222.5 c 128,-1,7
 247 217 247 217 236 214 c 0,8,9
 204 202 204 202 177.5 179.5 c 128,-1,10
 151 157 151 157 151 120 c 0,11,12
 151 87 151 87 166.5 66 c 128,-1,13
 182 45 182 45 219 45 c 0,14,15
 244 45 244 45 269.5 57.5 c 128,-1,16
 295 70 295 70 311 87 c 0,17,18
 320 96 320 96 331 114.5 c 128,-1,19
 342 133 342 133 343 146 c 0,20,21
 343 154 343 154 343.5 157 c 128,-1,22
 344 160 344 160 344 162 c 2,23,-1
 344 214 l 1,24,-1
 344 214 l 1,0,1
543 83 m 0,25,26
 543 82 543 82 540 72 c 0,27,28
 531 34 531 34 500.5 11 c 128,-1,29
 470 -12 470 -12 431 -12 c 256,30,31
 392 -12 392 -12 369.5 13 c 128,-1,32
 347 38 347 38 337 73 c 1,33,34
 324 55 324 55 304.5 38.5 c 128,-1,35
 285 22 285 22 261.5 8.5 c 128,-1,36
 238 -5 238 -5 213 -12.5 c 128,-1,37
 188 -20 188 -20 164 -20 c 0,38,39
 104 -20 104 -20 79.5 15 c 128,-1,40
 55 50 55 50 55 103 c 0,41,42
 55 129 55 129 69 150.5 c 128,-1,43
 83 172 83 172 103.5 190 c 128,-1,44
 124 208 124 208 148 221 c 128,-1,45
 172 234 172 234 193 242 c 0,46,47
 234 257 234 257 268 268.5 c 128,-1,48
 302 280 302 280 344 290 c 1,49,-1
 344 381 l 2,50,51
 344 431 344 431 326 461 c 128,-1,52
 308 491 308 491 255 491 c 0,53,54
 220 491 220 491 198.5 478.5 c 128,-1,55
 177 466 177 466 164.5 449 c 128,-1,56
 152 432 152 432 147.5 415.5 c 128,-1,57
 143 399 143 399 140 390 c 0,58,59
 134 371 134 371 115.5 358.5 c 128,-1,60
 97 346 97 346 74 346 c 0,61,62
 61 346 61 346 59 357 c 128,-1,63
 57 368 57 368 57 377 c 0,64,65
 57 405 57 405 80.5 435.5 c 128,-1,66
 104 466 104 466 138 492 c 128,-1,67
 172 518 172 518 212 534.5 c 128,-1,68
 252 551 252 551 285 551 c 0,69,70
 293 551 293 551 306 549 c 128,-1,71
 319 547 319 547 331.5 545 c 128,-1,72
 344 543 344 543 356 539.5 c 128,-1,73
 368 536 368 536 375 532 c 0,74,75
 414 512 414 512 423.5 479.5 c 128,-1,76
 433 447 433 447 433 407 c 0,77,78
 433 362 433 362 432 312 c 128,-1,79
 431 262 431 262 431 217 c 0,80,81
 431 206 431 206 430 185.5 c 128,-1,82
 429 165 429 165 430 143.5 c 128,-1,83
 431 122 431 122 432.5 102.5 c 128,-1,84
 434 83 434 83 439 75 c 0,85,86
 444 67 444 67 453 64 c 128,-1,87
 462 61 462 61 472 61 c 0,88,89
 485 61 485 61 493 65.5 c 128,-1,90
 501 70 501 70 507 75 c 128,-1,91
 513 80 513 80 518 85 c 128,-1,92
 523 90 523 90 528 91 c 0,93,94
 543 95 543 95 543 83 c 0,25,26
EndSplineSet
Validated: 37
Substitution2: "'smcp' Gemeine in Kapit+AOQA-lchen in Lateinisch Nachschlagetabelle 0 Subtabelle" uni1D00
EndChar

StartChar: b
Encoding: 98 98 83
Width: 677
Flags: W
LayerCount: 2
Fore
SplineSet
513 235 m 0,0,1
 513 283 513 283 500 328.5 c 128,-1,2
 487 374 487 374 460.5 409.5 c 128,-1,3
 434 445 434 445 394 466 c 128,-1,4
 354 487 354 487 301 487 c 0,5,6
 272 487 272 487 254.5 479.5 c 128,-1,7
 237 472 237 472 212 455 c 0,8,9
 200 444 200 444 201 429 c 128,-1,10
 202 414 202 414 202 400 c 2,11,-1
 202 180 l 2,12,13
 202 154 202 154 208 130.5 c 128,-1,14
 214 107 214 107 230 87 c 0,15,16
 254 60 254 60 280 43 c 128,-1,17
 306 26 306 26 341 26 c 0,18,19
 382 26 382 26 414.5 44.5 c 128,-1,20
 447 63 447 63 469 93 c 128,-1,21
 491 123 491 123 502 160 c 128,-1,22
 513 197 513 197 513 235 c 0,0,1
618 270 m 0,23,24
 618 208 618 208 593.5 155.5 c 128,-1,25
 569 103 569 103 528 65 c 0,26,27
 487 26 487 26 432 6 c 0,28,29
 378 -15 378 -15 317 -15 c 0,30,31
 305 -15 305 -15 298 -15 c 0,32,33
 290 -15 290 -15 283 -12.5 c 128,-1,34
 276 -10 276 -10 268 -8 c 0,35,36
 261 -6 261 -6 250 -2 c 0,37,38
 241 0 241 0 222 9 c 0,39,40
 201 19 201 19 179 19 c 0,41,42
 166 19 166 19 159 15 c 0,43,44
 151 10 151 10 146 5 c 0,45,46
 134 -6 134 -6 134 -6 c 0,47,48
 134 -7 134 -7 119 -15 c 0,49,50
 105 -23 105 -23 97 -17 c 0,51,52
 90 -12 90 -12 94 2 c 0,53,54
 105 41 105 41 107 101 c 0,55,56
 109 217 109 217 110 217 c 2,57,-1
 110 297 l 2,58,59
 110 517 110 517 110 520 c 0,60,61
 107 606 107 606 106 631 c 2,62,-1
 106 674 l 2,63,64
 106 703 106 703 95 714 c 0,65,66
 84 726 84 726 71 731 c 0,67,68
 59 736 59 736 47 739 c 0,69,70
 36 742 36 742 35 750 c 256,71,72
 35 761 35 761 46 766 c 0,73,74
 78 775 78 775 99 785 c 0,75,76
 121 794 121 794 135 802 c 0,77,78
 149 809 149 809 159 814 c 128,-1,79
 169 819 169 819 179 819 c 0,80,81
 195 819 195 819 200 808 c 0,82,83
 205 794 205 794 204 789 c 0,84,85
 202 762 202 762 201 755 c 0,86,87
 198 721 198 721 198 721 c 0,88,89
 199 709 199 709 200 658 c 0,90,91
 202 573 202 573 199 480 c 1,92,93
 220 494 220 494 239 507 c 0,94,95
 257 520 257 520 275.5 528.5 c 128,-1,96
 294 537 294 537 314 542 c 0,97,98
 334 548 334 548 361 547 c 0,99,100
 417 547 417 547 464 524 c 0,101,102
 511 500 511 500 545 461 c 0,103,104
 580 422 580 422 599 373 c 0,105,106
 618 323 618 323 618 270 c 0,23,24
EndSplineSet
Validated: 33
Substitution2: "'smcp' Gemeine in Kapit+AOQA-lchen in Lateinisch Nachschlagetabelle 0 Subtabelle" uni0299
EndChar

StartChar: c
Encoding: 99 99 84
Width: 538
Flags: W
LayerCount: 2
Fore
SplineSet
495 461 m 0,0,1
 496 441 496 441 483.5 430 c 128,-1,2
 471 419 471 419 452 419 c 256,3,4
 433 419 433 419 417.5 433 c 128,-1,5
 402 447 402 447 387 464 c 128,-1,6
 372 481 372 481 354 495.5 c 128,-1,7
 336 510 336 510 313 510 c 0,8,9
 268 510 268 510 237 488 c 128,-1,10
 206 466 206 466 187 432 c 128,-1,11
 168 398 168 398 159.5 357 c 128,-1,12
 151 316 151 316 151 277 c 0,13,14
 151 235 151 235 161.5 193.5 c 128,-1,15
 172 152 172 152 194.5 119.5 c 128,-1,16
 217 87 217 87 251 67 c 128,-1,17
 285 47 285 47 333 47 c 2,18,-1
 359 47 l 2,19,20
 390 47 390 47 417 60 c 128,-1,21
 444 73 444 73 467 92 c 0,22,23
 473 97 473 97 478.5 101 c 128,-1,24
 484 105 484 105 490 109 c 1,25,26
 497 103 497 103 497 94 c 0,27,28
 497 83 497 83 488.5 73 c 128,-1,29
 480 63 480 63 474 54 c 0,30,31
 467 45 467 45 454.5 35 c 128,-1,32
 442 25 442 25 427.5 15.5 c 128,-1,33
 413 6 413 6 398 -1 c 128,-1,34
 383 -8 383 -8 373 -12 c 0,35,36
 332 -25 332 -25 296 -25 c 0,37,38
 241 -25 241 -25 196.5 -3 c 128,-1,39
 152 19 152 19 121.5 56 c 128,-1,40
 91 93 91 93 75 141.5 c 128,-1,41
 59 190 59 190 59 244 c 0,42,43
 58 304 58 304 77 358.5 c 128,-1,44
 96 413 96 413 132 455 c 128,-1,45
 168 497 168 497 218 521.5 c 128,-1,46
 268 546 268 546 329 546 c 0,47,48
 348 546 348 546 377 542.5 c 128,-1,49
 406 539 406 539 432 529.5 c 128,-1,50
 458 520 458 520 476.5 503.5 c 128,-1,51
 495 487 495 487 495 461 c 0,0,1
EndSplineSet
Validated: 33
Substitution2: "'smcp' Gemeine in Kapit+AOQA-lchen in Lateinisch Nachschlagetabelle 0 Subtabelle" uni1D04
EndChar

StartChar: d
Encoding: 100 100 85
Width: 693
Flags: W
LayerCount: 2
Fore
SplineSet
470 214 m 0,0,1
 470 258 470 258 470.5 307 c 128,-1,2
 471 356 471 356 461 398.5 c 128,-1,3
 451 441 451 441 425.5 469 c 128,-1,4
 400 497 400 497 348 497 c 0,5,6
 300 497 300 497 265 478 c 128,-1,7
 230 459 230 459 206.5 427.5 c 128,-1,8
 183 396 183 396 171.5 355.5 c 128,-1,9
 160 315 160 315 160 271 c 0,10,11
 160 225 160 225 174 184 c 128,-1,12
 188 143 188 143 213 111 c 128,-1,13
 238 79 238 79 276.5 60.5 c 128,-1,14
 315 42 315 42 365 42 c 0,15,16
 373 42 373 42 389 48 c 128,-1,17
 405 54 405 54 421.5 62.5 c 128,-1,18
 438 71 438 71 451.5 79.5 c 128,-1,19
 465 88 465 88 468 96 c 0,20,21
 467 127 467 127 468.5 157 c 128,-1,22
 470 187 470 187 470 214 c 0,0,1
651 32 m 0,23,24
 651 25 651 25 645 19 c 0,25,26
 642 15 642 15 619 8 c 0,27,28
 596 1 596 1 568 -6 c 0,29,30
 541 -13 541 -13 515 -18 c 0,31,32
 490 -23 490 -23 482 -24 c 256,33,34
 475 -24 475 -24 474 -22 c 0,35,36
 468 -15 468 -15 468 -1 c 0,37,38
 470 8 470 8 470 17 c 0,39,40
 471 25 471 25 471 34 c 0,41,42
 471 39 471 39 470 45 c 0,43,44
 469 51 469 51 464 53 c 1,45,46
 455 48 455 48 445 41 c 0,47,48
 436 34 436 34 427 28 c 0,49,50
 385 5 385 5 357 -6 c 0,51,52
 329 -16 329 -16 296 -17 c 0,53,54
 246 -17 246 -17 202 4 c 0,55,56
 159 24 159 24 127 58 c 128,-1,57
 95 92 95 92 77 136 c 128,-1,58
 59 180 59 180 59 230 c 0,59,60
 59 292 59 292 80 346 c 0,61,62
 101 401 101 401 139.5 441.5 c 128,-1,63
 178 482 178 482 231 506 c 0,64,65
 285 530 285 530 347 530 c 0,66,67
 367 530 367 530 380.5 528 c 128,-1,68
 394 526 394 526 406 523 c 0,69,70
 418 520 418 520 431 514 c 0,71,72
 444 509 444 509 462 501 c 1,73,74
 468 507 468 507 470 514 c 0,75,76
 473 528 473 528 472 528 c 0,77,78
 471 542 471 542 471 557 c 0,79,80
 471 595 471 595 471 598 c 0,81,82
 471 606 471 606 471 615 c 0,83,84
 471 692 471 692 470 698 c 0,85,86
 468 725 468 725 459 729 c 0,87,88
 428 742 428 742 428 743 c 0,89,90
 421 746 421 746 407 752 c 0,91,92
 395 757 395 757 394 768 c 0,93,94
 393 773 393 773 401 780 c 0,95,96
 408 786 408 786 416 788 c 0,97,98
 439 790 439 790 463 795 c 0,99,100
 486 800 486 800 506 805 c 0,101,102
 524 810 524 810 538 814 c 0,103,104
 551 817 551 817 555 817 c 0,105,106
 560 817 560 817 562 813 c 0,107,108
 564 810 564 810 565 805 c 2,109,-1
 565 697 l 2,110,111
 563 652 563 652 564 649 c 0,112,113
 565 633 565 633 564 616 c 0,114,115
 564 420 564 420 562 414 c 0,116,117
 561 411 561 411 560 124 c 2,118,-1
 560 106 l 2,119,120
 560 86 560 86 562 73 c 0,121,122
 564 54 564 54 570 48 c 0,123,124
 577 41 577 41 592 41 c 0,125,126
 603 41 603 41 613 43 c 0,127,128
 633 47 633 47 633 47 c 0,129,130
 640 47 640 47 645 43 c 0,131,132
 651 40 651 40 651 32 c 0,23,24
EndSplineSet
Validated: 33
Substitution2: "'smcp' Gemeine in Kapit+AOQA-lchen in Lateinisch Nachschlagetabelle 0 Subtabelle" uni1D05
EndChar

StartChar: e
Encoding: 101 101 86
Width: 539
Flags: W
LayerCount: 2
Fore
SplineSet
394 413 m 0,0,1
 394 433 394 433 385 452 c 128,-1,2
 376 471 376 471 362 485 c 128,-1,3
 348 499 348 499 329.5 507.5 c 128,-1,4
 311 516 311 516 293 516 c 0,5,6
 268 516 268 516 244.5 503.5 c 128,-1,7
 221 491 221 491 202.5 471 c 128,-1,8
 184 451 184 451 173.5 425.5 c 128,-1,9
 163 400 163 400 163 375 c 0,10,11
 163 370 163 370 170.5 368.5 c 128,-1,12
 178 367 178 367 188 366.5 c 128,-1,13
 198 366 198 366 207.5 366.5 c 128,-1,14
 217 367 217 367 219 367 c 0,15,16
 252 367 252 367 274 366.5 c 128,-1,17
 296 366 296 366 328 368 c 0,18,19
 342 369 342 369 354 370.5 c 128,-1,20
 366 372 366 372 374.5 375.5 c 128,-1,21
 383 379 383 379 388.5 387.5 c 128,-1,22
 394 396 394 396 394 413 c 0,0,1
492 355 m 0,23,24
 492 340 492 340 487 331 c 0,25,26
 481 330 481 330 474.5 329.5 c 128,-1,27
 468 329 468 329 462 329 c 2,28,-1
 169 329 l 2,29,30
 164 329 164 329 157 327 c 0,31,32
 153 327 153 327 152 317.5 c 128,-1,33
 151 308 151 308 151 298 c 2,34,-1
 151 289 l 2,35,36
 152 241 152 241 162 197 c 128,-1,37
 172 153 172 153 194.5 120 c 128,-1,38
 217 87 217 87 253.5 67.5 c 128,-1,39
 290 48 290 48 344 48 c 0,40,41
 366 48 366 48 383.5 51.5 c 128,-1,42
 401 55 401 55 416 62.5 c 128,-1,43
 431 70 431 70 445.5 80.5 c 128,-1,44
 460 91 460 91 478 104 c 0,45,46
 479 105 479 105 487 105 c 256,47,48
 495 105 495 105 495 98 c 0,49,50
 495 92 495 92 488.5 82.5 c 128,-1,51
 482 73 482 73 474 63.5 c 128,-1,52
 466 54 466 54 457 46 c 128,-1,53
 448 38 448 38 444 34 c 0,54,55
 407 3 407 3 373 -10.5 c 128,-1,56
 339 -24 339 -24 291 -24 c 0,57,58
 236 -24 236 -24 193.5 -4.5 c 128,-1,59
 151 15 151 15 121.5 50 c 128,-1,60
 92 85 92 85 76.5 131 c 128,-1,61
 61 177 61 177 60 230 c 0,62,63
 59 285 59 285 71 342 c 128,-1,64
 83 399 83 399 110 444.5 c 128,-1,65
 137 490 137 490 181 518.5 c 128,-1,66
 225 547 225 547 288 547 c 0,67,68
 359 547 359 547 409 517 c 128,-1,69
 459 487 459 487 480 416 c 0,70,71
 485 401 485 401 488 385.5 c 128,-1,72
 491 370 491 370 492 355 c 0,23,24
EndSplineSet
Validated: 33
Substitution2: "'smcp' Gemeine in Kapit+AOQA-lchen in Lateinisch Nachschlagetabelle 0 Subtabelle" uni1D07
EndChar

StartChar: f
Encoding: 102 102 87
Width: 345
Flags: W
HStem: -8 22G<55 75 273 291> 472 46<30 114 219 371> 761 51<273 413>
VStem: 119 92<41 468 519 641>
LayerCount: 2
Fore
SplineSet
524 738 m 0,0,1
 528 726 528 726 520 714.5 c 128,-1,2
 512 703 512 703 499 697 c 0,3,4
 486 690 486 690 471 689 c 0,5,6
 458 688 458 688 447 695 c 0,7,8
 440 699 440 699 436 711 c 0,9,10
 432 722 432 722 421 733 c 0,11,12
 410 744 410 744 386 752 c 0,13,14
 363 761 363 761 316 761 c 0,15,16
 292 761 292 761 274 748 c 0,17,18
 256 735 256 735 244 713 c 0,19,20
 230 687 230 687 225 666 c 0,21,22
 215 613 215 613 215 612 c 0,23,24
 213 611 213 611 210 575 c 2,25,26
 208 559 208 559 209 557 c 1,27,28
 208 553 208 553 209 539 c 0,29,30
 210 524 210 524 215 518 c 1,31,-1
 348 518 l 2,32,33
 378 512 378 512 370 512 c 0,34,35
 370 512 370 512 371 503 c 0,36,37
 371 499 371 499 371 494 c 0,38,39
 372 485 372 485 365 474 c 0,40,41
 364 473 364 473 352 473 c 0,42,43
 346 472 346 472 338 472 c 2,44,-1
 265 472 l 2,45,46
 253 472 253 472 241 472 c 0,47,48
 231 472 231 472 219 471 c 1,49,50
 210 463 210 463 211 449 c 0,51,52
 212 443 212 443 212 361 c 0,53,54
 212 290 212 290 212 222 c 0,55,56
 211 153 211 153 211 82 c 0,57,58
 211 59 211 59 219 48 c 0,59,60
 227 37 227 37 240.5 31.5 c 128,-1,61
 254 26 254 26 271 24 c 0,62,63
 303 21 303 21 309 19 c 0,64,65
 314 18 314 18 314 8 c 256,66,67
 314 1 314 1 308 -1 c 1,68,-1
 307 -4 l 1,69,70
 298 -8 298 -8 284 -8 c 0,71,72
 262 -8 262 -8 239 -5 c 0,73,74
 217 -2 217 -2 195 -2 c 0,75,76
 161 -2 161 -2 126 -5 c 0,77,78
 92 -8 92 -8 58 -8 c 0,79,80
 52 -8 52 -8 39.5 -7 c 128,-1,81
 27 -6 27 -6 27 2 c 0,82,83
 26 16 26 16 41 19 c 0,84,85
 55 22 55 22 73 26 c 128,-1,86
 91 30 91 30 105 41 c 128,-1,87
 119 52 119 52 119 81 c 2,88,-1
 119 440 l 2,89,90
 119 459 119 459 115 468 c 1,91,92
 87 471 87 471 60 471 c 0,93,94
 52 471 52 471 38 473 c 0,95,96
 26 475 26 475 27 486 c 0,97,98
 27 490 27 490 27 496 c 0,99,100
 28 502 28 502 30 506 c 0,101,102
 34 511 34 511 45 513 c 0,103,104
 56 515 56 515 70 517 c 0,105,106
 84 519 84 519 97 519 c 0,107,108
 111 520 111 520 117 523 c 1,109,110
 121 548 121 548 123 559 c 0,111,112
 124 584 124 584 134 620 c 0,113,114
 145 659 145 659 166.5 694 c 128,-1,115
 188 729 188 729 220 756 c 0,116,117
 251 783 251 783 292 798 c 0,118,119
 333 813 333 813 381 812 c 0,120,121
 405 812 405 812 431 809 c 128,-1,122
 457 806 457 806 477 797 c 128,-1,123
 497 788 497 788 510 774 c 0,124,125
 515 768 515 768 524 738 c 0,0,1
EndSplineSet
Validated: 33
Substitution2: "'smcp' Gemeine in Kapit+AOQA-lchen in Lateinisch Nachschlagetabelle 0 Subtabelle" uniA730
EndChar

StartChar: g
Encoding: 103 103 88
Width: 608
Flags: W
LayerCount: 2
Fore
SplineSet
401 369 m 0,0,1
 397 398 397 398 389.5 423.5 c 128,-1,2
 382 449 382 449 367.5 467 c 128,-1,3
 353 485 353 485 328.5 493 c 128,-1,4
 304 501 304 501 269 498 c 0,5,6
 238 494 238 494 218.5 479 c 128,-1,7
 199 464 199 464 187.5 443 c 128,-1,8
 176 422 176 422 172 399.5 c 128,-1,9
 168 377 168 377 169 361 c 0,10,11
 171 334 171 334 178.5 307 c 128,-1,12
 186 280 186 280 201 259 c 128,-1,13
 216 238 216 238 239.5 227 c 128,-1,14
 263 216 263 216 296 219 c 0,15,16
 330 223 330 223 352 235 c 128,-1,17
 374 247 374 247 385 266 c 128,-1,18
 396 285 396 285 399.5 311 c 128,-1,19
 403 337 403 337 401 369 c 0,0,1
521 -146 m 0,20,21
 521 -75 521 -75 473 -43 c 128,-1,22
 425 -11 425 -11 329 -12 c 0,23,24
 241 -12 241 -12 192 -50 c 128,-1,25
 143 -88 143 -88 143 -166 c 0,26,27
 143 -191 143 -191 158 -213 c 128,-1,28
 173 -235 173 -235 198 -251.5 c 128,-1,29
 223 -268 223 -268 254 -277.5 c 128,-1,30
 285 -287 285 -287 316 -287 c 0,31,32
 353 -287 353 -287 389.5 -276 c 128,-1,33
 426 -265 426 -265 455.5 -246.5 c 128,-1,34
 485 -228 485 -228 503 -202.5 c 128,-1,35
 521 -177 521 -177 521 -146 c 0,20,21
50 -157 m 0,36,37
 50 -144 50 -144 57 -125 c 128,-1,38
 64 -106 64 -106 80.5 -85 c 128,-1,39
 97 -64 97 -64 123.5 -42 c 128,-1,40
 150 -20 150 -20 190 0 c 1,41,42
 123 -6 123 -6 88 19 c 128,-1,43
 53 44 53 44 53 83 c 0,44,45
 52 100 52 100 68.5 116.5 c 128,-1,46
 85 133 85 133 109.5 147.5 c 128,-1,47
 134 162 134 162 162.5 173 c 128,-1,48
 191 184 191 184 214 189 c 1,49,50
 187 203 187 203 162 219 c 128,-1,51
 137 235 137 235 118 255 c 128,-1,52
 99 275 99 275 88.5 300.5 c 128,-1,53
 78 326 78 326 78 357 c 0,54,55
 78 401 78 401 95 435.5 c 128,-1,56
 112 470 112 470 140.5 493 c 128,-1,57
 169 516 169 516 206 528 c 128,-1,58
 243 540 243 540 284 540 c 0,59,60
 316 540 316 540 344 530.5 c 128,-1,61
 372 521 372 521 401 508 c 0,62,63
 415 502 415 502 427.5 494 c 128,-1,64
 440 486 440 486 459 477 c 0,65,66
 483 465 483 465 507.5 469.5 c 128,-1,67
 532 474 532 474 559 474 c 0,68,69
 572 474 572 474 575.5 463 c 128,-1,70
 579 452 579 452 579 442 c 0,71,72
 579 430 579 430 570.5 425 c 128,-1,73
 562 420 562 420 549.5 419 c 128,-1,74
 537 418 537 418 522.5 418.5 c 128,-1,75
 508 419 508 419 498 419 c 0,76,77
 489 419 489 419 490.5 417.5 c 128,-1,78
 492 416 492 416 485 411 c 1,79,80
 487 398 487 398 488.5 389.5 c 128,-1,81
 490 381 490 381 490 367 c 0,82,83
 490 354 490 354 488.5 346.5 c 128,-1,84
 487 339 487 339 482 326 c 0,85,86
 465 269 465 269 423 230.5 c 128,-1,87
 381 192 381 192 321 184 c 0,88,89
 302 182 302 182 273 176.5 c 128,-1,90
 244 171 244 171 217.5 162 c 128,-1,91
 191 153 191 153 172 139 c 128,-1,92
 153 125 153 125 153 106 c 0,93,94
 153 82 153 82 173 73.5 c 128,-1,95
 193 65 193 65 222.5 64.5 c 128,-1,96
 252 64 252 64 286 68 c 128,-1,97
 320 72 320 72 348 74 c 0,98,99
 392 78 392 78 436 68 c 128,-1,100
 480 58 480 58 515 34.5 c 128,-1,101
 550 11 550 11 571.5 -26.5 c 128,-1,102
 593 -64 593 -64 593 -113 c 0,103,104
 594 -185 594 -185 565.5 -229.5 c 128,-1,105
 537 -274 537 -274 491.5 -298 c 128,-1,106
 446 -322 446 -322 392.5 -330.5 c 128,-1,107
 339 -339 339 -339 289 -339 c 0,108,109
 241 -339 241 -339 196.5 -324.5 c 128,-1,110
 152 -310 152 -310 119 -286 c 128,-1,111
 86 -262 86 -262 67.5 -229 c 128,-1,112
 49 -196 49 -196 50 -157 c 0,36,37
EndSplineSet
Validated: 33
Substitution2: "'smcp' Gemeine in Kapit+AOQA-lchen in Lateinisch Nachschlagetabelle 0 Subtabelle" uni0262
EndChar

StartChar: h
Encoding: 104 104 89
Width: 685
Flags: W
LayerCount: 2
Fore
SplineSet
652 13 m 0,0,1
 652 4 652 4 650 4 c 2,2,-1
 649 4 l 1,3,4
 646 -6 646 -6 642 -8 c 0,5,6
 638 -10 638 -10 629 -9 c 0,7,8
 603 -9 603 -9 577 -6 c 0,9,10
 551 -2 551 -2 526 -2 c 0,11,12
 499 -2 499 -2 474 -6 c 0,13,14
 449 -9 449 -9 421 -9 c 0,15,16
 410 -9 410 -9 398 -8 c 0,17,18
 386 -7 386 -7 386 7 c 0,19,20
 386 18 386 18 399 21 c 0,21,22
 412 23 412 23 429 26 c 0,23,24
 445 30 445 30 459 42 c 0,25,26
 473 54 473 54 473 88 c 2,27,-1
 473 382 l 2,28,29
 473 432 473 432 438 455 c 0,30,31
 403 478 403 478 357 478 c 0,32,33
 263 478 263 478 226 388 c 1,34,35
 226 310 226 310 225 233.5 c 128,-1,36
 224 157 224 157 224 79 c 0,37,38
 224 54 224 54 234 44 c 0,39,40
 243 35 243 35 259 31 c 0,41,42
 273 27 273 27 290 26 c 0,43,44
 307 25 307 25 321 17 c 1,45,46
 324 8 324 8 323 6 c 0,47,48
 323 -7 323 -7 313.5 -8 c 128,-1,49
 304 -9 304 -9 295 -9 c 0,50,51
 246 -9 246 -9 241 -6 c 0,52,53
 236 -2 236 -2 188 -2 c 2,54,-1
 155 -2 l 2,55,56
 140 -2 140 -2 139 -3 c 0,57,58
 131 -3 131 -3 123 -5 c 0,59,60
 109 -6 109 -6 94 -7.5 c 128,-1,61
 79 -9 79 -9 65 -9 c 0,62,63
 55 -9 55 -9 48 -8 c 0,64,65
 41 -6 41 -6 41 6 c 0,66,67
 41 14 41 14 50 19 c 0,68,69
 58 24 58 24 69 26 c 0,70,71
 80 29 80 29 91 30 c 0,72,73
 102 32 102 32 109 35 c 0,74,75
 118 42 118 42 128 67 c 0,76,77
 132 77 132 77 132 105 c 2,78,-1
 131 682 l 2,79,80
 131 699 131 699 118 711 c 0,81,82
 105 721 105 721 92 728 c 0,83,84
 78 735 78 735 65 741 c 0,85,86
 52 746 52 746 53 753 c 0,87,88
 53 759 53 759 58 764 c 0,89,90
 64 768 64 768 69 769 c 0,91,92
 101 773 101 773 127 785 c 0,93,94
 178 810 178 810 211 818 c 0,95,96
 216 819 216 819 220 812 c 0,97,98
 221 810 221 810 222 790 c 0,99,100
 222 769 222 769 223 740 c 256,101,102
 223 711 223 711 223 675 c 0,103,104
 223 671 223 671 224 608 c 2,105,-1
 225 461 l 2,106,107
 225 459 225 459 228 449 c 1,108,109
 248 466 248 466 267.5 484.5 c 128,-1,110
 287 503 287 503 308 516 c 0,111,112
 329 529 329 529 353 538 c 0,113,114
 378 546 378 546 407 546 c 0,115,116
 460 546 460 546 492 528 c 0,117,118
 523 510 523 510 541 481 c 0,119,120
 560 447 560 447 563 411 c 0,121,122
 568 328 568 328 567 327 c 2,123,-1
 567 106 l 2,124,125
 567 99 567 99 569 94 c 0,126,127
 570 87 570 87 570 81 c 0,128,129
 570 71 570 71 572 61 c 0,130,131
 574 49 574 49 580 42 c 0,132,133
 586 36 586 36 597 32 c 0,134,135
 608 28 608 28 620 25 c 0,136,137
 631 22 631 22 641 19 c 0,138,139
 652 15 652 15 652 13 c 0,0,1
EndSplineSet
Validated: 33
Substitution2: "'smcp' Gemeine in Kapit+AOQA-lchen in Lateinisch Nachschlagetabelle 0 Subtabelle" uni029C
EndChar

